<svg width="560" height="365" viewBox="0 0 560 365" fill="none" xmlns="http://www.w3.org/2000/svg">
<path d="M374.368 23.3905H50V222.21H374.368V23.3905Z" fill="#E6E6E6"/>
<path d="M131.16 61.6925H71.7515V99.7021H131.16V61.6925Z" fill="white"/>
<path d="M204.979 61.6925H145.571V99.7021H204.979V61.6925Z" fill="white"/>
<path d="M278.797 61.6925H219.389V99.7021H278.797V61.6925Z" fill="white"/>
<path d="M352.617 61.6925H293.208V99.7021H352.617V61.6925Z" fill="white"/>
<path d="M131.16 115.491H71.7515V153.5H131.16V115.491Z" fill="white"/>
<path d="M204.979 115.491H145.571V153.5H204.979V115.491Z" fill="white"/>
<path d="M278.797 115.491H219.389V153.5H278.797V115.491Z" fill="white"/>
<path d="M352.617 115.491H293.208V153.5H352.617V115.491Z" fill="white"/>
<path d="M131.16 169.289H71.7515V207.298H131.16V169.289Z" fill="white"/>
<path d="M204.979 169.289H145.571V207.298H204.979V169.289Z" fill="white"/>
<path d="M278.797 169.289H219.389V207.298H278.797V169.289Z" fill="white"/>
<path d="M352.617 169.289H293.208V207.298H352.617V169.289Z" fill="white"/>
<path d="M134.953 46.781C139.875 46.781 143.865 42.8539 143.865 38.0096C143.865 33.1653 139.875 29.2382 134.953 29.2382C130.032 29.2382 126.042 33.1653 126.042 38.0096C126.042 42.8539 130.032 46.781 134.953 46.781Z" fill="white"/>
<path d="M282.285 46.781C287.207 46.781 291.197 42.8539 291.197 38.0096C291.197 33.1653 287.207 29.2382 282.285 29.2382C277.364 29.2382 273.374 33.1653 273.374 38.0096C273.374 42.8539 277.364 46.781 282.285 46.781Z" fill="white"/>
<path d="M138.518 0H131.389V40.3486H138.518V0Z" fill="#E6E6E6"/>
<path d="M285.85 0H278.721V40.3486H285.85V0Z" fill="#E6E6E6"/>
<path d="M336.347 80.6973C336.344 83.8728 335.177 86.9406 333.06 89.337C330.943 91.7334 328.019 93.2974 324.824 93.7415C321.63 94.1857 318.38 93.4803 315.671 91.7549C312.963 90.0295 310.978 87.3999 310.081 84.3495C309.185 81.299 309.437 78.0325 310.791 75.1502C312.145 72.2679 314.51 69.9634 317.452 68.66C320.394 67.3567 323.715 67.1422 326.805 68.0559C329.894 68.9696 332.545 70.95 334.271 73.6334C335.629 75.7466 336.349 78.1965 336.347 80.6973Z" fill="#3795BD"/>
<path d="M334.271 73.6335L321.046 86.648C320.215 85.3814 315.585 79.4952 315.585 79.4952C316.178 78.9048 316.811 78.3546 317.48 77.8483L321.32 82.8877L332.722 71.6644C333.3 72.2712 333.819 72.9305 334.271 73.6335Z" fill="white"/>
<path d="M188.709 134.495C188.706 137.671 187.539 140.739 185.422 143.135C183.305 145.532 180.381 147.096 177.186 147.54C173.992 147.984 170.742 147.279 168.033 145.553C165.325 143.828 163.34 141.198 162.444 138.148C161.547 135.097 161.799 131.831 163.153 128.948C164.507 126.066 166.872 123.762 169.814 122.458C172.756 121.155 176.077 120.94 179.167 121.854C182.256 122.768 184.908 124.748 186.633 127.432C187.991 129.545 188.711 131.995 188.709 134.495Z" fill="#3795BD"/>
<path d="M186.633 127.432L173.408 140.446C172.577 139.18 167.947 133.293 167.947 133.293C168.54 132.703 169.173 132.153 169.842 131.646L173.682 136.686L185.084 125.463C185.662 126.069 186.181 126.729 186.633 127.432Z" fill="white"/>
<path d="M114.89 134.496C114.887 137.671 113.72 140.739 111.603 143.135C109.486 145.532 106.562 147.096 103.367 147.54C100.173 147.984 96.9227 147.279 94.2143 145.553C91.5059 143.828 89.521 141.198 88.6244 138.148C87.7278 135.097 87.9797 131.831 89.3338 128.948C90.6879 126.066 93.0532 123.762 95.9951 122.458C98.9371 121.155 102.258 120.94 105.348 121.854C108.438 122.768 111.089 124.748 112.814 127.432C114.172 129.545 114.892 131.995 114.89 134.496Z" fill="#3795BD"/>
<path d="M112.814 127.432L99.5893 140.446C98.7582 139.18 94.1277 133.293 94.1277 133.293C94.7211 132.703 95.3544 132.153 96.0231 131.646L99.8629 136.686L111.265 125.463C111.843 126.069 112.362 126.729 112.814 127.432Z" fill="white"/>
<g clip-path="url(#clip0_602_307)">
<path d="M346.207 186.117C343.128 185.582 335.139 178.15 335.139 178.15C335.139 178.15 344.987 173.833 348.062 174.367C349.542 174.624 350.865 175.488 351.739 176.771C352.613 178.053 352.968 179.649 352.725 181.206C352.481 182.764 351.66 184.156 350.441 185.076C349.222 185.996 347.706 186.369 346.226 186.113L346.207 186.117Z" fill="#3795BD"/>
<path d="M322.438 172.8C322.854 176.04 329.658 184.695 329.658 184.695C329.658 184.695 334.049 174.469 333.634 171.216C333.551 170.428 333.32 169.666 332.953 168.973C332.587 168.281 332.092 167.672 331.499 167.184C330.905 166.695 330.225 166.337 329.498 166.129C328.771 165.921 328.012 165.869 327.265 165.974C326.519 166.08 325.8 166.342 325.151 166.744C324.502 167.146 323.936 167.681 323.486 168.317C323.036 168.953 322.712 169.677 322.532 170.447C322.352 171.217 322.32 172.017 322.438 172.8Z" fill="#3795BD"/>
<path opacity="0.25" d="M346.207 186.117C343.128 185.582 335.139 178.15 335.139 178.15C335.139 178.15 344.987 173.833 348.062 174.367C349.542 174.624 350.865 175.488 351.739 176.771C352.613 178.053 352.968 179.649 352.725 181.206C352.481 182.764 351.66 184.156 350.441 185.076C349.222 185.996 347.706 186.369 346.226 186.113L346.207 186.117Z" fill="black"/>
<path opacity="0.25" d="M322.438 172.8C322.854 176.04 329.658 184.695 329.658 184.695C329.658 184.695 334.049 174.469 333.634 171.216C333.551 170.428 333.32 169.666 332.953 168.973C332.587 168.281 332.092 167.672 331.499 167.184C330.905 166.695 330.225 166.337 329.498 166.129C328.771 165.921 328.012 165.869 327.265 165.974C326.519 166.08 325.8 166.342 325.151 166.744C324.502 167.146 323.936 167.681 323.486 168.317C323.036 168.953 322.712 169.677 322.532 170.447C322.352 171.217 322.32 172.017 322.438 172.8Z" fill="black"/>
<path d="M341.061 176.097C338.04 176.907 327.865 173.557 327.865 173.557C327.865 173.557 335.204 165.412 338.225 164.586C339.675 164.19 341.216 164.417 342.507 165.216C343.799 166.016 344.736 167.323 345.112 168.849C345.488 170.375 345.273 171.997 344.513 173.356C343.753 174.715 342.512 175.701 341.061 176.097Z" fill="#3795BD"/>
<path d="M326.075 149.394C328.134 151.86 338.348 155.092 338.348 155.092C338.348 155.092 336.624 144.015 334.565 141.548C334.079 140.949 333.485 140.458 332.817 140.102C332.149 139.747 331.42 139.535 330.674 139.478C329.927 139.421 329.177 139.522 328.467 139.773C327.758 140.024 327.103 140.421 326.54 140.941C325.978 141.46 325.519 142.093 325.191 142.801C324.862 143.509 324.671 144.278 324.628 145.065C324.585 145.851 324.69 146.639 324.939 147.382C325.187 148.125 325.574 148.809 326.075 149.394Z" fill="#3795BD"/>
<path d="M314.187 174.068C315.819 176.862 325.367 181.864 325.367 181.864C325.367 181.864 325.448 170.641 323.828 167.843C323.021 166.55 321.768 165.639 320.334 165.303C318.9 164.967 317.398 165.232 316.147 166.042C314.895 166.851 313.993 168.142 313.631 169.641C313.268 171.139 313.475 172.727 314.206 174.068H314.187Z" fill="#3795BD"/>
<path d="M302.98 86.6433C303.619 84.1767 304.389 81.698 304.928 79.199C304.281 81.698 303.507 84.1848 302.98 86.6433Z" fill="url(#paint0_linear_602_307)"/>
<path d="M216.027 169.892L213.718 170.965C213.718 170.965 198.666 232.505 198.666 237.478C198.666 242.452 230.582 270.127 230.582 270.127L235.562 234.752C235.562 234.752 228.411 153.63 216.027 169.892Z" fill="#E8F5FF"/>
<path d="M286.035 150.317L272.7 142.994C271.953 139.643 270.628 136.465 268.79 133.618C266.839 130.653 264.245 127.741 261.012 126.222C252.842 122.366 295.572 102.127 295.572 102.127C296.245 104.559 297.038 106.952 297.947 109.296C300.148 115.015 303.8 122.411 308.507 124.517C316.508 128.102 286.035 150.317 286.035 150.317Z" fill="#FFC1C7"/>
<path opacity="0.1" d="M297.947 109.296C296.121 116.054 292.324 122.038 287.092 126.402C281.861 130.766 275.459 133.29 268.79 133.618C266.839 130.653 264.245 127.741 261.012 126.222C252.842 122.366 295.572 102.127 295.572 102.127C296.245 104.559 297.038 106.952 297.947 109.296Z" fill="black"/>
<path d="M299.147 99.0775C299.149 105.705 297.283 112.185 293.785 117.696C290.287 123.207 285.315 127.503 279.497 130.041C273.679 132.578 267.277 133.242 261.1 131.95C254.923 130.658 249.25 127.467 244.796 122.781C240.343 118.094 237.31 112.123 236.081 105.623C234.853 99.1228 235.483 92.385 237.893 86.2619C240.304 80.1388 244.385 74.9054 249.622 71.2236C254.858 67.5419 261.015 65.5772 267.312 65.578C271.498 65.5576 275.646 66.4102 279.517 68.0864C283.388 69.7627 286.905 72.2294 289.865 75.3441C292.825 78.4588 295.169 82.1599 296.762 86.2334C298.355 90.307 299.166 94.6724 299.147 99.0775Z" fill="#FFC1C7"/>
<path d="M303.742 146.016L295.06 167.336L287.402 181.488H262.886L255.736 162.14L258.634 142.075H277.357L289.445 141.358L293.528 139.924L296.161 141.496L303.742 146.016Z" fill="#575A89"/>
<path opacity="0.1" d="M300.752 117.595C300.752 117.595 306.167 118.81 301.318 122.994C296.469 127.178 279.739 140.483 279.739 140.483C279.739 140.483 285.616 145.991 284.4 152.444L303.869 141.022L307.333 122.747C307.333 122.747 307.722 117.255 300.752 117.595Z" fill="black"/>
<path opacity="0.1" d="M283.568 140.483L271.184 142.634C271.184 142.634 273.739 152.577 272.462 155.4C272.423 155.488 272.391 155.579 272.365 155.672L267.312 170.046L271.099 181.334L284.207 162.521L279.739 155.4C279.739 155.4 284.461 148.814 287.271 146.53C290.08 144.246 283.568 140.483 283.568 140.483Z" fill="black"/>
<path d="M283.568 139.928L271.184 142.075C271.184 142.075 273.739 152.018 272.462 154.841C272.423 154.929 272.391 155.02 272.365 155.113L267.312 169.487L271.099 180.775L284.207 161.949L279.739 154.829C279.739 154.829 284.461 148.243 287.271 145.959C290.08 143.675 283.568 139.928 283.568 139.928Z" fill="#DCE6F2"/>
<path d="M301.272 116.522C301.272 116.522 306.686 117.737 301.833 121.921C296.98 126.105 279.739 140.483 279.739 140.483C279.739 140.483 286.124 144.918 284.911 151.366L304.381 139.948L307.845 121.674C307.845 121.674 308.23 116.182 301.272 116.522Z" fill="#575A89"/>
<path opacity="0.1" d="M269.64 134.886C269.64 134.886 270.822 137.211 276.037 141.403C276.037 141.403 267.354 146.263 270.676 153.096L257.394 149.45L255.351 142.731L269.64 134.886Z" fill="black"/>
<path d="M269.129 134.351C269.129 134.351 270.31 136.676 275.525 140.868C275.525 140.868 266.843 145.704 270.164 152.557L256.887 148.912L254.843 142.196L269.129 134.351Z" fill="#575A89"/>
<path opacity="0.1" d="M303.742 146.016L295.06 167.336L287.417 181.488H262.886L255.736 162.14L258.63 142.075H263.837C263.752 146.757 265.376 152.257 265.272 154.303C265.095 157.664 270.037 175.801 270.037 175.801C270.037 175.801 280.378 158.199 284.461 156.631C287.028 155.647 292.466 147.458 296.157 141.496L303.742 146.016Z" fill="black"/>
<path d="M337.944 258.211L337.063 259.378C337.063 259.378 343.448 293.104 341.681 300.763C341.381 302.144 341.209 303.552 341.169 304.967V305.028C340.858 312.821 343.094 322.934 343.094 322.934C343.094 322.934 344.879 352.744 343.863 365.004H224.32C223.62 346.875 222.866 323.388 223.551 320.784C224.705 316.486 227.014 300.897 227.014 300.897L227.268 293.509C227.268 293.509 227.268 286.369 227.476 278.414C227.565 274.838 227.696 271.083 227.884 267.754C228.127 263.566 228.465 260.038 228.931 258.305C229.218 256.991 229.383 255.651 229.424 254.303C229.424 254.177 229.424 254.048 229.447 253.918C229.447 253.513 229.485 253.076 229.5 252.626C229.5 252.501 229.5 252.375 229.5 252.221C229.574 249.613 229.547 246.518 229.466 243.311C229.466 243.136 229.466 242.958 229.466 242.78C229.4 240.374 229.304 237.92 229.196 235.587C228.862 228.296 228.427 222.132 228.427 222.132L213.745 170.937L217.701 160.682L228.681 153.602L248.982 140.702C258.884 132.136 265.403 133.164 267.89 134.104C268.131 134.191 268.367 134.292 268.598 134.408C268.675 134.448 268.736 134.481 268.794 134.517C268.873 134.557 268.949 134.603 269.021 134.655C268.34 135 267.749 135.512 267.297 136.149C266.788 136.874 266.425 137.701 266.231 138.58C266.101 139.124 266.009 139.678 265.958 140.236C265.908 140.823 265.888 141.431 265.888 142.043C265.916 143.384 266.025 144.722 266.215 146.048C266.215 146.073 266.215 146.105 266.215 146.137C266.342 147.085 266.5 148.013 266.654 148.883C266.652 148.898 266.652 148.913 266.654 148.928C266.831 149.945 267.008 150.884 267.128 151.694C267.151 151.84 267.17 151.974 267.189 152.099C267.274 152.635 267.314 153.177 267.308 153.719C267.352 155.03 267.519 156.332 267.809 157.608C267.909 158.142 268.024 158.713 268.151 159.309C268.324 160.119 268.513 161.002 268.717 161.901C268.829 162.395 268.948 162.905 269.071 163.412C269.117 163.614 269.167 163.817 269.213 164.023L269.29 164.343C270.11 167.774 270.999 171.188 271.546 173.254C271.869 174.469 272.073 175.218 272.073 175.218C272.073 175.218 277.869 165.356 282.495 159.742C282.564 159.661 282.626 159.584 282.691 159.511C283.149 158.956 283.599 158.45 284.03 158.005C284.973 157.016 285.82 156.312 286.501 156.052C286.646 155.996 286.787 155.927 286.921 155.846C288.814 154.716 291.87 150.613 294.729 146.316C295.01 145.911 295.283 145.469 295.56 145.052C296.195 144.088 296.811 143.12 297.392 142.192C297.839 141.484 298.266 140.795 298.67 140.139C300.594 136.988 301.949 134.639 301.949 134.639L304.62 134.513L305.086 134.489H305.397L317.524 133.897C317.524 133.897 318.047 133.991 318.909 134.173C318.956 134.173 319.002 134.173 319.052 134.205C323.355 135.104 335.308 137.952 336.039 141.901C336.932 146.737 356.213 153.189 356.213 153.189C356.467 156.429 361.189 158.563 361.189 158.563C361.189 158.563 368.34 178.45 366.427 186.243C364.538 193.938 371.346 212.974 371.527 213.509L370.222 215.242L337.944 258.211Z" fill="#E8F5FF"/>
<path opacity="0.1" d="M300.748 116.182C300.748 116.182 312.552 112.658 315.234 119.912C317.916 127.166 323.916 156.461 323.916 156.461C323.916 156.461 308.337 159.552 304.254 156.461C301.859 154.627 298.895 153.811 295.953 154.177L287.144 160.491L284.542 159.681C284.542 159.681 298.635 137.632 301.699 130.139C304.762 122.646 305.797 119.296 300.748 116.182Z" fill="black"/>
<path d="M300.236 114.562C300.236 114.562 312.047 111.038 314.741 118.292C317.435 125.546 323.424 154.841 323.424 154.841C323.424 154.841 307.849 157.932 303.761 154.841C301.368 153.007 298.404 152.191 295.464 152.557L286.647 158.871L284.045 158.061C284.045 158.061 298.139 136.012 301.202 128.519C304.266 121.026 305.285 117.684 300.236 114.562Z" fill="#E8F5FF"/>
<path opacity="0.1" d="M221.007 231.431C221.007 231.431 229.816 233.716 231.478 238.957C233.141 244.198 224.967 244.331 224.967 244.331C224.967 244.331 219.987 235.06 221.007 231.431Z" fill="black"/>
<path opacity="0.1" d="M253.819 270.127C253.819 270.127 232.244 316.62 237.224 321.055C242.204 325.49 253.819 270.127 253.819 270.127Z" fill="black"/>
<path opacity="0.1" d="M283.568 235.866C283.568 235.866 300.806 281.026 297.358 288.001C293.909 294.975 304.762 288.001 304.762 288.001L283.568 235.866Z" fill="black"/>
<path d="M307.572 280.476C307.572 280.476 249.351 283.432 266.335 302.513C283.318 321.594 318.17 303.323 318.17 303.323L307.572 280.476Z" fill="#FFC1C7"/>
<path opacity="0.1" d="M299.147 99.0775C299.152 103.472 298.332 107.824 296.734 111.884C296.199 111.949 295.664 111.99 295.148 112.014C294.379 110.236 294.791 108.182 294.806 106.226C294.821 104.27 294.136 101.969 292.347 101.443C288.779 100.386 286.316 107.405 282.799 106.137C280.105 105.173 280.809 100.872 279.258 98.389C278.03 96.4246 275.571 95.8697 273.658 94.6385C269.59 92.0099 269.714 87.8057 267.824 83.8284C265.846 79.6607 261.666 80.892 258.037 83.3505C255.282 85.2217 252.903 87.7288 249.955 89.2192C247.404 90.5153 244.536 90.9852 241.708 91.054C239.966 91.125 238.224 90.9313 236.535 90.4789C238.522 82.6189 243.157 75.7877 249.577 71.2592C255.996 66.7306 263.761 64.8138 271.424 65.8663C279.088 66.9188 286.126 70.8686 291.226 76.9793C296.326 83.09 299.14 90.9443 299.143 99.0775H299.147Z" fill="black"/>
<path d="M258.049 82.2771C255.289 84.1483 252.915 86.6514 249.967 88.15C247.415 89.442 244.548 89.9118 241.719 89.9807C238.256 90.0617 234.526 89.4218 232.16 86.7891C229.985 84.359 229.466 80.6206 230.385 77.4331C231.305 74.2455 233.51 71.6007 236.101 69.685C238.691 67.7692 241.696 66.4448 243.413 63.7028C244.321 62.2528 244.76 60.5436 245.514 59.0004C247.927 54.0632 253.353 51.39 258.599 51.0579C263.845 50.7258 269.044 52.3702 274.039 54.1523C279.035 55.9344 284.069 57.8947 289.341 58.2633C291.689 58.4172 294.129 58.2633 296.307 59.1989C299.236 60.4504 301.156 63.4435 302.465 66.4893C303.931 69.9239 304.843 73.6744 304.689 77.425C304.366 85.4323 299.34 93.2897 301.549 100.961C302.134 103.006 303.23 105.104 302.645 107.15C301.791 110.135 298.131 110.815 295.172 110.957C294.402 109.179 294.814 107.121 294.829 105.169C294.844 103.217 294.159 100.912 292.374 100.386C288.802 99.3367 286.339 106.344 282.829 105.08C280.155 104.112 280.847 99.8147 279.293 97.3319C278.065 95.3635 275.602 94.8126 273.693 93.5814C269.625 90.9528 269.748 86.7486 267.859 82.7713C265.865 78.5833 261.682 79.8146 258.049 82.2771Z" fill="#99607E"/>
<path d="M201.595 236.401L198.658 237.478C198.658 237.478 199.813 255.753 195.964 260.994C192.116 266.235 208.603 279.265 208.603 279.265C208.603 279.265 231.202 279.131 231.84 277.239C232.479 275.348 230.686 243.379 230.686 243.379C230.686 243.379 218.555 238.406 219.575 230.479C219.575 230.479 215.873 249.155 210.385 248.349C204.897 247.543 198.666 242.719 201.595 236.401Z" fill="#E8F5FF"/>
<path opacity="0.1" d="M211.389 254.003C215.668 254.003 219.136 250.665 219.136 246.547C219.136 242.429 215.668 239.09 211.389 239.09C207.111 239.09 203.642 242.429 203.642 246.547C203.642 250.665 207.111 254.003 211.389 254.003Z" fill="black"/>
<path d="M219.86 236.94C219.86 236.94 218.32 187.494 204.92 198.511C191.519 209.528 191.388 222.703 193.94 226.595C196.491 230.488 204.673 249.973 204.673 249.973C205.953 250.754 207.391 251.204 208.868 251.288C210.345 251.371 211.82 251.085 213.171 250.452C214.523 249.82 215.713 248.86 216.644 247.65C217.576 246.44 218.221 245.016 218.528 243.493L219.86 236.94Z" fill="#FFC1C7"/>
<path opacity="0.1" d="M303.454 111.694C303.391 111.477 303.271 111.283 303.107 111.135C302.445 110.499 301.021 110.276 298.874 110.471L298.962 111.54C301.826 111.281 302.391 111.88 302.465 111.982V112.083L302.553 112.216C302.91 112.721 303.163 113.299 303.296 113.913C303.428 114.527 303.437 115.163 303.323 115.781C302.695 119.082 298.843 121.71 298.805 121.739L298.712 121.795L298.655 121.888C296.992 124.485 287.59 131.812 285.131 133.707L284.915 133.448C283.815 134.452 274.139 143.367 273.616 146.781C273.277 148.924 270.984 149.754 270.152 149.985C269.275 149.284 266.427 146.899 264.945 144.226C263.556 141.71 269.148 136.801 269.64 134.886L268.871 134.055C268.79 134.363 261.609 141.427 263.606 145.036C265.207 147.931 268.132 150.41 269.156 151.228C268.828 154.355 266.793 172.715 263.664 177.065C259.777 182.472 256.509 209.722 256.871 219.236C257.191 227.689 255.093 243.655 248.089 250.512C246.876 251.751 245.413 252.686 243.809 253.247C242.205 253.808 240.502 253.981 238.825 253.752H238.741H238.656C238.556 253.752 228.396 254.846 219.86 247.272C212.875 241.087 208.918 230.994 208.095 217.263H207.926L207.856 213.266C209.75 212.955 211.456 211.883 212.615 210.276C213.774 208.67 214.296 206.653 214.071 204.649C213.847 202.646 212.893 200.812 211.411 199.533C209.928 198.254 208.033 197.629 206.122 197.791C204.211 197.952 202.434 198.886 201.164 200.397C199.895 201.908 199.231 203.879 199.312 205.894C199.394 207.909 200.214 209.813 201.602 211.205C202.989 212.597 204.835 213.369 206.752 213.359H206.836L206.906 217.332L206.567 217.357C207.414 231.532 211.57 242.019 218.882 248.495C224.44 253.342 231.539 255.787 238.745 255.336C239.256 255.395 239.77 255.424 240.284 255.425C243.587 255.443 246.764 254.098 249.136 251.678C256.513 244.449 258.757 227.895 258.407 219.155C258.022 209.074 261.451 182.804 264.891 178.021C268.263 173.326 270.306 155.036 270.664 151.492C271.884 151.131 274.644 149.993 275.113 147.036C275.452 144.898 281.913 138.308 285.889 134.659L285.77 134.513C287.909 132.869 294.564 127.684 297.862 124.355C298.885 123.322 299.901 122.289 300.964 121.305C302.241 120.114 303.865 118.223 304.293 115.987C304.438 115.249 304.439 114.488 304.295 113.749C304.15 113.011 303.864 112.312 303.454 111.694Z" fill="black"/>
<path d="M269.025 150.973C268.863 150.856 265.03 147.968 263.11 144.493C261.116 140.884 268.297 133.825 268.374 133.517L269.144 134.347C268.655 136.259 263.063 141.172 264.453 143.683C266.204 146.854 269.891 149.629 269.929 149.657L269.025 150.973Z" fill="#353146"/>
<path d="M284.631 134.493L284.03 133.622C284.153 133.529 296.242 124.327 298.147 121.35L298.208 121.261L298.297 121.2C298.335 121.172 302.188 118.547 302.815 115.242C302.931 114.625 302.922 113.989 302.789 113.376C302.657 112.763 302.403 112.186 302.045 111.682L301.957 111.544V111.447C301.88 111.342 301.314 110.746 298.451 111.006L298.362 109.932C300.514 109.738 301.934 109.961 302.596 110.596C302.76 110.746 302.882 110.941 302.946 111.159C303.362 111.775 303.654 112.474 303.803 113.213C303.953 113.952 303.957 114.716 303.816 115.457C303.388 117.697 301.768 119.588 300.487 120.775C299.428 121.759 298.408 122.8 297.388 123.825C293.521 127.725 285.054 134.173 284.631 134.493Z" fill="#E8F5FF"/>
<path d="M207.36 211.856L206.34 211.875L206.453 218.399L207.473 218.38L207.36 211.856Z" fill="#E8F5FF"/>
<path d="M206.255 212.845C210.368 212.845 213.702 209.336 213.702 205.008C213.702 200.679 210.368 197.17 206.255 197.17C202.142 197.17 198.808 200.679 198.808 205.008C198.808 209.336 202.142 212.845 206.255 212.845Z" fill="#3795BD"/>
<path d="M206.255 211.516C209.671 211.516 212.44 208.602 212.44 205.008C212.44 201.413 209.671 198.499 206.255 198.499C202.84 198.499 200.071 201.413 200.071 205.008C200.071 208.602 202.84 211.516 206.255 211.516Z" fill="#E8F5FF"/>
<path d="M239.799 254.902C239.285 254.903 238.771 254.875 238.26 254.817C231.055 255.264 223.957 252.819 218.397 247.976C211.085 241.496 206.936 231.022 206.082 216.834L207.621 216.733C208.445 230.463 212.401 240.56 219.39 246.741C227.926 254.295 238.083 253.221 238.183 253.221H238.267H238.352C240.029 253.449 241.733 253.276 243.337 252.715C244.941 252.154 246.405 251.22 247.619 249.981C254.62 243.124 256.717 227.158 256.398 218.705C256.013 209.183 259.28 181.933 263.171 176.53C266.577 171.795 268.69 150.455 268.713 150.24L268.771 149.633L269.34 149.527C269.375 149.527 272.7 148.863 273.116 146.247C273.654 142.836 283.314 133.922 284.411 132.913L285.416 134.128C281.425 137.773 274.963 144.367 274.64 146.51C274.17 149.475 271.411 150.609 270.195 150.965C269.81 154.513 267.782 172.8 264.422 177.494C260.981 182.278 257.552 208.547 257.937 218.628C258.268 227.369 256.047 243.926 248.67 251.152C246.294 253.577 243.109 254.924 239.799 254.902Z" fill="#353146"/>
<g opacity="0.1">
<path d="M302.426 89.5028C303.057 87.0483 303.819 84.5777 304.351 82.0908C303.716 84.5898 302.95 87.0483 302.426 89.5028Z" fill="black"/>
<path d="M295.988 108.79C295.218 107.012 295.63 104.954 295.645 103.002C295.66 101.05 294.975 98.7656 293.19 98.2188C289.618 97.1698 287.155 104.181 283.645 102.913C280.951 101.945 281.663 97.6478 280.109 95.165C278.881 93.1966 276.422 92.6457 274.513 91.4144C270.441 88.7858 270.564 84.5817 268.678 80.6044C266.696 76.4326 262.521 77.6639 258.888 80.1264C256.128 81.9976 253.754 84.5047 250.806 85.9993C248.254 87.2913 245.387 87.7611 242.558 87.83C239.114 87.915 235.366 87.2711 232.999 84.6384C231.175 82.6133 230.516 79.6445 230.894 76.8619C230.828 77.0523 230.77 77.2427 230.713 77.433C229.789 80.6206 230.328 84.367 232.487 86.7891C234.854 89.4217 238.602 90.0617 242.047 89.9807C244.879 89.9118 247.742 89.442 250.298 88.15C253.254 86.6514 255.628 84.1483 258.38 82.2771C262.013 79.8146 266.192 78.5833 268.17 82.755C270.056 86.7324 269.937 90.9365 274.005 93.5651C275.929 94.7802 278.373 95.3472 279.604 97.3156C281.144 99.8065 280.463 104.096 283.141 105.064C286.647 106.327 289.11 99.3205 292.682 100.37C294.467 100.896 295.156 103.205 295.137 105.153C295.118 107.101 294.718 109.163 295.48 110.941C298.439 110.799 302.099 110.131 302.957 107.133C303.075 106.703 303.13 106.257 303.119 105.809C301.868 108.081 298.651 108.664 295.988 108.79Z" fill="black"/>
</g>
<path opacity="0.1" d="M365.542 208.588L370.01 213.562C370.01 213.562 373.585 240.97 375.371 243.533C377.157 246.097 381.375 256.296 377.415 263.955C377.415 263.955 376.137 268.122 376.903 269.868C377.669 271.614 371.161 280.35 371.161 280.35C371.161 280.35 362.606 288.41 360.816 289.621C359.026 290.832 349.582 300.504 346.392 300.638C343.201 300.771 342.158 304.939 342.158 304.939L324.155 305.611C324.155 305.611 314.21 305.065 312.047 306.543C312.047 306.543 313.202 290.553 302.091 280.071L316.262 274.696C316.262 274.696 321.626 272.266 323.285 269.726C324.329 268.169 325.809 266.995 327.519 266.369C327.519 266.369 331.475 263.412 331.602 261.8C331.729 260.188 336.439 258.211 336.439 258.211L333.772 234.254L335.177 194.481C335.177 194.481 339.645 161.156 349.093 163.039C358.541 164.922 365.542 208.588 365.542 208.588Z" fill="black"/>
<path d="M367.081 208.588L371.549 213.562C371.549 213.562 375.125 240.97 376.91 243.533C378.696 246.097 382.914 256.296 378.954 263.955C378.954 263.955 377.68 268.122 378.446 269.868C379.212 271.614 372.7 280.35 372.7 280.35C372.7 280.35 364.145 288.41 362.355 289.621C360.566 290.832 351.121 300.504 347.931 300.638C344.741 300.771 343.698 304.939 343.698 304.939L325.694 305.611C325.694 305.611 315.742 305.065 313.587 306.543C313.587 306.543 314.741 290.553 303.631 280.071L317.801 274.696C317.801 274.696 323.166 272.266 324.824 269.726C325.868 268.169 327.348 266.995 329.058 266.369C329.058 266.369 333.014 263.412 333.141 261.8C333.268 260.188 337.979 258.211 337.979 258.211L335.312 234.254L336.716 194.481C336.716 194.481 341.185 161.156 350.633 163.039C360.081 164.922 367.081 208.588 367.081 208.588Z" fill="#E8F5FF"/>
<path opacity="0.1" d="M350.471 248.766C350.471 248.766 363.622 245.121 367.07 249.576C370.518 254.032 350.471 248.766 350.471 248.766Z" fill="black"/>
<path opacity="0.1" d="M347.408 254.878C351.876 258.171 365.665 258.305 365.665 258.305L347.408 254.878Z" fill="black"/>
<path opacity="0.1" d="M354.173 271.338C354.558 271.472 363.652 281.687 367.47 278.596C371.288 275.506 354.173 271.338 354.173 271.338Z" fill="black"/>
<path opacity="0.1" d="M231.698 185.611C231.698 185.611 234.369 204.963 233.052 212.845C231.736 220.726 236.539 230.492 236.539 230.492L231.698 185.611Z" fill="black"/>
<path d="M172.569 193.481C169.49 196.02 167.243 202.031 165.615 208.637C162.775 220.159 161.847 233.521 161.847 233.521C161.847 233.521 137.332 227.608 139.118 224.923C140.241 223.234 138.733 210.508 137.474 201.281C136.724 195.83 136.054 191.597 136.054 191.597C136.054 191.597 180.997 186.49 172.569 193.481Z" fill="#FFCCD0"/>
<path opacity="0.1" d="M172.569 192.942C169.49 195.485 167.243 201.492 165.615 208.098C160.73 209.659 155.536 209.799 150.581 208.505C145.627 207.211 141.098 204.53 137.474 200.747C136.724 195.291 136.054 191.058 136.054 191.058C136.054 191.058 180.997 185.955 172.569 192.942Z" fill="black"/>
<path d="M185.747 178.466C185.749 185.511 183.383 192.329 179.068 197.715C174.753 203.101 168.767 206.706 162.169 207.893C155.571 209.08 148.786 207.772 143.016 204.201C137.246 200.63 132.863 195.026 130.641 188.381C128.42 181.735 128.504 174.477 130.879 167.89C133.254 161.304 137.766 155.814 143.617 152.392C149.468 148.97 156.281 147.837 162.85 149.194C169.418 150.55 175.319 154.308 179.508 159.803C183.545 165.096 185.745 171.679 185.747 178.466Z" fill="#FFCCD0"/>
<path opacity="0.1" d="M208.099 365.004H200.017L199.336 349.982L198.624 334.433C198.624 334.433 200.459 334.145 203.384 333.716L204.566 333.55H204.662C205.301 336.705 205.932 339.945 206.54 343.181C207.552 348.926 208.079 354.755 208.114 360.597C208.114 361.002 208.114 361.407 208.114 361.788C208.137 362.87 208.114 363.951 208.099 365.004Z" fill="black"/>
<path d="M206.548 365.004H105.193C105.632 363.955 105.924 363.319 105.924 363.319C105.924 363.319 114.033 325.984 118.155 310.188C118.156 310.175 118.156 310.161 118.155 310.148C118.67 308.002 119.291 305.886 120.017 303.809C120.064 303.668 120.125 303.532 120.198 303.404C122.238 299.913 124.793 296.15 121.218 290.775C117.643 285.401 118.909 261.751 118.909 261.751C118.909 261.751 123.25 241.593 127.845 230.844C128.543 229.179 129.532 227.667 130.762 226.389C131.162 225.977 131.589 225.595 132.04 225.247C132.383 224.976 132.74 224.725 133.11 224.497L133.183 224.449C135.114 223.297 137.257 222.596 139.468 222.395C141.038 222.222 142.623 222.269 144.182 222.533C151.633 223.683 157.598 225.607 162.34 227.798C175.19 233.74 179.081 241.703 179.158 241.869L179.188 241.938C179.704 243.205 187.247 261.739 189.964 270.386C190.669 272.638 191.053 274.222 190.9 274.655C190.13 276.802 196.772 303.675 196.772 303.675C196.772 303.675 199.851 316.636 202.93 331.829C203.065 332.46 203.192 333.092 203.315 333.732C203.865 336.49 204.412 339.301 204.939 342.108C205.961 347.893 206.487 353.762 206.513 359.646C206.569 361.479 206.581 363.265 206.548 365.004Z" fill="#3795BD"/>
<path opacity="0.1" d="M138.864 213.152C138.864 213.152 131.871 210.317 131.956 214.619C132.04 218.92 133.66 220.978 133.149 221.605C132.637 222.233 133.403 225.996 133.403 225.996C133.403 225.996 142.851 225.996 147.192 228.053C151.533 230.111 167.535 234.234 169.579 235.49C171.622 236.745 179.2 242.375 179.2 242.375L179.881 231.715C179.881 231.715 172.05 224.906 159.199 221.415C146.349 217.924 138.864 213.152 138.864 213.152Z" fill="black"/>
<path d="M138.864 212.614C138.864 212.614 131.871 209.779 131.956 214.08C132.04 218.381 133.66 220.439 133.149 221.067C132.637 221.694 133.403 225.457 133.403 225.457C133.403 225.457 142.851 225.457 147.192 227.519C151.533 229.58 167.535 233.699 169.579 234.951C171.622 236.202 179.2 241.836 179.2 241.836L179.889 231.208C179.889 231.208 172.057 224.4 159.207 220.909C146.357 217.417 138.864 212.614 138.864 212.614Z" fill="#3795BD"/>
<path opacity="0.1" d="M159.973 238.268C159.973 238.268 173.335 253.493 172.654 257.709C171.973 261.926 159.973 238.268 159.973 238.268Z" fill="black"/>
<path opacity="0.1" d="M138.267 293.266C138.267 293.266 128.473 302.764 125.586 303.303C122.7 303.841 127.799 305.632 131.117 304.202C134.434 302.772 141.508 299.009 141.508 299.009L138.267 293.266Z" fill="black"/>
<path d="M210.527 365.004H187.686C184.492 362.088 181.471 359.386 179.546 357.762C176.468 355.162 174.247 351.334 172.831 348.256C172.511 347.556 172.234 346.899 171.999 346.304C171.579 345.278 171.209 344.231 170.891 343.165L187.805 332.594C188.74 333.431 189.618 334.335 190.434 335.3L190.638 335.547C191.577 336.713 192.404 338.038 192.477 339.123C192.562 340.387 195.903 345.275 199.316 349.97C202.78 354.745 206.328 359.309 206.563 359.617C206.563 359.617 207.148 360.456 208.103 361.744C208.776 362.675 209.607 363.793 210.527 365.004Z" fill="#FFCCD0"/>
<path opacity="0.1" d="M179.508 159.803C178.696 161.731 177.969 163.732 177.861 165.878C177.557 172.075 178.049 185.931 171.53 189.041C168.301 190.572 164.845 187.211 161.304 187.13C158.757 187.073 156.421 188.774 154.866 190.901C153.311 193.027 152.345 195.55 151.218 197.956C150.191 200.14 149.009 202.238 147.681 204.234C147.284 204.845 146.847 205.425 146.372 205.971C142.397 204.206 138.857 201.509 136.022 198.086C133.187 194.663 131.132 190.604 130.014 186.218C128.895 181.832 128.743 177.236 129.568 172.779C130.393 168.322 132.174 164.122 134.775 160.499C137.377 156.876 140.729 153.926 144.578 151.873C148.427 149.82 152.67 148.719 156.984 148.653C161.298 148.588 165.57 149.56 169.473 151.495C173.376 153.429 176.809 156.277 179.508 159.819V159.803Z" fill="black"/>
<path d="M177.349 164.785C177.041 170.981 177.538 184.837 171.014 187.944C167.786 189.475 164.33 186.117 160.789 186.036C158.241 185.975 155.909 187.681 154.35 189.803C152.792 191.925 151.833 194.453 150.702 196.863C149.675 199.046 148.493 201.145 147.165 203.14C146.372 204.323 145.495 205.51 144.275 206.174C142.15 207.34 139.576 206.684 137.297 205.935C134.342 204.955 131.43 203.851 128.561 202.622C128.627 202.166 128.661 201.706 128.661 201.245C128.577 201.415 128.484 201.573 128.392 201.743L128.211 202.075C127.884 202.683 127.565 203.29 127.272 203.914C127.16 204.153 127.053 204.4 126.957 204.647C126.569 205.566 126.326 206.546 126.237 207.547C126.041 210.249 127.307 212.812 128.43 215.242C132.752 224.643 135.423 235.635 132.171 245.498C130.763 249.787 128.323 253.598 126.541 257.742C123.426 265.08 122.509 273.243 123.912 281.144C124.801 286.053 126.583 290.913 126.144 295.891C125.375 304.457 118.355 310.832 111.324 315.214C107.525 317.572 102.876 319.67 98.843 317.807C101.414 314.647 102.076 310.277 102.63 306.154C104.146 294.908 105.666 283.656 107.19 272.399C107.799 267.92 108.405 263.44 109.011 258.961C110.142 250.544 111.289 242.035 110.581 233.566C110.065 227.324 108.611 220.698 111.181 215.048C112.54 212.055 114.961 209.576 115.715 206.352C116.335 203.732 115.757 200.945 116.165 198.276C116.389 197.062 116.767 195.885 117.289 194.777C117.954 193.273 118.823 191.879 119.868 190.637C118.836 190.321 117.874 189.888 117.289 188.981C118.944 187.847 119.194 185.291 118.444 183.371C117.693 181.451 116.192 179.989 114.841 178.474C113.491 176.96 112.19 175.194 112.02 173.128C111.693 169.195 115.426 166.15 116.084 162.269C116.75 158.32 114.118 154.481 114.329 150.483C114.576 145.651 118.794 142.14 122.958 140.102C129.242 137.041 136.183 135.783 143.078 136.457C148.689 137.016 154.119 138.843 159.715 139.552C163.09 139.957 166.512 139.997 169.864 140.621C173.216 141.245 176.576 142.561 178.935 145.149C185.154 151.974 177.703 157.591 177.349 164.785Z" fill="#FFE0D0"/>
<path opacity="0.1" d="M172.146 348.26C170.183 347.365 166.612 347.9 160.481 345.936C154.35 343.971 153.169 335.093 153.169 335.093V335.065C153.096 334.862 152.526 333.542 148.67 328.916C144.409 323.809 135.2 298.013 135.2 298.013C135.2 298.013 127.033 288.783 127.291 285.38C127.549 281.978 125.84 272.926 126.01 262.8C126.179 252.675 144.394 245.959 144.394 245.959C179.466 239.418 171.207 281.97 170.272 285.194C169.336 288.418 174.189 297.126 174.189 297.126C173.504 300.917 176.999 306.786 176.999 306.786C176.999 306.786 177.845 311.978 178.019 313.951C178.028 314.042 178.048 314.132 178.076 314.218C178.638 316.077 183.218 317.762 185.081 318.787C187.04 319.864 193.34 329.269 193.34 329.269C194.698 336.174 174.101 349.168 172.146 348.26Z" fill="black"/>
<path d="M173.166 346.64C171.207 345.741 167.631 346.28 161.505 344.311C155.378 342.343 154.192 333.473 154.192 333.473V333.445C154.123 333.238 153.55 331.922 149.693 327.296C145.433 322.189 136.224 296.389 136.224 296.389C136.224 296.389 128.057 287.163 128.311 283.76C128.565 280.358 126.864 271.306 127.033 261.188C127.203 251.071 145.406 244.36 145.406 244.36C180.478 237.818 172.219 280.37 171.284 283.594C170.349 286.818 175.202 295.526 175.202 295.526C174.516 299.317 178.011 305.186 178.011 305.186C178.011 305.186 178.858 310.379 179.035 312.351C179.041 312.442 179.059 312.532 179.089 312.618C179.65 314.477 184.23 316.162 186.097 317.187C188.052 318.26 194.356 327.669 194.356 327.669C195.722 334.562 175.125 347.556 173.166 346.64Z" fill="#3795BD"/>
<path opacity="0.1" d="M146.099 266.575C146.099 266.575 161.42 283.586 165.418 283.586C169.417 283.586 146.099 266.575 146.099 266.575Z" fill="black"/>
<path d="M173.166 346.64C171.207 345.741 167.631 346.28 161.505 344.311C155.378 342.343 154.192 333.473 154.192 333.473V333.445C158.253 330.609 168.536 322.602 172.588 319.674C175.44 317.62 177.768 314.603 179.131 312.602C179.693 314.461 184.272 316.146 186.139 317.171C188.094 318.244 194.398 327.653 194.398 327.653C195.722 334.562 175.125 347.556 173.166 346.64Z" fill="#3795BD"/>
<g opacity="0.1">
<path d="M117.312 189.025C117.331 189.058 117.358 189.086 117.381 189.118C117.497 188.965 117.616 188.811 117.739 188.665C117.608 188.799 117.465 188.92 117.312 189.025Z" fill="black"/>
<path d="M126.241 207.592C126.402 205.344 127.545 203.363 128.615 201.387C127.915 201.103 127.214 200.816 126.522 200.516C126.588 200.061 126.621 199.602 126.622 199.143C125.54 201.168 124.363 203.161 124.197 205.441C124.001 208.147 125.267 210.706 126.391 213.136C130.717 222.533 133.384 233.525 130.132 243.392C128.719 247.677 126.283 251.492 124.501 255.636C121.387 262.973 120.472 271.135 121.876 279.034C122.758 283.947 124.543 288.803 124.105 293.781C123.335 302.347 116.319 308.722 109.284 313.1C106.409 314.891 103.049 316.531 99.8359 316.413C99.5385 316.917 99.2066 317.398 98.843 317.851C102.88 319.727 107.525 317.616 111.324 315.251C118.363 310.877 125.394 304.518 126.164 295.935C126.602 290.958 124.817 286.101 123.932 281.189C122.527 273.29 123.439 265.129 126.549 257.79C128.319 253.651 130.782 249.832 132.179 245.546C135.431 235.68 132.76 224.688 128.438 215.291C127.318 212.845 126.044 210.297 126.241 207.592Z" fill="black"/>
<path d="M178.927 145.198C178.548 144.789 178.142 144.41 177.711 144.064C182.375 150.431 175.64 155.842 175.305 162.695C175.005 168.892 175.498 182.751 168.975 185.854C165.75 187.389 162.29 184.027 158.753 183.946C156.201 183.89 153.869 185.595 152.311 187.717C150.752 189.839 149.794 192.367 148.666 194.773C147.637 196.956 146.454 199.054 145.125 201.05C144.356 202.237 143.455 203.42 142.231 204.088C140.115 205.251 137.54 204.598 135.258 203.845C133.038 203.111 130.84 202.301 128.661 201.415C128.657 201.837 128.623 202.258 128.561 202.675C131.432 203.906 134.346 205.01 137.301 205.988C139.58 206.741 142.154 207.393 144.275 206.231C145.495 205.562 146.38 204.376 147.169 203.189C148.498 201.196 149.681 199.098 150.706 196.915C151.837 194.509 152.792 191.978 154.354 189.856C155.917 187.733 158.245 186.032 160.793 186.089C164.333 186.17 167.793 189.532 171.018 187.997C177.541 184.894 177.045 171.034 177.349 164.837C177.703 157.632 185.154 152.018 178.927 145.198Z" fill="black"/>
</g>
<path opacity="0.1" d="M128.215 202.079C127.888 202.687 127.568 203.294 127.276 203.918C127.164 204.157 127.056 204.404 126.96 204.651C124.944 202.513 120.033 197.429 117.293 195.854C117.959 194.351 118.827 192.957 119.871 191.715C119.871 191.715 126.402 195.348 128.215 202.079Z" fill="black"/>
<path d="M128.396 201.747C126.883 194.542 119.871 190.641 119.871 190.641C118.827 191.883 117.958 193.277 117.293 194.781C120.183 196.445 125.509 202.027 127.276 203.918L128.396 201.747Z" fill="#3795BD"/>
</g>
<defs>
<linearGradient id="paint0_linear_602_307" x1="303.954" y1="86.6433" x2="303.954" y2="79.199" gradientUnits="userSpaceOnUse">
<stop stop-color="#808080" stop-opacity="0.25"/>
<stop offset="0.54" stop-color="#808080" stop-opacity="0.12"/>
<stop offset="1" stop-color="#808080" stop-opacity="0.1"/>
</linearGradient>
<clipPath id="clip0_602_307">
<rect width="418" height="317" fill="white" transform="translate(23 48)"/>
</clipPath>
</defs>
</svg>
