<svg width="393" height="365" viewBox="0 0 393 365" fill="none" xmlns="http://www.w3.org/2000/svg">
<path d="M248.117 360.493L239.726 356.406L233.97 307.75H157.315L151.075 356.207L143.568 360.549C143.209 360.757 142.921 361.099 142.751 361.519C142.58 361.94 142.538 362.415 142.63 362.867C142.722 363.319 142.944 363.722 143.259 364.01C143.574 364.299 143.964 364.455 144.365 364.455H247.425C247.837 364.455 248.236 364.291 248.554 363.989C248.873 363.688 249.092 363.268 249.173 362.801C249.254 362.335 249.194 361.85 249.001 361.429C248.809 361.008 248.496 360.677 248.117 360.493Z" fill="#E6E6E6"/>
<path d="M384.339 314.223H7.78721C5.81156 314.218 3.91833 313.307 2.52289 311.689C1.12746 310.071 0.343763 307.879 0.34375 305.594V244.175H391.782V305.594C391.782 307.879 390.998 310.071 389.603 311.689C388.207 313.307 386.314 314.218 384.339 314.223Z" fill="#CCCCCC"/>
<path d="M392.176 273.203H0V10.4023C0.00275482 7.64435 0.951161 5.00028 2.63716 3.05015C4.32315 1.10002 6.60905 0.00309304 8.99337 0H383.182C385.566 0.00308594 387.852 1.10001 389.538 3.05014C391.224 5.00027 392.173 7.64434 392.176 10.4023V273.203Z" fill="#276A86"/>
<path d="M368.752 254.129H23.423C21.5848 254.126 19.8225 253.281 18.5227 251.777C17.2229 250.274 16.4918 248.236 16.4897 246.109V27.0936C16.4918 24.9673 17.2229 22.9288 18.5227 21.4253C19.8225 19.9218 21.5848 19.0761 23.423 19.0736H368.752C370.591 19.0761 372.353 19.9218 373.653 21.4253C374.952 22.9288 375.684 24.9673 375.686 27.0936V246.109C375.684 248.236 374.952 250.274 373.653 251.777C372.353 253.281 370.591 254.126 368.752 254.129Z" fill="white"/>
<path d="M292.936 364.963H98.8902C98.6914 364.968 98.4968 364.897 98.3367 364.76C98.1766 364.624 98.0601 364.43 98.0051 364.209C97.9708 364.058 97.9668 363.901 97.9934 363.748C98.0201 363.596 98.0766 363.453 98.1586 363.329C98.2407 363.206 98.3461 363.106 98.4668 363.037C98.5874 362.969 98.7201 362.933 98.8546 362.933H292.864C293.073 362.924 293.279 362.998 293.448 363.142C293.617 363.286 293.738 363.492 293.793 363.727C293.821 363.875 293.821 364.029 293.791 364.177C293.761 364.325 293.703 364.464 293.621 364.583C293.538 364.701 293.434 364.797 293.315 364.863C293.197 364.929 293.067 364.963 292.936 364.963Z" fill="#CCCCCC"/>
<path d="M365.066 54.4818H281.688V128.162H365.066V54.4818Z" fill="#F2F2F2"/>
<path d="M360.923 58.1429H285.831V124.501H360.923V58.1429Z" fill="white"/>
<path d="M324.695 107.364C324.705 107.364 324.715 107.364 324.725 107.364C329.808 107.056 334.599 104.521 338.124 100.273C341.649 96.025 343.642 90.3839 343.699 84.4965C343.756 78.6092 341.873 72.9178 338.431 68.5797C334.99 64.2416 330.249 61.5825 325.173 61.1432C325.111 61.1375 325.047 61.1469 324.988 61.1707C324.928 61.1946 324.874 61.2324 324.828 61.2818C324.781 61.3304 324.745 61.3895 324.719 61.4554C324.694 61.5212 324.68 61.5925 324.68 61.6646L324.242 106.829C324.241 106.97 324.288 107.105 324.373 107.205C324.458 107.306 324.574 107.363 324.695 107.364Z" fill="#3F3D56"/>
<path d="M308.994 68.6116C309.15 68.6138 309.299 68.6873 309.408 68.8161L322.85 84.717C322.904 84.7806 322.947 84.856 322.975 84.9388C323.004 85.0215 323.018 85.1101 323.017 85.1993L322.808 106.811C322.807 106.904 322.79 106.995 322.757 107.08C322.725 107.165 322.677 107.241 322.618 107.303C322.558 107.366 322.488 107.415 322.412 107.445C322.336 107.476 322.255 107.488 322.174 107.481C318.437 107.158 314.852 105.635 311.821 103.084C308.791 100.533 306.435 97.0556 305.019 93.0416C303.604 89.0276 303.184 84.6365 303.807 80.3616C304.43 76.0868 306.071 72.0976 308.546 68.8423C308.6 68.7721 308.665 68.7155 308.739 68.6758C308.812 68.6362 308.891 68.6144 308.972 68.6118C308.98 68.6116 308.987 68.6115 308.994 68.6116Z" fill="#E6E6E6"/>
<path d="M322.662 60.9585C322.812 60.9606 322.956 61.0286 323.065 61.1487C323.123 61.2127 323.169 61.2899 323.2 61.3755C323.231 61.4611 323.246 61.5533 323.245 61.6461L323.056 81.1454C323.055 81.2797 323.019 81.4105 322.954 81.5213C322.888 81.632 322.795 81.7179 322.688 81.7679C322.58 81.8179 322.462 81.8298 322.348 81.8021C322.235 81.7745 322.131 81.7085 322.05 81.6125L310.32 67.737C310.264 67.671 310.22 67.5926 310.192 67.5065C310.163 67.4205 310.15 67.3286 310.153 67.2364C310.156 67.1442 310.175 67.0537 310.209 66.9703C310.243 66.887 310.292 66.8125 310.351 66.7515C313.763 63.2781 318.087 61.2374 322.626 60.9594C322.638 60.9587 322.65 60.9584 322.662 60.9585Z" fill="#3795BD"/>
<path d="M316.62 116.73C316.612 117.553 316.393 118.354 315.992 119.033C315.59 119.712 315.023 120.238 314.363 120.544C313.703 120.85 312.979 120.923 312.283 120.754C311.587 120.584 310.95 120.18 310.453 119.591C309.956 119.003 309.621 118.258 309.49 117.449C309.359 116.64 309.438 115.805 309.718 115.049C309.997 114.292 310.464 113.649 311.06 113.199C311.656 112.75 312.353 112.515 313.064 112.524C314.018 112.538 314.927 112.988 315.594 113.777C316.261 114.565 316.63 115.627 316.62 116.73Z" fill="#3795BD"/>
<path d="M326.893 116.863C326.885 117.686 326.667 118.487 326.265 119.166C325.863 119.845 325.296 120.371 324.636 120.677C323.976 120.983 323.253 121.056 322.557 120.887C321.861 120.717 321.224 120.313 320.727 119.725C320.229 119.136 319.894 118.391 319.763 117.582C319.632 116.774 319.712 115.938 319.991 115.182C320.271 114.425 320.738 113.782 321.333 113.332C321.929 112.883 322.627 112.648 323.338 112.657C324.291 112.671 325.201 113.121 325.867 113.91C326.534 114.698 326.903 115.76 326.893 116.863Z" fill="#3F3D56"/>
<path d="M337.167 116.996C337.159 117.819 336.94 118.62 336.538 119.299C336.137 119.978 335.57 120.504 334.91 120.81C334.25 121.117 333.526 121.19 332.83 121.02C332.134 120.85 331.497 120.446 331 119.858C330.503 119.27 330.167 118.524 330.037 117.716C329.906 116.907 329.985 116.072 330.264 115.315C330.544 114.559 331.011 113.915 331.607 113.466C332.203 113.016 332.9 112.781 333.611 112.791C334.565 112.804 335.474 113.255 336.141 114.043C336.807 114.832 337.176 115.894 337.167 116.996Z" fill="#E6E6E6"/>
<path d="M364.188 139.758H280.81V213.439H364.188V139.758Z" fill="#F2F2F2"/>
<path d="M360.045 143.419H284.953V209.778H360.045V143.419Z" fill="white"/>
<path d="M297.694 165.229C299.416 165.229 300.812 163.615 300.812 161.623C300.812 159.631 299.416 158.016 297.694 158.016C295.972 158.016 294.576 159.631 294.576 161.623C294.576 163.615 295.972 165.229 297.694 165.229Z" fill="#3F3D56"/>
<path d="M347.79 158.816C348.068 158.816 348.343 158.879 348.6 159.001C348.857 159.124 349.091 159.304 349.287 159.531C349.484 159.759 349.64 160.028 349.747 160.325C349.853 160.622 349.908 160.941 349.908 161.262C349.908 161.584 349.853 161.902 349.747 162.199C349.64 162.496 349.484 162.766 349.287 162.993C349.091 163.22 348.857 163.4 348.6 163.523C348.343 163.646 348.068 163.709 347.79 163.708H314.998C314.437 163.708 313.899 163.45 313.503 162.992C313.106 162.533 312.884 161.911 312.884 161.262C312.884 160.614 313.106 159.991 313.503 159.533C313.899 159.074 314.437 158.816 314.998 158.816H347.79ZM347.79 158.217H314.998C314.652 158.217 314.309 158.295 313.99 158.448C313.67 158.601 313.379 158.825 313.134 159.108C312.889 159.39 312.695 159.726 312.563 160.096C312.43 160.466 312.362 160.862 312.362 161.262C312.362 161.662 312.43 162.059 312.563 162.429C312.695 162.798 312.889 163.134 313.134 163.417C313.379 163.7 313.67 163.924 313.99 164.077C314.309 164.229 314.652 164.308 314.998 164.307H347.79C348.136 164.308 348.479 164.229 348.798 164.077C349.118 163.924 349.409 163.7 349.654 163.417C349.899 163.134 350.093 162.798 350.225 162.429C350.358 162.059 350.426 161.662 350.426 161.262C350.426 160.862 350.358 160.466 350.225 160.096C350.093 159.726 349.899 159.39 349.654 159.108C349.409 158.825 349.118 158.601 348.798 158.448C348.479 158.295 348.136 158.217 347.79 158.217Z" fill="#3F3D56"/>
<path d="M334.851 164.307H310.166C309.467 164.307 308.798 163.986 308.304 163.415C307.811 162.844 307.533 162.07 307.533 161.262C307.533 160.455 307.811 159.68 308.304 159.109C308.798 158.538 309.467 158.217 310.166 158.217H334.851C335.549 158.217 336.219 158.538 336.712 159.109C337.206 159.68 337.483 160.455 337.483 161.262C337.483 162.07 337.206 162.844 336.712 163.415C336.219 163.986 335.549 164.307 334.851 164.307Z" fill="#3795BD"/>
<path d="M297.694 180.205C299.416 180.205 300.812 178.59 300.812 176.599C300.812 174.607 299.416 172.992 297.694 172.992C295.972 172.992 294.576 174.607 294.576 176.599C294.576 178.59 295.972 180.205 297.694 180.205Z" fill="#3F3D56"/>
<path d="M347.79 173.792C348.068 173.792 348.343 173.854 348.6 173.977C348.857 174.1 349.091 174.28 349.287 174.507C349.484 174.734 349.64 175.004 349.747 175.301C349.853 175.598 349.908 175.916 349.908 176.238C349.908 176.56 349.853 176.878 349.747 177.175C349.64 177.472 349.484 177.742 349.287 177.969C349.091 178.196 348.857 178.376 348.6 178.499C348.343 178.621 348.068 178.684 347.79 178.684H314.998C314.437 178.684 313.899 178.426 313.503 177.967C313.106 177.509 312.884 176.887 312.884 176.238C312.884 175.589 313.106 174.967 313.503 174.509C313.899 174.05 314.437 173.792 314.998 173.792H347.79ZM347.79 173.193H314.998C314.3 173.193 313.63 173.514 313.137 174.085C312.643 174.656 312.366 175.43 312.366 176.238C312.366 177.046 312.643 177.82 313.137 178.391C313.63 178.962 314.3 179.283 314.998 179.283H347.79C348.488 179.283 349.158 178.962 349.651 178.391C350.145 177.82 350.422 177.046 350.422 176.238C350.422 175.43 350.145 174.656 349.651 174.085C349.158 173.514 348.488 173.193 347.79 173.193Z" fill="#3F3D56"/>
<path d="M344.173 179.283H310.166C309.467 179.283 308.798 178.962 308.304 178.391C307.811 177.82 307.533 177.046 307.533 176.238C307.533 175.43 307.811 174.656 308.304 174.085C308.798 173.514 309.467 173.193 310.166 173.193H344.173C344.871 173.193 345.54 173.514 346.034 174.085C346.528 174.656 346.805 175.43 346.805 176.238C346.805 177.046 346.528 177.82 346.034 178.391C345.54 178.962 344.871 179.283 344.173 179.283Z" fill="#3795BD"/>
<path d="M297.694 195.181C299.416 195.181 300.812 193.566 300.812 191.574C300.812 189.583 299.416 187.968 297.694 187.968C295.972 187.968 294.576 189.583 294.576 191.574C294.576 193.566 295.972 195.181 297.694 195.181Z" fill="#3F3D56"/>
<path d="M347.79 188.768C348.068 188.767 348.343 188.83 348.6 188.953C348.857 189.076 349.091 189.256 349.287 189.483C349.484 189.71 349.64 189.98 349.747 190.277C349.853 190.574 349.908 190.892 349.908 191.214C349.908 191.535 349.853 191.854 349.747 192.151C349.64 192.448 349.484 192.717 349.287 192.945C349.091 193.172 348.857 193.352 348.6 193.474C348.343 193.597 348.068 193.66 347.79 193.66H314.998C314.437 193.66 313.899 193.402 313.503 192.943C313.106 192.484 312.884 191.862 312.884 191.214C312.884 190.565 313.106 189.943 313.503 189.484C313.899 189.026 314.437 188.768 314.998 188.768H347.79ZM347.79 188.169H314.998C314.3 188.169 313.63 188.49 313.137 189.061C312.643 189.632 312.366 190.406 312.366 191.214C312.366 192.021 312.643 192.796 313.137 193.367C313.63 193.938 314.3 194.259 314.998 194.259H347.79C348.488 194.259 349.158 193.938 349.651 193.367C350.145 192.796 350.422 192.021 350.422 191.214C350.422 190.406 350.145 189.632 349.651 189.061C349.158 188.49 348.488 188.169 347.79 188.169Z" fill="#3F3D56"/>
<path d="M323.975 194.259H310.166C309.82 194.259 309.477 194.181 309.157 194.028C308.837 193.875 308.547 193.651 308.302 193.368C308.057 193.086 307.863 192.75 307.73 192.38C307.597 192.01 307.529 191.614 307.529 191.214C307.529 190.813 307.597 190.417 307.73 190.047C307.863 189.678 308.057 189.342 308.302 189.059C308.547 188.776 308.837 188.552 309.157 188.399C309.477 188.247 309.82 188.168 310.166 188.169H323.975C324.673 188.17 325.342 188.491 325.834 189.062C326.327 189.633 326.604 190.407 326.604 191.214C326.604 192.02 326.327 192.794 325.834 193.365C325.342 193.936 324.673 194.257 323.975 194.259Z" fill="#3795BD"/>
<path d="M262.379 67.5177H29.4351V205.609H262.379V67.5177Z" fill="#F2F2F2"/>
<path d="M254.614 74.3794H37.2002V198.747H254.614V74.3794Z" fill="white"/>
<path d="M227.65 179.774H69.1596C69.028 179.774 68.9019 179.713 68.8089 179.606C68.7158 179.498 68.6636 179.352 68.6636 179.2V91.3317C68.6636 91.1795 68.7158 91.0336 68.8089 90.926C68.9019 90.8184 69.028 90.7579 69.1596 90.7579C69.2911 90.7579 69.4173 90.8184 69.5103 90.926C69.6033 91.0336 69.6556 91.1795 69.6556 91.3317V178.626H227.65C227.782 178.626 227.908 178.687 228.001 178.794C228.094 178.902 228.146 179.048 228.146 179.2C228.146 179.352 228.094 179.498 228.001 179.606C227.908 179.713 227.782 179.774 227.65 179.774Z" fill="#3F3D56"/>
<path d="M103.022 173.463H88.6067C88.2163 173.462 87.8421 173.283 87.566 172.964C87.29 172.644 87.1347 172.211 87.1343 171.76V148.774C87.1347 148.323 87.29 147.89 87.566 147.571C87.8421 147.251 88.2163 147.072 88.6067 147.071H103.022C103.412 147.072 103.787 147.251 104.063 147.571C104.339 147.89 104.494 148.323 104.494 148.774V171.76C104.494 172.211 104.339 172.644 104.063 172.964C103.787 173.283 103.412 173.462 103.022 173.463Z" fill="#3795BD"/>
<path d="M129.31 173.463H114.895C114.504 173.462 114.13 173.283 113.854 172.964C113.578 172.644 113.423 172.211 113.422 171.76V126.973C113.423 126.521 113.578 126.088 113.854 125.769C114.13 125.45 114.504 125.27 114.895 125.27H129.31C129.7 125.27 130.075 125.45 130.351 125.769C130.627 126.088 130.782 126.521 130.782 126.973V171.76C130.782 172.211 130.627 172.644 130.351 172.964C130.075 173.283 129.7 173.462 129.31 173.463Z" fill="#3795BD"/>
<path d="M155.599 173.463H141.183C140.793 173.462 140.419 173.283 140.143 172.963C139.867 172.644 139.711 172.211 139.711 171.76V148.774C139.711 148.323 139.867 147.89 140.143 147.571C140.419 147.251 140.793 147.072 141.183 147.071H155.599C155.989 147.072 156.363 147.251 156.639 147.571C156.915 147.89 157.071 148.323 157.071 148.774V171.76C157.071 172.211 156.915 172.644 156.639 172.964C156.363 173.283 155.989 173.462 155.599 173.463Z" fill="#3795BD"/>
<path d="M181.887 173.463H167.471C167.09 173.472 166.721 173.307 166.445 173.002C166.169 172.697 166.009 172.278 165.999 171.837V118.29C166.009 117.848 166.169 117.429 166.445 117.125C166.721 116.82 167.09 116.654 167.471 116.664H181.887C182.268 116.654 182.637 116.82 182.913 117.125C183.189 117.429 183.35 117.848 183.359 118.29V171.837C183.35 172.278 183.189 172.697 182.913 173.002C182.637 173.307 182.268 173.472 181.887 173.463Z" fill="#3795BD"/>
<path d="M208.175 173.463H193.76C193.369 173.462 192.995 173.283 192.719 172.964C192.443 172.644 192.288 172.211 192.287 171.76V102.876C192.288 102.424 192.443 101.992 192.719 101.672C192.995 101.353 193.369 101.173 193.76 101.173H208.175C208.565 101.173 208.939 101.353 209.215 101.672C209.492 101.992 209.647 102.424 209.647 102.876V171.76C209.647 172.211 209.492 172.644 209.215 172.964C208.939 173.283 208.565 173.462 208.175 173.463Z" fill="#3795BD"/>
<path d="M95.8144 140.187C97.458 140.187 98.7904 138.645 98.7904 136.744C98.7904 134.843 97.458 133.302 95.8144 133.302C94.1708 133.302 92.8384 134.843 92.8384 136.744C92.8384 138.645 94.1708 140.187 95.8144 140.187Z" fill="#3F3D56"/>
<path d="M122.102 117.811C123.746 117.811 125.079 116.27 125.079 114.369C125.079 112.468 123.746 110.926 122.102 110.926C120.459 110.926 119.126 112.468 119.126 114.369C119.126 116.27 120.459 117.811 122.102 117.811Z" fill="#3F3D56"/>
<path d="M148.391 140.187C150.035 140.187 151.367 138.645 151.367 136.744C151.367 134.843 150.035 133.302 148.391 133.302C146.747 133.302 145.415 134.843 145.415 136.744C145.415 138.645 146.747 140.187 148.391 140.187Z" fill="#3F3D56"/>
<path d="M174.679 106.91C176.323 106.91 177.655 105.369 177.655 103.468C177.655 101.567 176.323 100.026 174.679 100.026C173.036 100.026 171.703 101.567 171.703 103.468C171.703 105.369 173.036 106.91 174.679 106.91Z" fill="#3F3D56"/>
<path d="M200.967 94.2882C202.611 94.2882 203.943 92.747 203.943 90.8458C203.943 88.9446 202.611 87.4034 200.967 87.4034C199.324 87.4034 197.991 88.9446 197.991 90.8458C197.991 92.747 199.324 94.2882 200.967 94.2882Z" fill="#3F3D56"/>
<path d="M148.453 137.515L122.103 114.685L96.1117 137.203L95.5171 136.285L122.103 113.251L148.328 135.973L174.389 102.985L174.493 102.936L200.782 90.6842L201.153 91.7484L174.969 103.951L148.453 137.515Z" fill="#3F3D56"/>
</svg>
