<svg width="256" height="256" viewBox="0 0 256 256" fill="none" xmlns="http://www.w3.org/2000/svg">
<path fill-rule="evenodd" clip-rule="evenodd" d="M128 10.6666C121.584 10.6666 115.157 12.5953 109.649 16.4512L24.3157 76.1845C15.7613 82.1727 10.6665 91.9579 10.6665 102.4V213.333C10.6665 231.006 24.9934 245.333 42.6665 245.333H85.3332C91.2242 245.333 95.9998 240.558 95.9998 234.667V192C95.9998 180.218 105.551 170.667 117.333 170.667H138.667C150.449 170.667 160 180.218 160 192V234.667C160 240.558 164.775 245.333 170.667 245.333H213.333C231.007 245.333 245.333 231.006 245.333 213.333V102.4C245.333 91.9579 240.239 82.1727 231.684 76.1845L146.351 16.4512C140.843 12.5953 134.416 10.6666 128 10.6666ZM133.333 64C136.278 64 138.667 66.3878 138.667 69.3333V85.3333H154.667C157.612 85.3333 160 87.7211 160 90.6666V101.333C160 104.279 157.612 106.667 154.667 106.667H138.667V122.667C138.667 125.612 136.278 128 133.333 128H122.667C119.721 128 117.333 125.612 117.333 122.667V106.667H101.333C98.3877 106.667 95.9998 104.279 95.9998 101.333V90.6666C95.9998 87.7211 98.3877 85.3333 101.333 85.3333H117.333V69.3333C117.333 66.3878 119.721 64 122.667 64H133.333Z" fill="#3795BD"/>
</svg>
