<svg width="256" height="256" viewBox="0 0 256 256" fill="none" xmlns="http://www.w3.org/2000/svg">
<path d="M193.298 146.243C195.489 151.301 196.764 157.491 197.046 164.649C204.442 166.344 209.976 172.959 209.976 180.859C209.976 190.034 202.511 197.499 193.336 197.499C184.161 197.499 176.696 190.034 176.696 180.859C176.696 173.048 182.111 166.502 189.376 164.713C189.056 157.604 187.356 146.788 180.398 141.448C176.847 140.529 173.197 139.863 169.452 139.52C169.175 151.974 128.01 182.71 128.01 182.71C128.01 182.71 86.8327 151.98 86.5536 139.525C82.3936 139.904 78.3463 140.664 74.4371 141.76C69.3607 145.779 66.7341 153.267 66.5984 164.152C68.0909 165.01 69.2967 166.349 70.0365 167.969C75.5047 170.552 80.3354 175.985 84.0346 183.718C84.6541 185.019 84.736 186.488 84.2803 187.83C86.4973 193.536 87.7645 199.772 87.7645 205.01C87.7645 212.349 87.7645 219.29 79.7645 221.071C78.8992 221.791 77.8138 222.188 76.6746 222.188H71.3293C68.649 222.188 66.4679 220.001 66.4679 217.329L66.473 217.139C66.5754 214.554 68.7386 212.467 71.3293 212.467H76.6746C77.2224 212.467 77.7575 212.559 78.2746 212.739C78.5971 212.649 78.6995 212.575 78.7021 212.572C79.296 211.517 79.296 207.124 79.296 205.015C79.296 200.76 78.2311 195.622 76.3648 190.848C75.3971 190.298 74.6138 189.466 74.1325 188.46C70.8915 181.673 66.4832 177.29 62.9043 177.29C59.2435 177.29 54.6151 182.031 51.3869 189.077C50.8595 190.226 49.9354 191.16 48.7987 191.721C47.1117 196.288 46.185 200.991 46.185 205.012C46.185 206.784 46.185 211.484 46.8608 212.59C46.8685 212.59 47.0195 212.682 47.4445 212.787C47.9975 212.575 48.5914 212.465 49.1853 212.465H54.5408C57.0368 212.465 59.1232 214.364 59.3741 216.835L59.3997 217.134C59.3997 220.004 57.2186 222.19 54.5408 222.19H49.1853C48.1229 222.19 47.0963 221.834 46.2515 221.189C43.1923 220.613 41.0368 219.264 39.6723 217.068C38.0186 214.413 37.7165 210.926 37.7165 205.012C37.7165 199.826 38.9146 193.851 41.0906 188.145C40.7706 186.924 40.8781 185.649 41.4106 184.499C43.6762 179.543 46.5587 175.299 49.7434 172.229C51.4944 170.542 53.376 169.185 55.3447 168.195C56.0819 166.469 57.3619 165.053 58.9261 164.16C59.008 157.338 60.0576 151.447 61.9981 146.591C39.7824 157.86 24.5581 180.908 24.5581 207.524C24.5581 241.536 49.408 243.2 81.9379 243.2C85.4887 243.2 89.1239 243.18 92.8384 243.18H163.154C166.863 243.18 170.499 243.2 174.049 243.2C206.584 243.2 231.444 241.536 231.444 207.524C231.442 180.626 215.893 157.376 193.298 146.243Z" fill="#3795BD"/>
<path d="M128.021 148.46C159.468 148.46 184.958 101.174 184.958 69.7293C184.958 38.29 159.468 12.8 128.021 12.8C96.5788 12.8 71.0889 38.29 71.0889 69.7293C71.0889 101.174 96.5788 148.46 128.021 148.46Z" fill="#3795BD"/>
<path d="M193.334 188.539C197.575 188.539 201.014 185.101 201.014 180.859C201.014 176.617 197.575 173.179 193.334 173.179C189.092 173.179 185.654 176.617 185.654 180.859C185.654 185.101 189.092 188.539 193.334 188.539Z" fill="#3795BD"/>
</svg>
