<svg width="350" height="256" viewBox="0 0 350 256" fill="none" xmlns="http://www.w3.org/2000/svg">
<g clip-path="url(#clip0_600_7)">
<path opacity="0.1" d="M116.361 255.856C133.405 255.856 147.223 253.565 147.223 250.738C147.223 247.911 133.405 245.619 116.361 245.619C99.3158 245.619 85.4983 247.911 85.4983 250.738C85.4983 253.565 99.3158 255.856 116.361 255.856Z" fill="#3795BD"/>
<path opacity="0.1" d="M284.123 256C305.392 256 322.634 253.708 322.634 250.882C322.634 248.055 305.392 245.763 284.123 245.763C262.854 245.763 245.612 248.055 245.612 250.882C245.612 253.708 262.854 256 284.123 256Z" fill="#3795BD"/>
<path opacity="0.1" d="M4.38353 110.61H36.5285V155.852H6.73684C6.65766 156.317 6.58164 156.784 6.49929 157.252H36.5285V193.738C36.4747 193.722 36.4272 193.702 36.3765 193.683C35.5277 193.336 34.6851 192.97 33.8426 192.577L33.3042 192.325C32.4596 191.913 31.615 191.477 30.7704 191.017C30.4758 190.857 30.1812 190.69 29.8898 190.52C25.2009 187.808 20.9413 184.371 17.2586 180.329C17.1509 180.221 17.0496 180.107 16.9419 180.002C16.4288 179.426 15.9252 178.844 15.4374 178.249L14.899 177.595C14.3225 176.866 13.7651 176.117 13.2235 175.358C13.1443 175.247 13.0683 175.135 12.9859 175.031C10.7832 171.877 8.95427 168.462 7.53817 164.859C7.49383 164.751 7.45582 164.634 7.41464 164.532C6.97967 163.377 6.59431 162.21 6.25858 161.033C6.11288 160.539 5.97352 160.052 5.85316 159.538C5.80882 159.388 5.77081 159.24 5.73597 159.093C3.93694 151.842 3.72473 144.31 3.72473 136.831C3.72473 135.957 3.72473 135.081 3.72473 134.214C3.72473 131.189 3.75957 128.144 3.81025 125.102C3.81025 124.314 3.84192 123.529 3.85776 122.738C3.9021 120.73 3.96545 118.721 4.0478 116.713C4.0668 116.154 4.09214 115.598 4.12064 115.042C4.12064 114.722 4.13648 114.401 4.16815 114.081C4.24417 112.916 4.30752 111.762 4.38353 110.61Z" fill="#3795BD"/>
<path opacity="0.1" d="M36.5285 60.2373H18.8961C21.7624 55.6048 24.8941 51.1532 28.2745 46.9065C30.8939 43.5836 33.6589 40.3457 36.5285 37.2256V60.2373Z" fill="#3795BD"/>
<path opacity="0.1" d="M36.5285 61.637V109.211H4.48486C4.48486 109.073 4.50703 108.933 4.51654 108.795C4.54504 108.419 4.57355 108.043 4.60522 107.67C4.64006 107.232 4.67807 106.79 4.71924 106.362C4.76042 105.933 4.80476 105.41 4.85227 104.936C4.89978 104.462 4.94412 103.981 4.99797 103.507C5.05181 103.032 5.09932 102.558 5.15633 102.087C5.21334 101.616 5.26402 101.139 5.3242 100.668C5.37171 100.275 5.42238 99.8862 5.47306 99.4937C5.54591 98.941 5.62193 98.385 5.70428 97.8355C5.70428 97.7538 5.72645 97.6687 5.73912 97.5903C6.31721 93.568 7.1049 89.5808 8.09876 85.6462C9.13909 81.5187 10.4676 77.4744 12.0737 73.5451C13.7808 69.4346 15.7795 65.4598 18.0536 61.6533L36.5285 61.637Z" fill="#3795BD"/>
<path opacity="0.1" d="M44.2029 110.607V155.852H112.861V110.607H44.2029ZM44.2029 157.249V196.103C44.5956 196.188 44.9852 196.27 45.3716 196.338C45.8974 196.443 46.42 196.538 46.9553 196.62C47.0566 196.636 47.1611 196.652 47.272 196.662C47.481 196.698 47.6964 196.728 47.9055 196.757C48.4344 196.832 48.9602 196.894 49.4891 196.943C49.7393 196.97 49.9927 196.993 50.2461 197.012L50.8574 197.061C51.19 197.087 51.5194 197.107 51.8456 197.117C52.0483 197.117 52.251 197.136 52.46 197.143C52.6184 197.143 52.7768 197.143 52.9415 197.143C53.1062 197.143 53.3406 197.143 53.5401 197.143C53.8125 197.143 54.0849 197.143 54.3541 197.143H54.7183C54.9907 197.143 55.2631 197.143 55.5323 197.117H55.5513C55.7382 197.117 55.9282 197.117 56.1183 197.091C56.171 197.094 56.2239 197.094 56.2767 197.091C56.435 197.091 56.5934 197.091 56.7454 197.068H56.8563L57.9173 196.983C58.2657 196.95 58.6173 196.908 58.972 196.868L59.6942 196.78C62.6321 196.355 65.5374 195.717 68.3884 194.87C74.7927 193.025 81.0577 190.445 87.4588 188.555C95.735 186.118 104.879 184.921 112.876 187.9V157.249H44.2029ZM112.861 60.2372V0.00327343C105.344 -0.0808205 97.8473 0.827024 90.5532 2.70476C73.1679 7.21487 57.5689 16.9971 44.2029 29.4907V60.234H47.6489V61.6305H44.2029V109.211H112.861V61.6338H61.7973V60.2372H112.861ZM201.048 39.8911C196.747 39.7341 192.471 38.3277 188.604 36.1561C181.208 32.0025 175.301 25.5889 168.7 20.1761C154.986 8.90247 137.977 2.0997 120.529 0.412094V60.2372H218.541L218.785 59.9723L201.048 39.8911ZM209.977 38.2558L219.444 48.9832V35.4431C216.273 35.8486 213.495 36.8135 209.989 38.2427L209.977 38.2558ZM219.444 205.751V157.249H199.271C199.217 157.043 199.163 156.833 199.1 156.624C199.16 156.833 199.211 157.043 199.268 157.249H120.541V192.325C121.289 192.898 122.027 193.5 122.758 194.111C123.547 194.765 124.326 195.455 125.109 196.132L125.897 196.806C126.274 197.133 126.654 197.46 127.037 197.768C127.798 198.404 128.565 199.032 129.34 199.652C129.723 199.979 130.116 200.273 130.506 200.58C136.69 205.463 143.215 209.87 150.026 213.764C151.552 214.636 153.093 215.488 154.647 216.318C155.683 216.864 156.725 217.407 157.77 217.934C159.341 218.725 160.924 219.489 162.521 220.223C177.238 227.045 192.801 231.726 208.763 234.133C212.309 234.674 215.868 235.099 219.44 235.409V205.748H219.757L219.444 205.751ZM120.541 61.6338V109.211H219.456V61.6338H120.541ZM120.541 110.607V155.852H219.456V110.607H120.541ZM227.134 35.3842V50.4877L239.217 36.7971C235.214 36.1299 231.186 35.6535 227.134 35.3679V35.3842ZM227.134 110.624V155.852H323.341V110.607L227.134 110.624ZM322.989 209.342L323.328 157.249H227.134V235.929C233.331 236.197 239.537 236.121 245.726 235.7H245.834C248.79 235.508 251.732 235.229 254.661 234.862H254.727C270.352 232.985 285.63 228.775 300.083 222.366M341.892 118.058C341.531 117.178 341.154 116.304 340.77 115.441C340.055 113.806 339.298 112.216 338.518 110.627H331.012V155.852H349.99C349.981 143.045 346.842 129.962 341.901 118.041L341.892 118.058ZM331.012 157.265V202.072C336.358 196.78 340.875 190.726 344.128 183.806C348.039 175.472 349.829 166.449 349.975 157.258L331.012 157.265ZM331.012 97.4399V109.214H337.815C335.757 105.161 333.489 101.225 331.021 97.4235L331.012 97.4399ZM265.765 44.2605C265.265 44.0643 264.765 43.8648 264.261 43.6718C258.95 41.6465 253.522 39.9622 248.01 38.6286L229.519 59.5831L229.164 59.9723L229.402 60.2405H295.212C286.046 53.7257 276.165 48.3561 265.775 44.2442L265.765 44.2605ZM297.141 61.6501H228.483L227.134 62.9256V109.211H238.961H238.98H323.353V86.7909C315.721 77.2591 306.912 68.8014 297.15 61.6338L297.141 61.6501Z" fill="#3795BD"/>
<path opacity="0.1" d="M36.5285 85.6332V109.211H4.48486C4.48486 109.073 4.50703 108.933 4.51654 108.795C4.54504 108.419 4.57355 108.043 4.60522 107.67C4.64006 107.232 4.67807 106.79 4.71924 106.362C4.76042 105.934 4.80476 105.41 4.85227 104.936C4.89978 104.462 4.94412 103.981 4.99797 103.507C5.05181 103.033 5.09932 102.558 5.15633 102.087C5.21334 101.616 5.26402 101.139 5.3242 100.668C5.37171 100.275 5.42238 99.8863 5.47306 99.4938C5.54591 98.9411 5.62193 98.3851 5.70428 97.8356C5.70428 97.7539 5.72645 97.6688 5.73912 97.5904C6.31721 93.5681 7.1049 89.5809 8.09876 85.6463L36.5285 85.6332Z" fill="#3795BD"/>
<path opacity="0.1" d="M4.38353 110.61H36.5285V155.852H6.73684C6.65766 156.317 6.58164 156.784 6.49929 157.252H36.5285V193.738C36.4747 193.722 36.4272 193.702 36.3765 193.683C35.5277 193.336 34.6851 192.97 33.8426 192.577L33.3042 192.325C32.4596 191.913 31.615 191.477 30.7704 191.017C30.4758 190.857 30.1812 190.69 29.8898 190.52C25.2009 187.808 20.9413 184.371 17.2586 180.329C17.1509 180.221 17.0496 180.107 16.9419 180.002C16.4288 179.426 15.9252 178.844 15.4374 178.249L14.899 177.595C14.3225 176.866 13.7651 176.117 13.2235 175.358C13.1443 175.247 13.0683 175.135 12.9859 175.031C10.7832 171.877 8.95427 168.462 7.53817 164.859C7.49383 164.751 7.45582 164.634 7.41464 164.532C6.97967 163.377 6.59431 162.21 6.25858 161.033C6.11288 160.539 5.97352 160.052 5.85316 159.538C5.80882 159.388 5.77081 159.24 5.73597 159.093C3.93694 151.842 3.72473 144.31 3.72473 136.831C3.72473 135.957 3.72473 135.081 3.72473 134.214C3.72473 131.189 3.75957 128.144 3.81025 125.102C3.81025 124.314 3.84192 123.529 3.85776 122.738C3.9021 120.73 3.96545 118.721 4.0478 116.713C4.0668 116.154 4.09214 115.598 4.12064 115.042C4.12064 114.722 4.13648 114.401 4.16815 114.081C4.24417 112.916 4.30752 111.762 4.38353 110.61Z" fill="#3795BD"/>
<path opacity="0.1" d="M68.3726 68.4463V109.211H44.2029V68.4463H47.6489V54.6445H61.7941V68.4463H68.3726Z" fill="#3795BD"/>
<path opacity="0.1" d="M68.3726 110.607H44.2061V155.849H68.3726V110.607Z" fill="#3795BD"/>
<path opacity="0.1" d="M44.2029 157.252H68.3726V194.863C65.5215 195.709 62.6162 196.347 59.6783 196.77L58.9562 196.862C58.6015 196.904 58.2499 196.94 57.9015 196.976C57.5531 197.012 57.192 197.038 56.8404 197.061H56.7296C56.5775 197.061 56.4128 197.081 56.264 197.084H56.1024C55.9124 197.084 55.7224 197.104 55.5323 197.11C55.2631 197.127 54.9939 197.13 54.7183 197.133C54.6011 197.133 54.4903 197.133 54.3731 197.133C54.1007 197.133 53.8315 197.133 53.5591 197.133H52.9605C52.7989 197.133 52.6438 197.133 52.4759 197.133L51.8646 197.11C51.5479 197.11 51.2058 197.074 50.8764 197.051L50.2683 197.006L49.5113 196.934C48.9792 196.885 48.4502 196.822 47.9276 196.747L47.2942 196.656L46.9774 196.61C46.4485 196.525 45.9259 196.433 45.3938 196.329C45.0042 196.26 44.6178 196.175 44.225 196.093L44.2029 157.252Z" fill="#3795BD"/>
<path opacity="0.1" d="M219.456 63.6321H199.528V109.207H219.456V63.6321Z" fill="#3795BD"/>
<path opacity="0.1" d="M219.459 110.607V155.852H120.541V136.337H173.229V147.849H199.528V110.607H219.459Z" fill="#3795BD"/>
<path opacity="0.1" d="M219.773 205.761H219.456V235.441C215.888 235.129 212.33 234.705 208.783 234.169C192.812 231.755 177.243 227.063 162.521 220.23C158.27 218.254 154.106 216.098 150.029 213.761C143.218 209.864 136.693 205.458 130.506 200.577C128.952 199.347 127.418 198.089 125.904 196.803C124.855 195.91 123.813 194.994 122.758 194.105C122.027 193.493 121.289 192.891 120.541 192.316V157.252H199.265C199.211 157.043 199.157 156.833 199.1 156.627C199.16 156.833 199.217 157.043 199.271 157.252H219.456V205.741C219.564 205.744 219.669 205.754 219.773 205.761Z" fill="#3795BD"/>
<path opacity="0.1" d="M271.432 60.2372H258.446V56.0705H264.267V43.6587C264.772 43.8484 265.275 44.0435 265.775 44.2441V56.0705H271.432V60.2372Z" fill="#3795BD"/>
<path opacity="0.1" d="M302.718 109.211H238.967C238.967 109.211 238.967 109.211 238.989 109.227L238.961 109.211H227.134V63.6353H230.485V97.3221H245.799V77.3716H258.449V61.637H271.435V77.3847H284.085V97.3352H302.718V109.211Z" fill="#3795BD"/>
<path opacity="0.1" d="M227.134 110.607V155.852H302.718V110.607H227.134ZM323.236 209.11L323.341 173.297H302.718V157.272H227.134V235.929C233.331 236.197 239.537 236.121 245.726 235.7H245.834C248.79 235.508 251.732 235.229 254.661 234.862H254.727C270.352 232.985 285.63 228.775 300.083 222.366" fill="#3795BD"/>
<path opacity="0.1" d="M332.355 157.252H349.987C349.832 166.439 348.046 175.462 344.137 183.796C340.884 190.72 336.365 196.773 331.025 202.062V173.281H332.355V157.252Z" fill="#3795BD"/>
<path opacity="0.1" d="M349.997 155.852H332.355V118.041H341.901C346.842 129.962 349.981 143.045 349.997 155.852Z" fill="#3795BD"/>
<path opacity="0.1" d="M219.459 76.3022H208.782V90.5913H219.459V76.3022Z" fill="#3795BD"/>
<path opacity="0.1" d="M219.459 105.92H208.782V109.211H219.459V105.92Z" fill="#3795BD"/>
<path opacity="0.1" d="M219.459 110.607H208.782V120.206H219.459V110.607Z" fill="#3795BD"/>
<path opacity="0.1" d="M219.459 135.539H208.782V149.828H219.459V135.539Z" fill="#3795BD"/>
<path opacity="0.1" d="M219.459 165.157H208.782V179.446H219.459V165.157Z" fill="#3795BD"/>
<path opacity="0.1" d="M219.456 205.741C219.564 205.741 219.669 205.741 219.773 205.761H219.456V209.08H208.782V194.775H219.456V205.741Z" fill="#3795BD"/>
<path opacity="0.1" d="M219.456 224.387V235.425C215.888 235.113 212.33 234.689 208.782 234.153V224.387H219.456Z" fill="#3795BD"/>
<path opacity="0.1" d="M166.299 154.802H120.541V155.852H166.299V154.802Z" fill="#3795BD"/>
<path opacity="0.1" d="M166.299 157.249H120.541V161.271H166.299V157.249Z" fill="#3795BD"/>
<path opacity="0.1" d="M166.299 174.458H120.541V180.928H166.299V174.458Z" fill="#3795BD"/>
<path opacity="0.1" d="M166.296 194.114V200.584H130.506C128.952 199.358 127.416 198.1 125.9 196.809C124.852 195.916 123.813 195.001 122.755 194.114H166.296Z" fill="#3795BD"/>
<path opacity="0.1" d="M166.296 213.767V220.23H162.518C158.271 218.252 154.108 216.095 150.029 213.757L166.296 213.767Z" fill="#3795BD"/>
<path opacity="0.1" d="M254.737 114.993H245.729V124.294H254.737V114.993Z" fill="#3795BD"/>
<path opacity="0.1" d="M59.7006 71.6548H50.6927V80.9563H59.7006V71.6548Z" fill="#3795BD"/>
<path opacity="0.1" d="M59.7006 93.2601H50.6927V102.562H59.7006V93.2601Z" fill="#3795BD"/>
<path opacity="0.1" d="M59.7006 114.865H50.6927V124.167H59.7006V114.865Z" fill="#3795BD"/>
<path opacity="0.1" d="M59.7006 136.468H50.6927V145.769H59.7006V136.468Z" fill="#3795BD"/>
<path opacity="0.1" d="M59.7006 158.073H50.6927V167.374H59.7006V158.073Z" fill="#3795BD"/>
<path opacity="0.1" d="M59.7006 179.678H50.6927V188.98H59.7006V179.678Z" fill="#3795BD"/>
<path opacity="0.1" d="M289.124 114.993H280.117V124.294H289.124V114.993Z" fill="#3795BD"/>
<path opacity="0.1" d="M254.737 137.936H245.729V147.238H254.737V137.936Z" fill="#3795BD"/>
<path opacity="0.1" d="M289.124 137.936H280.117V147.238H289.124V137.936Z" fill="#3795BD"/>
<path opacity="0.1" d="M254.737 160.876H245.729V170.177H254.737V160.876Z" fill="#3795BD"/>
<path opacity="0.1" d="M289.124 160.876H280.117V170.177H289.124V160.876Z" fill="#3795BD"/>
<path opacity="0.1" d="M254.737 183.819H245.729V193.12H254.737V183.819Z" fill="#3795BD"/>
<path opacity="0.1" d="M289.124 183.819H280.117V193.12H289.124V183.819Z" fill="#3795BD"/>
<path opacity="0.1" d="M254.737 206.762H245.729V216.063H254.737V206.762Z" fill="#3795BD"/>
<path opacity="0.1" d="M289.124 206.762H280.117V216.063H289.124V206.762Z" fill="#3795BD"/>
<path opacity="0.1" d="M245.729 235.7V229.701H254.734V234.846L245.729 235.7Z" fill="#3795BD"/>
<path opacity="0.1" d="M5.70117 97.5837V102.905H36.5286V97.5837H5.70117ZM8.77346 102.571H6.25862V97.9108H8.79246L8.77346 102.571ZM11.8426 102.571H9.30873V97.9108H11.8426V102.571ZM14.9054 102.571H12.3715V97.9108H14.9054V102.571ZM17.9745 102.571H15.4438V97.9108H17.9777L17.9745 102.571ZM21.0404 102.571H18.5066V97.9108H21.0404V102.571ZM24.1096 102.571H21.5757V97.9108H24.1096V102.571ZM27.1787 102.571H24.6448V97.9108H27.1787V102.571ZM30.2446 102.571H27.7108V97.9108H30.2446V102.571ZM33.3106 102.571H30.7767V97.9108H33.3106V102.571ZM36.3765 102.571H33.8427V97.9108H36.3765V102.571Z" fill="#3795BD"/>
<path opacity="0.1" d="M5.70117 113.067V118.388H36.5286V113.067H5.70117ZM8.77346 118.051H6.25862V113.404H8.79246L8.77346 118.051ZM11.8426 118.051H9.30873V113.404H11.8426V118.051ZM14.9054 118.051H12.3715V113.404H14.9054V118.051ZM17.9745 118.051H15.4438V113.404H17.9777L17.9745 118.051ZM21.0404 118.051H18.5066V113.404H21.0404V118.051ZM24.1096 118.051H21.5757V113.404H24.1096V118.051ZM27.1787 118.051H24.6448V113.404H27.1787V118.051ZM30.2446 118.051H27.7108V113.404H30.2446V118.051ZM33.3106 118.051H30.7767V113.404H33.3106V118.051ZM36.3765 118.051H33.8427V113.404H36.3765V118.051Z" fill="#3795BD"/>
<path opacity="0.1" d="M5.70117 128.556V133.887H36.5286V128.556H5.70117ZM8.77346 133.54H6.25862V128.89H8.79246L8.77346 133.54ZM11.8426 133.54H9.30873V128.89H11.8426V133.54ZM14.9054 133.54H12.3715V128.89H14.9054V133.54ZM17.9745 133.54H15.4438V128.89H17.9777L17.9745 133.54ZM21.0404 133.54H18.5066V128.89H21.0404V133.54ZM24.1096 133.54H21.5757V128.89H24.1096V133.54ZM27.1787 133.54H24.6448V128.89H27.1787V133.54ZM30.2446 133.54H27.7108V128.89H30.2446V133.54ZM33.3106 133.54H30.7767V128.89H33.3106V133.54ZM36.3765 133.54H33.8427V128.89H36.3765V133.54Z" fill="#3795BD"/>
<path opacity="0.1" d="M5.70117 144.045V149.36H36.5286V144.045H5.70117ZM8.77346 149.03H6.25862V144.376H8.79246L8.77346 149.03ZM11.8426 149.03H9.30873V144.376H11.8426V149.03ZM14.9054 149.03H12.3715V144.376H14.9054V149.03ZM17.9745 149.03H15.4438V144.376H17.9777L17.9745 149.03ZM21.0404 149.03H18.5066V144.376H21.0404V149.03ZM24.1096 149.03H21.5757V144.376H24.1096V149.03ZM27.1787 149.03H24.6448V144.376H27.1787V149.03ZM30.2446 149.03H27.7108V144.376H30.2446V149.03ZM33.3106 149.03H30.7767V144.376H33.3106V149.03ZM36.3765 149.03H33.8427V144.376H36.3765V149.03Z" fill="#3795BD"/>
<path opacity="0.1" d="M5.83423 159.531C5.95775 160.032 6.09711 160.532 6.24281 161.026V159.865H8.77665V164.516H7.42105C7.46222 164.624 7.5034 164.742 7.54457 164.843H36.5286V159.531H5.83423ZM11.8521 164.516H9.31827V159.865H11.8521V164.516ZM14.9149 164.516H12.381V159.865H14.9149V164.516ZM17.984 164.516H15.4438V159.865H17.9777L17.984 164.516ZM21.05 164.516H18.5161V159.865H21.05V164.516ZM24.1191 164.516H21.5852V159.865H24.1191V164.516ZM27.1882 164.516H24.6544V159.865H27.1882V164.516ZM30.2542 164.516H27.7203V159.865H30.2542V164.516ZM33.3201 164.516H30.7863V159.865H33.3201V164.516ZM36.3861 164.516H33.8522V159.865H36.3861V164.516Z" fill="#3795BD"/>
<path opacity="0.1" d="M12.9923 175.021C13.0715 175.126 13.1475 175.243 13.2299 175.348H14.9054V177.582C15.0859 177.804 15.2633 178.027 15.447 178.236V175.335H17.9808V180.002H16.9546C17.056 180.11 17.1541 180.224 17.2713 180.329H36.5381V175.021H12.9923ZM21.0404 180.002H18.5066V175.354H21.0404V180.002ZM24.1096 180.002H21.5757V175.354H24.1096V180.002ZM27.1787 180.002H24.6448V175.354H27.1787V180.002ZM30.2446 180.002H27.7108V175.354H30.2446V180.002ZM33.3106 180.002H30.7767V175.354H33.3106V180.002ZM36.3765 180.002H33.8427V175.354H36.3765V180.002Z" fill="#3795BD"/>
<path opacity="0.1" d="M29.9026 190.507C30.1908 190.677 30.4854 190.834 30.7831 191.004V190.841H33.3169V192.312L33.8554 192.571V190.841H36.3892V193.67C36.4378 193.695 36.4888 193.714 36.5413 193.728V190.507H29.9026Z" fill="#3795BD"/>
<path opacity="0.1" d="M199.1 156.624C199.16 156.833 199.211 157.043 199.268 157.249C199.217 157.043 199.163 156.833 199.1 156.624ZM47.6616 60.2274V61.6239H61.81V60.2274H47.6616ZM199.1 156.624C199.16 156.833 199.211 157.043 199.268 157.249C199.217 157.043 199.163 156.833 199.1 156.624ZM199.1 156.624C199.16 156.833 199.211 157.043 199.268 157.249C199.217 157.043 199.163 156.833 199.1 156.624Z" fill="#3795BD"/>
<path d="M146.203 124.173C146.203 124.173 144.955 123.994 144.955 122.116C144.955 120.239 144.062 116.733 144.062 116.733C144.062 116.717 143.289 110.627 142.222 109.659C141.154 108.691 139.783 103.006 139.783 103.006C139.783 103.006 139.548 99.9222 139.07 99.2583C138.592 98.5944 137.946 96.9689 136.992 94.6501C136.039 92.3313 132.064 90.7254 132.064 90.7254C132.064 90.7254 124.877 86.4213 122.841 85.0183C122.656 84.903 122.483 84.7682 122.325 84.616C121.97 84.1352 120.424 84.1254 120.424 84.1254C120.263 83.0723 120.107 81.8622 120.057 80.7665C120.057 80.6488 120.057 80.5311 120.041 80.4133C122.312 79.0272 124.022 76.8417 124.858 74.2581C124.896 74.1338 124.928 74.003 124.963 73.8787C125.099 73.8325 125.224 73.7574 125.331 73.6582C125.437 73.5591 125.522 73.4382 125.581 73.3031C125.764 72.8812 125.767 72.3874 125.995 71.9949C126.261 71.5305 126.768 71.2819 127.167 70.932C128.175 70.0489 128.434 68.5608 128.387 67.2068C128.355 66.1112 128.184 65.0057 128.251 63.9166L128.27 63.6419C128.289 63.4784 128.311 63.3148 128.339 63.1578C128.494 62.3467 128.833 61.5814 129.023 60.7769C129.213 59.9723 129.232 59.0664 128.789 58.373C128.14 57.3559 126.787 57.1531 125.6 57.0484C124.253 56.9307 123.05 57.0844 122.188 55.9299C121.785 55.3265 121.332 54.7607 120.833 54.239C120.655 54.0689 118.932 52.9831 118.932 52.9112C117.251 52.1069 115.345 51.9559 113.564 52.486C112.671 52.7542 111.828 53.1924 110.922 53.4116C108.968 53.8891 106.719 53.3723 105.06 54.5268C104.135 55.1809 103.58 56.221 103.061 57.2349C102.639 58.0699 102.21 58.9039 101.775 59.7368C101.075 61.1072 100.362 62.5005 100.068 64.018C100.006 64.3482 99.9678 64.6827 99.9539 65.0188V65.0351C99.9539 65.1562 99.9539 65.2772 99.9539 65.3982V65.5519C99.9539 65.6664 99.9539 65.7776 99.9729 65.8789C99.9919 65.9803 99.9887 66.013 99.9982 66.0817C100.008 66.1504 100.024 66.3041 100.043 66.4088C100.062 66.5134 100.1 66.6966 100.138 66.8405C100.153 66.9026 100.176 66.9615 100.195 67.0204C100.226 67.1316 100.264 67.2395 100.305 67.3474C100.328 67.403 100.35 67.4619 100.375 67.5175C100.423 67.632 100.48 67.7432 100.537 67.8446C100.562 67.8903 100.581 67.9329 100.606 67.9754C100.695 68.1275 100.792 68.2738 100.898 68.4136C101.576 69.2869 102.573 69.8429 103.311 70.6605C103.311 70.6932 103.311 70.7259 103.311 70.7554C103.311 70.8469 103.311 70.9352 103.311 71.0268C103.35 72.8503 103.82 74.6363 104.68 76.2295C105.54 77.8227 106.764 79.1747 108.246 80.168C108.246 80.2923 108.262 80.4199 108.268 80.5441C108.33 81.515 108.318 82.4893 108.233 83.4582C108.104 83.3014 107.943 83.1764 107.761 83.0926C107.579 83.0089 107.381 82.9684 107.182 82.9742C107.046 82.9673 106.909 82.9794 106.776 83.0102L106.748 82.9873V83.0167C106.051 83.1933 105.193 83.9423 104.372 86.0714C104.372 86.0714 101.876 88.9757 99.976 88.8546C98.0756 88.7336 93.2645 91.8766 93.2645 91.8766C93.2645 91.8766 88.5706 95.0229 87.5634 98.2281C87.0004 100.046 86.3254 101.824 85.5426 103.553L79.7401 115.899L78.6696 125.694C78.6696 125.694 79.2618 130.051 79.1447 130.715C79.0275 131.378 81.5803 137.367 81.5803 137.367C81.5803 137.367 90.0148 152.67 93.4609 153.455L93.7079 153.275C93.8554 153.354 94.0117 153.415 94.1735 153.455L94.883 152.938C94.9256 153.514 94.9075 154.093 94.8292 154.665C94.3541 156.176 95.0065 166.037 95.8364 167.97C96.6662 169.902 96.3716 195.246 96.3716 195.246L96.2544 197.483C96.2544 197.483 96.2544 197.555 96.2829 197.679L96.2544 198.209L96.34 198.255C96.4288 198.965 96.3998 199.685 96.2544 200.384C95.9567 201.365 95.8364 204.139 95.8364 204.139C95.8364 204.139 93.464 219.798 94.5884 222.944C95.7128 226.091 96.6694 229.538 96.6694 229.538C96.6694 229.538 97.8571 233.463 96.7264 234.133C95.5956 234.803 92.3808 235.929 93.0428 237.564C93.6446 239.075 95.9282 243.124 96.2671 243.716L96.2386 244.026L95.773 249.236C95.8484 249.924 96.0291 250.596 96.3083 251.225C96.8182 252.36 97.8096 253.537 99.6941 253.41C100.011 253.387 100.378 253.348 100.733 253.299C104.182 252.821 108.43 251.232 108.43 251.232C108.209 251.087 108.007 250.914 107.828 250.718C107.658 250.548 107.524 250.345 107.433 250.12C107.342 249.895 107.296 249.654 107.299 249.41C107.35 248.461 105.63 243.941 105.202 242.829C105.136 242.669 105.101 242.578 105.101 242.578C105.101 242.578 109.022 238.346 108.369 234.594C108.369 234.594 104.03 231.978 105.459 230.542C106.887 229.106 109.44 224.982 109.44 224.982C109.44 224.982 109.557 209.561 109.44 207.259C109.318 205.661 109.391 204.053 109.658 202.474C109.706 202.235 109.763 202.003 109.823 201.774C111.799 202.079 113.793 202.235 115.79 202.242C116.519 202.242 117.26 202.242 118.007 202.196C118.007 202.414 118.017 202.65 118.036 202.902C118.201 206.722 118.508 213.421 118.758 215.909C119.113 219.478 121.073 229.093 121.073 229.093C121.073 229.093 117.333 231.572 121.726 237.682C121.726 237.682 121.726 239.896 121.435 240.216C121.123 241.264 120.873 242.33 120.684 243.408C120.5 244.56 120.424 245.724 120.722 246.329C121.435 247.775 125.71 247.657 125.71 247.657L125.815 247.637C126.622 247.551 127.438 247.631 128.215 247.873C128.992 248.115 129.715 248.514 130.341 249.047C131.966 250.394 138.133 249.802 141.471 249.374C142.779 249.204 143.653 249.047 143.653 249.047C143.696 248.894 143.711 248.734 143.698 248.576C143.663 247.729 143.02 245.871 138.661 244.213C138.661 244.213 134.563 241.368 134.62 238.888H134.535H134.059C134.405 238.869 134.626 238.888 134.626 238.888C134.626 238.888 133.021 232.838 133.676 232.347C134.332 231.857 132.368 225.152 132.368 225.152C132.368 225.152 131.244 213.901 131.183 213.113C131.186 212.437 131.285 211.764 131.478 211.118L131.183 204.95C131.183 204.95 131.126 202.899 131.183 202.232C131.174 201.653 131.128 201.075 131.047 200.502C131.019 200.273 130.99 200.034 130.959 199.799C132.495 199.396 133.492 199.024 133.492 199.024L133.315 177.552C134.62 174.936 134.861 169.196 134.854 165.124C134.854 162.508 134.74 160.572 134.74 160.572L136.524 157.566C136.524 157.566 136.935 153.968 136.283 153.18C135.995 152.824 136.124 152.454 136.362 152.15C136.485 152.049 136.616 151.957 136.752 151.875C136.752 151.875 136.733 151.846 136.71 151.803C136.835 151.696 136.967 151.598 137.106 151.512C137.106 151.512 136.473 150.498 137.04 150.07C137.572 150.443 138.047 150.724 138.408 150.953C138.383 151.192 138.357 151.329 138.357 151.329L138.509 151.002C138.858 151.205 139.07 151.329 139.07 151.329C139.07 151.329 141.864 145.583 141.803 144.735C141.743 143.888 143.704 140.32 143.704 140.32C143.704 140.32 143.941 138.446 145.012 137.661C146.082 136.876 145.842 131.189 145.842 131.189C145.842 131.189 146.14 128.226 146.852 127.016C147.565 125.805 146.203 124.173 146.203 124.173ZM92.7514 121.652L92.8052 123.022C92.4885 122.496 92.2605 122.116 92.2605 122.116L92.7514 121.652Z" fill="url(#paint0_linear_600_7)"/>
<path d="M139.222 148.847L138.538 151.856C138.538 151.856 133.059 148.968 132.07 145.298C131.082 141.628 133.724 140.235 133.724 140.235L138.829 142.469L139.222 148.847Z" fill="white"/>
<path opacity="0.1" d="M139.222 148.847L138.538 151.856C138.538 151.856 133.059 148.968 132.07 145.298C131.082 141.628 133.724 140.235 133.724 140.235L138.829 142.469L139.222 148.847Z" fill="black"/>
<path d="M108.471 251.251C108.471 251.251 103.403 253.174 99.919 253.416C98.0693 253.544 97.0969 252.373 96.5965 251.245C96.3231 250.617 96.1467 249.95 96.0739 249.266L96.5268 244.082L96.7675 241.322L104.169 239.336L105.218 242.646L105.316 242.898C105.737 244.004 107.425 248.501 107.375 249.439C107.373 249.68 107.418 249.918 107.507 250.14C107.596 250.362 107.728 250.563 107.894 250.731C108.064 250.929 108.258 251.104 108.471 251.251Z" fill="white"/>
<path d="M143.086 248.615C143.099 248.772 143.084 248.931 143.042 249.083C143.042 249.083 132.203 250.95 129.986 249.083C129.361 248.537 128.633 248.133 127.847 247.895C127.062 247.657 126.237 247.592 125.425 247.703C125.425 247.703 121.232 247.82 120.532 246.394C120.24 245.796 120.317 244.635 120.497 243.49C120.681 242.417 120.927 241.357 121.232 240.314L121.4 240.177L122.397 239.35L134.078 238.993H134.167C134.11 241.459 138.133 244.288 138.133 244.288C142.405 245.923 143.036 247.771 143.086 248.615Z" fill="white"/>
<path opacity="0.1" d="M143.086 248.615C143.097 248.773 143.081 248.931 143.039 249.083C143.039 249.083 132.203 250.95 129.986 249.083C129.361 248.538 128.633 248.133 127.849 247.896C127.064 247.658 126.239 247.592 125.428 247.703C125.428 247.703 121.232 247.82 120.535 246.394C120.244 245.793 120.316 244.635 120.497 243.49C122.112 243.657 124.662 244.072 125.663 245.063C127.177 246.571 129.742 248.075 131.316 248.193C132.549 248.275 139.919 248.517 143.086 248.615Z" fill="black"/>
<path opacity="0.1" d="M108.471 251.251C108.471 251.251 103.403 253.174 99.9189 253.416C98.0692 253.544 97.0969 252.373 96.5996 251.241C97.8887 251.689 99.6782 252.16 100.619 251.729C101.734 251.218 105.687 250.888 107.904 250.747C108.072 250.938 108.263 251.107 108.471 251.251Z" fill="black"/>
<path d="M115.99 96.2756C111.809 94.5978 106.431 89.0542 107.774 86.4639C108.072 85.8103 108.249 85.1048 108.297 84.3838C108.383 83.4052 108.396 82.421 108.335 81.4403C108.24 79.8342 108.053 78.2353 107.774 76.6522C107.774 76.6522 120.826 76.9564 120.066 78.9416C119.845 79.5238 119.81 80.5344 119.87 81.666C119.93 82.7976 120.088 84.0764 120.253 85.159C120.481 86.6438 120.709 87.7754 120.709 87.7754C120.709 87.7754 119.911 88.9299 119.442 88.9921C118.973 89.0542 121.989 98.6664 115.99 96.2756Z" fill="#CF6F80"/>
<path opacity="0.1" d="M105.307 242.898L105.208 243.009C101.306 238.136 96.587 244.21 96.587 244.21L96.5173 244.082L96.7581 241.322L104.16 239.336L105.208 242.646L105.307 242.898Z" fill="black"/>
<path opacity="0.1" d="M134.17 239.336C134.17 239.336 131.32 239.274 129.799 240.661C128.279 242.048 120.931 240.962 121.248 240.661C121.341 240.512 121.398 240.341 121.412 240.164L122.41 239.336L134.091 238.98C134.135 239.199 134.17 239.336 134.17 239.336Z" fill="black"/>
<path d="M110.162 201.068C109.95 201.61 109.789 202.171 109.681 202.745C109.416 204.317 109.343 205.917 109.462 207.507C109.579 209.797 109.462 225.139 109.462 225.139C109.462 225.139 106.957 229.23 105.56 230.673C104.163 232.115 108.411 234.705 108.411 234.705C109.044 238.434 105.205 242.646 105.205 242.646C101.303 237.773 96.5838 243.85 96.5838 243.85C96.5838 243.85 94.0183 239.271 93.3785 237.636C92.7387 236.001 95.8838 234.869 96.9892 234.205C98.0946 233.541 96.9354 229.626 96.9354 229.626C96.9354 229.626 96.001 226.195 94.8925 223.065C93.7839 219.936 96.115 204.355 96.115 204.355C96.115 204.355 96.2354 201.588 96.5236 200.623C96.669 199.927 96.698 199.21 96.6091 198.504C96.5901 198.265 96.568 198.065 96.5521 197.931C96.5363 197.797 96.5236 197.735 96.5236 197.735L96.568 197.656L98.1516 194.608C98.1516 194.608 110.922 199.148 110.162 201.068Z" fill="#3795BD"/>
<path d="M134.17 238.977C134.17 238.977 131.32 238.915 129.799 240.285C128.279 241.655 120.931 240.586 121.248 240.285C121.564 239.984 121.539 237.757 121.539 237.757C117.228 231.68 120.906 229.214 120.906 229.214C120.906 229.214 118.98 219.648 118.632 216.099C118.388 213.62 118.087 206.958 117.925 203.154C117.856 201.519 117.814 200.394 117.814 200.394L121.336 199.661L121.789 199.566L130.284 197.807C130.284 197.807 130.518 199.442 130.677 200.78C130.756 201.351 130.8 201.927 130.81 202.503C130.753 203.158 130.81 205.205 130.81 205.205L131.098 211.344C130.91 211.988 130.813 212.656 130.81 213.329C130.867 214.111 131.972 225.303 131.972 225.303C131.972 225.303 133.895 231.981 133.239 232.462C132.583 232.943 134.17 238.977 134.17 238.977Z" fill="#3795BD"/>
<path opacity="0.1" d="M120.066 78.9416C119.845 79.5238 119.81 80.5344 119.87 81.666C118.122 82.7531 116.112 83.309 114.071 83.2696C112.031 83.2303 110.042 82.5974 108.335 81.4436C108.241 79.8363 108.053 78.2364 107.774 76.6522C107.774 76.6522 120.826 76.9498 120.066 78.9416Z" fill="black"/>
<path d="M125.112 71.7136C125.114 72.8922 124.935 74.0636 124.58 75.1837C123.786 77.6934 122.159 79.8326 119.986 81.2233C117.812 82.614 115.233 83.1666 112.703 82.7834C110.174 82.4003 107.857 81.106 106.162 79.1294C104.467 77.1528 103.503 74.6211 103.441 71.9818C103.441 71.8902 103.441 71.8052 103.441 71.7136C103.416 70.228 103.679 68.7522 104.212 67.3723C104.746 65.9924 105.54 64.736 106.549 63.6764C107.558 62.6168 108.76 61.7752 110.087 61.2008C111.415 60.6263 112.839 60.3304 114.278 60.3304C115.717 60.3304 117.141 60.6263 118.468 61.2008C119.795 61.7752 120.998 62.6168 122.007 63.6764C123.016 64.736 123.81 65.9924 124.344 67.3723C124.877 68.7522 125.14 70.228 125.115 71.7136H125.112Z" fill="#CF6F80"/>
<path opacity="0.1" d="M115.99 96.2755C111.809 94.5978 106.431 89.0541 107.774 86.4639C108.072 85.8102 108.249 85.1047 108.297 84.3838L114.02 89.2406L117.561 92.2397L120.253 85.1622C120.481 86.647 120.709 87.7786 120.709 87.7786C120.709 87.7786 119.911 88.9331 119.442 88.9953C118.973 89.0574 121.989 98.6663 115.99 96.2755Z" fill="black"/>
<path d="M130.791 117.74L126.011 200.649L119.778 201.071L103.637 152.997L106.285 95.9223L106.843 83.8638L114.02 89.9503L117.564 92.9494L120.335 85.6658L125.489 90.3035L130.791 117.74Z" fill="#3795BD"/>
<path opacity="0.1" d="M110.162 201.068C109.95 201.61 109.789 202.171 109.681 202.745C105.145 202.022 100.74 200.601 96.6124 198.53L96.5269 198.484L96.5554 197.957L96.5712 197.683L98.1549 194.634C98.1549 194.634 110.922 199.148 110.162 201.068Z" fill="black"/>
<path opacity="0.1" d="M121.409 202.758C120.25 202.962 119.08 203.1 117.906 203.171C117.836 201.535 117.795 200.41 117.795 200.41L121.317 199.678L121.409 202.758Z" fill="black"/>
<path opacity="0.1" d="M130.658 200.796C128.406 201.401 124.928 202.082 121.815 201.656L121.77 199.583L130.265 197.823C130.265 197.823 130.499 199.442 130.658 200.796Z" fill="black"/>
<path opacity="0.1" d="M121.758 202.036C108.772 204.325 96.8784 197.761 96.8784 197.761L96.9924 195.537C96.9924 195.537 97.287 170.324 96.4698 168.391C95.6527 166.459 95.016 156.657 95.4785 155.152C95.9409 153.648 93.7903 131.087 93.7903 131.087L93.4419 121.93L80.6903 116.596L86.3915 104.324C87.1615 102.604 87.8238 100.834 88.3742 99.0261C89.3656 95.8406 93.9677 92.7106 93.9677 92.7106C93.9677 92.7106 98.6869 89.584 100.552 89.7017C102.418 89.8195 104.863 86.9348 104.863 86.9348C106.669 82.1827 108.303 84.3347 108.303 84.3347C108.303 84.5604 108.303 84.3347 108.214 85.0379C107.581 90.2544 118.457 106.738 118.612 107.029L119.648 133.082L120.697 166.053L121.758 202.036Z" fill="black"/>
<path d="M121.409 202.036C108.423 204.325 96.5268 197.761 96.5268 197.761L96.644 195.537C96.644 195.537 96.9386 170.324 96.1182 168.391C95.2979 166.459 94.6645 156.657 95.1301 155.152C95.5956 153.648 93.4419 131.087 93.4419 131.087L93.0903 121.93L80.3324 116.576L86.0335 104.305C86.8019 102.584 87.4641 100.814 88.0163 99.0064C89.0045 95.8209 93.6097 92.691 93.6097 92.691C93.6097 92.691 98.329 89.5643 100.191 89.6821C102.054 89.7998 104.502 86.9152 104.502 86.9152C106.311 82.163 108.303 84.3151 108.303 84.3151C108.303 84.5407 108.113 84.6421 108.214 85.0182C109.608 90.0778 118.109 106.718 118.264 107.01L119.312 133.063L120.361 166.033L121.409 202.036Z" fill="white"/>
<path opacity="0.1" d="M117.909 107.752C116.513 107.15 109.114 98.4276 109.114 98.4276V96.4423C108.844 95.7882 107.245 96.1872 105.946 96.6451L106.504 84.5865L107.137 85.1295C108.525 90.1858 117.748 107.461 117.909 107.752Z" fill="black"/>
<path d="M118.261 107.029C116.861 106.427 109.462 97.7048 109.462 97.7048V95.7196C109.193 95.0654 107.593 95.4645 106.295 95.9223L106.855 83.8638L107.489 84.4067C108.879 89.463 118.106 106.741 118.261 107.029Z" fill="white"/>
<path opacity="0.1" d="M96.8784 150.531C97.0526 150.531 105.908 149.569 105.908 149.569C105.908 149.569 111.271 160.457 110.919 163.106C110.568 165.755 109.931 168.1 107.774 167.685C105.617 167.27 96.1658 168.012 96.1658 168.012L96.8784 150.531Z" fill="black"/>
<path d="M96.5269 149.808C96.7011 149.808 105.557 148.847 105.557 148.847C105.557 148.847 110.916 159.738 110.568 162.383C110.219 165.029 109.576 167.378 107.422 166.962C105.269 166.547 95.8142 167.289 95.8142 167.289L96.5269 149.808Z" fill="white"/>
<path d="M103.2 144.696C103.2 144.696 111.328 149.206 111.502 150.583C111.676 151.96 107.365 149.981 106.434 149.743C105.821 149.59 105.197 149.49 104.569 149.442L98.3575 149.615L103.2 144.696Z" fill="#CF6F80"/>
<path opacity="0.1" d="M115.642 108.314C116.114 108.314 116.497 107.919 116.497 107.431C116.497 106.944 116.114 106.548 115.642 106.548C115.169 106.548 114.786 106.944 114.786 107.431C114.786 107.919 115.169 108.314 115.642 108.314Z" fill="black"/>
<path d="M115.642 107.955C116.114 107.955 116.497 107.559 116.497 107.072C116.497 106.584 116.114 106.189 115.642 106.189C115.169 106.189 114.786 106.584 114.786 107.072C114.786 107.559 115.169 107.955 115.642 107.955Z" fill="#3F3D56"/>
<path opacity="0.1" d="M117.216 146.541C117.688 146.541 118.071 146.145 118.071 145.658C118.071 145.17 117.688 144.775 117.216 144.775C116.743 144.775 116.36 145.17 116.36 145.658C116.36 146.145 116.743 146.541 117.216 146.541Z" fill="black"/>
<path d="M117.216 146.178C117.688 146.178 118.071 145.782 118.071 145.295C118.071 144.807 117.688 144.412 117.216 144.412C116.743 144.412 116.36 144.807 116.36 145.295C116.36 145.782 116.743 146.178 117.216 146.178Z" fill="#3F3D56"/>
<path opacity="0.1" d="M116.493 127.428C116.966 127.428 117.349 127.032 117.349 126.545C117.349 126.057 116.966 125.661 116.493 125.661C116.021 125.661 115.638 126.057 115.638 126.545C115.638 127.032 116.021 127.428 116.493 127.428Z" fill="black"/>
<path d="M116.493 127.068C116.966 127.068 117.349 126.673 117.349 126.185C117.349 125.697 116.966 125.302 116.493 125.302C116.021 125.302 115.638 125.697 115.638 126.185C115.638 126.673 116.021 127.068 116.493 127.068Z" fill="#3F3D56"/>
<path d="M136.207 149.259C136.207 149.259 136.79 150.161 136.207 150.583C135.624 151.005 136.264 152.026 136.264 152.026C136.264 152.026 134.81 152.905 135.45 153.697C136.09 154.488 135.684 158.063 135.684 158.063L133.936 161.052C133.936 161.052 134.04 162.979 134.047 165.582C134.047 169.644 133.816 175.354 132.536 177.958L132.713 199.318C132.713 199.318 126.591 201.627 121.466 200.924L120.706 166.648C120.706 166.648 121.815 147.211 122.223 143.483C122.462 141.547 122.56 139.596 122.515 137.645C122.515 137.645 122.34 131.81 121.754 129.102C121.754 129.102 121.121 117.371 121.058 114.123C121.029 112.57 121.108 108.037 121.197 103.726C121.295 99.013 121.406 94.5683 121.406 94.5683L120.25 85.1229C120.25 85.1229 121.406 85.0019 121.754 85.4827C121.911 85.6332 122.08 85.768 122.261 85.885C124.257 87.2782 131.307 91.5627 131.307 91.5627C131.307 91.5627 135.209 93.1653 136.144 95.4612C137.078 97.7571 137.727 99.3859 138.18 100.04C138.633 100.694 138.88 103.768 138.88 103.768C138.88 103.768 140.223 109.426 141.271 110.385C142.32 111.343 143.086 117.439 143.086 117.439L133.822 124.962C133.822 124.962 133.008 137.475 132.834 137.959C132.66 138.443 136.207 149.259 136.207 149.259Z" fill="white"/>
<path d="M136.558 149.259C136.558 149.259 137.138 150.161 136.558 150.583C135.979 151.005 136.612 152.025 136.612 152.025C136.612 152.025 135.168 152.915 135.801 153.707C136.435 154.498 136.036 158.073 136.036 158.073L134.287 161.062C134.287 161.062 134.392 162.988 134.401 165.592C134.401 169.654 134.17 175.364 132.891 177.968L133.065 199.328C133.065 199.328 126.933 201.637 121.815 200.933L121.058 166.658C121.058 166.658 122.166 147.221 122.575 143.493C122.814 141.557 122.91 139.605 122.863 137.655C122.863 137.655 122.689 131.82 122.106 129.112C122.106 129.112 121.473 117.38 121.406 114.133C121.378 112.579 121.46 108.046 121.545 103.736C121.644 99.0228 121.754 94.5781 121.754 94.5781L120.228 85.0051C120.228 85.0051 121.754 85.0051 122.106 85.4924C122.261 85.6447 122.43 85.7796 122.613 85.8947C124.608 87.288 131.662 91.5724 131.662 91.5724C131.662 91.5724 135.561 93.175 136.495 95.4709C137.429 97.7669 138.079 99.3956 138.535 100.05C138.991 100.704 139.232 103.778 139.232 103.778C139.232 103.778 140.575 109.436 141.623 110.395C142.671 111.353 143.428 117.436 143.428 117.436L134.164 124.958C134.164 124.958 133.35 137.471 133.173 137.956C132.995 138.44 136.558 149.259 136.558 149.259Z" fill="white"/>
<path opacity="0.1" d="M125.463 97.3548L126.299 99.8732L121.897 104.452C121.995 99.7423 122.106 95.2944 122.106 95.2944L120.579 85.7214C120.579 85.7214 122.106 85.7214 122.458 86.2087C122.612 86.3606 122.782 86.4945 122.964 86.6078L126.708 97.7604L125.463 97.3548Z" fill="black"/>
<path d="M125.112 96.6321L125.951 99.1504L121.549 103.729C121.647 99.0163 121.758 94.5716 121.758 94.5716L120.228 84.9987C120.228 84.9987 121.758 84.9987 122.106 85.486C122.261 85.6374 122.431 85.7721 122.613 85.8883L126.36 97.0376L125.112 96.6321Z" fill="white"/>
<path opacity="0.1" d="M125.112 71.7136C125.114 72.8922 124.935 74.0636 124.58 75.1837C124.52 75.1933 124.459 75.1905 124.4 75.1753C124.341 75.1601 124.286 75.133 124.238 75.0954C124.155 72.1519 122.752 69.3883 121.026 67.0367C120.541 66.3267 119.954 65.698 119.284 65.1725C118.607 64.6473 117.764 64.4013 116.921 64.4824C115.971 64.6165 115.132 65.2837 114.172 65.3687C112.905 65.4767 111.771 64.5707 110.514 64.5249C110.002 64.5299 109.498 64.6475 109.034 64.8697C108.571 65.0919 108.158 65.4137 107.825 65.8135C107.164 66.6205 106.673 67.5605 106.383 68.5739C105.885 70.1105 105.614 71.7158 105.579 73.3358C105.563 74.2516 105.478 75.3995 104.654 75.7331C104.716 75.0597 104.642 74.3802 104.436 73.7379C104.231 73.0955 103.898 72.5042 103.46 72.0014L103.441 71.9818C103.441 71.8902 103.441 71.8052 103.441 71.7136C103.416 70.228 103.679 68.7522 104.212 67.3723C104.746 65.9924 105.54 64.736 106.549 63.6764C107.558 62.6168 108.76 61.7752 110.087 61.2008C111.415 60.6263 112.839 60.3304 114.278 60.3304C115.717 60.3304 117.141 60.6263 118.468 61.2008C119.795 61.7752 120.998 62.6168 122.007 63.6764C123.016 64.736 123.81 65.9924 124.344 67.3723C124.877 68.7522 125.14 70.228 125.115 71.7136H125.112Z" fill="black"/>
<path d="M118.764 53.9447C117.119 53.1452 115.247 52.994 113.5 53.5195C112.623 53.7877 111.796 54.2227 110.906 54.4418C109.006 54.916 106.789 54.4026 105.158 55.5505C104.252 56.2046 103.707 57.2381 103.2 58.2422L101.933 60.7344C101.243 62.0982 100.546 63.4849 100.258 64.9861C99.9697 66.4873 100.144 68.1684 101.066 69.3752C101.737 70.255 102.728 70.8077 103.457 71.6352C103.893 72.1385 104.224 72.7294 104.429 73.371C104.634 74.0126 104.709 74.691 104.648 75.3636C105.474 75.0365 105.554 73.8853 105.573 72.9695C105.608 71.3495 105.879 69.7443 106.377 68.2076C106.666 67.1939 107.157 66.2538 107.818 65.4473C108.152 65.0477 108.565 64.7262 109.028 64.504C109.492 64.2818 109.996 64.1641 110.507 64.1587C111.774 64.2044 112.911 65.1071 114.166 64.9992C115.116 64.9174 115.958 64.247 116.915 64.1161C117.758 64.0337 118.601 64.2799 119.278 64.8062C119.947 65.3309 120.534 65.9598 121.016 66.6705C122.746 69.022 124.149 71.7791 124.231 74.7291C124.589 75.0006 125.105 74.6474 125.283 74.2287C125.46 73.8101 125.466 73.3195 125.691 72.9205C125.951 72.4593 126.448 72.2141 126.838 71.8674C127.826 70.9876 128.073 69.506 128.035 68.1618C127.997 66.8176 127.744 65.4538 127.991 64.1325C128.14 63.3214 128.475 62.5626 128.659 61.7613C128.843 60.96 128.865 60.0606 128.431 59.3706C127.798 58.3567 126.464 58.1572 125.302 58.0623C123.981 57.9446 122.8 58.095 121.957 56.9471C121.562 56.348 121.117 55.7855 120.627 55.266C120.459 55.0959 118.764 54.0166 118.764 53.9447Z" fill="#512E4E"/>
<path opacity="0.1" d="M84.339 122.914L81.0292 116.596L79.9808 126.345C79.9808 126.345 80.5636 130.675 80.4464 131.339C80.3292 132.003 82.8346 137.956 82.8346 137.956C82.8346 137.956 91.1107 153.177 94.4903 153.962L105.908 145.537L102.88 141.566C102.88 141.566 101.832 141.144 101.569 141.566C101.569 141.566 95.9472 131.578 95.3644 130.855C94.7816 130.132 94.8957 128.69 94.8957 128.69C94.8957 128.69 94.0215 127.729 94.3129 126.826C94.6043 125.923 92.6247 122.793 92.6247 122.793L94.4301 121.05L84.339 122.914Z" fill="black"/>
<path d="M81.2034 115.876L80.3293 116.596L79.2809 126.345C79.2809 126.345 79.8637 130.675 79.7465 131.339C79.6293 132.003 82.1378 137.956 82.1378 137.956C82.1378 137.956 90.4108 153.177 93.7903 153.962L105.212 145.537L102.181 141.566C102.181 141.566 101.132 141.144 100.869 141.566C100.869 141.566 95.2473 131.578 94.6645 130.855C94.0817 130.132 94.1989 128.69 94.1989 128.69C94.1989 128.69 93.3247 127.728 93.6161 126.826C93.9075 125.923 91.9248 122.793 91.9248 122.793L93.7301 121.05L81.2034 115.876Z" fill="white"/>
<path opacity="0.1" d="M135.45 154.07C136.083 154.864 135.684 158.433 135.684 158.433L133.936 161.422C133.936 161.422 134.04 163.351 134.047 165.952L131.107 166.9C130.842 166.986 130.56 167.005 130.286 166.955C130.012 166.905 129.753 166.789 129.532 166.615C129.31 166.441 129.132 166.215 129.012 165.956C128.892 165.697 128.834 165.411 128.843 165.124L129.35 148.245L136.207 150.953C135.624 151.371 136.264 152.398 136.264 152.398C136.264 152.398 134.81 153.275 135.45 154.07Z" fill="black"/>
<path d="M135.801 153.707C136.435 154.501 136.036 158.073 136.036 158.073L134.287 161.062C134.287 161.062 134.392 162.988 134.401 165.592L131.408 166.557C131.148 166.64 130.872 166.658 130.604 166.609C130.336 166.561 130.083 166.446 129.866 166.276C129.649 166.106 129.475 165.885 129.357 165.631C129.24 165.377 129.183 165.098 129.191 164.817L129.701 147.885L136.562 150.593C135.976 151.012 136.615 152.035 136.615 152.035C136.615 152.035 135.168 152.915 135.801 153.707Z" fill="white"/>
<path d="M138.072 145.661C138.072 145.661 137.607 148.732 136.441 148.912C135.276 149.092 134.753 153.88 133.591 153.71C132.428 153.54 133.198 149.259 133.239 148.428C133.28 147.597 131.972 144.157 132.951 143.375C133.93 142.593 137.027 143.375 137.027 143.375L138.072 145.661Z" fill="#CF6F80"/>
<path opacity="0.1" d="M140.552 122.012L142.75 117.433C142.75 117.433 143.625 120.923 143.625 122.787C143.625 124.651 144.847 124.834 144.847 124.834C144.847 124.834 146.187 126.469 145.481 127.66C144.774 128.85 144.489 131.814 144.489 131.814C144.489 131.814 144.721 137.468 143.672 138.25C142.624 139.032 142.405 140.899 142.405 140.899C142.405 140.899 140.48 144.448 140.54 145.292C140.6 146.135 137.86 151.849 137.86 151.849C137.86 151.849 139.2 144.749 131.393 141.681C131.393 141.681 131.332 139.27 131.915 138.61C132.498 137.949 133.407 137.648 132.837 134.309C132.267 130.97 132.672 126.98 132.672 126.178C132.672 125.377 134.42 120.38 134.42 120.38L140.552 122.012Z" fill="black"/>
<path d="M141.503 116.779L143.422 117.433C143.422 117.433 144.299 120.922 144.299 122.787C144.299 124.651 145.522 124.834 145.522 124.834C145.522 124.834 146.862 126.469 146.155 127.66C145.449 128.85 145.167 131.813 145.167 131.813C145.167 131.813 145.398 137.468 144.35 138.25C143.302 139.032 143.067 140.899 143.067 140.899C143.067 140.899 141.145 144.448 141.205 145.291C141.265 146.135 138.522 151.849 138.522 151.849C138.522 151.849 139.865 144.749 132.055 141.681C132.055 141.681 131.997 139.27 132.58 138.61C133.163 137.949 134.072 137.648 133.502 134.309C132.932 130.97 133.337 126.98 133.337 126.178C133.337 125.377 135.086 120.38 135.086 120.38L141.503 116.779Z" fill="white"/>
<path opacity="0.1" d="M99.1082 235.458C99.1082 235.458 102.168 233.472 104.176 234.915C106.184 236.357 99.1082 235.458 99.1082 235.458Z" fill="black"/>
<path opacity="0.1" d="M122.882 229.319C122.882 229.319 125.59 228.959 127.864 231.487C130.138 234.015 122.882 229.319 122.882 229.319Z" fill="black"/>
<g opacity="0.1">
<path d="M126.844 71.1511C126.455 71.4978 125.954 71.7463 125.695 72.2075C125.473 72.6032 125.467 73.0905 125.289 73.5157C125.112 73.9409 124.596 74.2876 124.238 74.0194C124.155 71.0759 122.749 68.3122 121.023 65.9574C120.54 65.2468 119.954 64.6179 119.284 64.0932C118.606 63.5669 117.762 63.3209 116.918 63.4031C115.968 63.5372 115.132 64.2044 114.172 64.2862C112.905 64.3974 111.768 63.4914 110.511 63.4456C110 63.4509 109.496 63.5689 109.032 63.7917C108.569 64.0145 108.157 64.337 107.825 64.7375C107.163 65.5428 106.673 66.4819 106.384 67.4946C105.886 69.0313 105.615 70.6366 105.579 72.2565C105.56 73.169 105.478 74.3072 104.661 74.6473C104.68 74.8889 104.68 75.1318 104.661 75.3734C105.484 75.0463 105.566 73.8951 105.585 72.9793C105.621 71.3593 105.892 69.754 106.39 68.2174C106.679 67.2037 107.17 66.2636 107.831 65.457C108.164 65.0576 108.576 64.7361 109.039 64.5139C109.503 64.2917 110.006 64.1739 110.517 64.1684C111.784 64.2142 112.924 65.1169 114.178 65.009C115.128 64.9272 115.971 64.2567 116.924 64.1259C117.769 64.0436 118.612 64.2897 119.29 64.816C119.96 65.3407 120.547 65.9696 121.029 66.6802C122.755 69.0318 124.162 71.7888 124.244 74.7389C124.602 75.0104 125.118 74.6571 125.296 74.2385C125.473 73.8199 125.479 73.3293 125.701 72.9303C125.961 72.4691 126.461 72.2238 126.851 71.8772C127.839 70.9974 128.086 69.5158 128.048 68.1716C128.048 68.1291 128.048 68.0866 128.048 68.0473C127.988 69.2116 127.687 70.3989 126.844 71.1511Z" fill="black"/>
<path d="M103.463 70.9189C102.735 70.0915 101.74 69.5387 101.072 68.6622C100.509 67.8863 100.188 66.9523 100.15 65.9836C100.051 67.1941 100.378 68.4009 101.072 69.3818C101.74 70.2615 102.735 70.8143 103.463 71.6417C104.163 72.4511 104.583 73.477 104.657 74.5591C104.706 73.9006 104.625 73.2387 104.42 72.6132C104.215 71.9877 103.889 71.4114 103.463 70.9189Z" fill="black"/>
<path d="M128.665 61.045C128.479 61.8463 128.146 62.6084 127.994 63.4162C127.904 63.956 127.871 64.5043 127.896 65.0515C127.906 64.7398 127.939 64.4293 127.994 64.1226C128.146 63.3115 128.479 62.5528 128.665 61.7515C128.774 61.3095 128.81 60.8517 128.77 60.3975C128.75 60.6156 128.715 60.8321 128.665 61.045Z" fill="black"/>
</g>
<path opacity="0.1" d="M42.0396 248.756C59.0843 248.756 72.9018 246.464 72.9018 243.637C72.9018 240.81 59.0843 238.519 42.0396 238.519C24.9949 238.519 11.1774 240.81 11.1774 243.637C11.1774 246.464 24.9949 248.756 42.0396 248.756Z" fill="#3795BD"/>
<path d="M43.0342 145.586H41.0483V191.756H43.0342V145.586Z" fill="#535461"/>
<path d="M55.5133 191.616L55.3898 193.696L55.2124 196.639L55.1396 197.863L54.9654 200.806L54.8894 202.029L54.712 204.973L52.7103 238.355C52.6233 239.792 52.0095 241.14 50.9939 242.125C49.9783 243.111 48.6372 243.66 47.2435 243.66H36.8357C35.4424 243.66 34.1016 243.111 33.0865 242.125C32.0714 241.139 31.4583 239.791 31.3721 238.355L29.3799 204.95L29.2025 202.006L29.1297 200.783L28.9523 197.84L28.8794 196.616L28.7021 193.673L28.5754 191.593C28.5534 191.193 28.6108 190.792 28.7442 190.415C28.8776 190.039 29.084 189.694 29.351 189.403C29.6179 189.112 29.9396 188.88 30.2964 188.721C30.6533 188.563 31.0376 188.482 31.426 188.483H52.7134C53.1003 188.486 53.4824 188.571 53.8361 188.733C54.1898 188.895 54.5076 189.13 54.77 189.423C55.0324 189.717 55.2337 190.063 55.3615 190.44C55.4894 190.817 55.541 191.217 55.5133 191.616Z" fill="#3F3D56"/>
<path d="M55.3898 193.696L55.2125 196.63H28.8668L28.6895 193.696H55.3898Z" fill="#9D9CB5"/>
<path d="M55.1397 197.853L54.9654 200.79H29.1171L28.9397 197.853H55.1397Z" fill="#9D9CB5"/>
<path d="M54.8895 202.016L54.7153 204.95H29.3673L29.1899 202.016H54.8895Z" fill="#9D9CB5"/>
<path d="M25.6583 162.89C37.2221 171.531 42.0491 185.045 42.0491 185.045C42.0491 185.045 28.113 184.551 16.546 175.91C4.97897 167.27 0.161499 153.759 0.161499 153.759C0.161499 153.759 14.0913 154.249 25.6583 162.89Z" fill="#3795BD"/>
<path d="M0.151978 153.759C0.151978 153.759 14.6202 162.05 19.2603 168.915C23.9004 175.78 42.0491 185.045 42.0491 185.045" stroke="#535461" stroke-width="2" stroke-miterlimit="10"/>
<path d="M33.1236 145.484C39.4171 150.184 42.0491 157.54 42.0491 157.54C42.0491 157.54 34.4634 157.272 28.1668 152.572C21.8702 147.872 19.2445 140.513 19.2445 140.513C19.2445 140.513 26.827 140.781 33.1236 145.484Z" fill="#3795BD"/>
<path d="M19.2445 140.513C19.2445 140.513 27.1184 145.027 29.6428 148.762C32.1671 152.497 42.0491 157.54 42.0491 157.54" stroke="#535461" stroke-width="2" stroke-miterlimit="10"/>
<path d="M51.1868 157.167C43.9558 165.373 42.426 176.097 42.426 176.097C42.426 176.097 52.6216 173.513 59.8462 165.304C67.0708 157.095 68.607 146.374 68.607 146.374C68.607 146.374 58.4178 148.961 51.1868 157.167Z" fill="#3795BD"/>
<path d="M68.6133 146.377C68.6133 146.377 59.1937 154.789 56.7993 160.585C54.4048 166.38 42.426 176.097 42.426 176.097" stroke="#535461" stroke-width="2" stroke-miterlimit="10"/>
<path d="M316.626 154.279C316.626 154.279 311.397 127.415 313.399 124.072C313.399 124.072 313.471 120.965 313.351 117.004C313.351 116.854 313.351 116.703 313.351 116.55C313.703 116.792 314.07 117.011 314.45 117.204C316.294 118.182 318.412 118.465 320.436 118.002L318.853 116.18C318.473 115.745 318.077 115.274 317.994 114.699C317.912 114.123 318.14 113.61 318.336 113.096C319.841 109.171 319.92 104.236 317.022 101.24C314.574 98.7219 313.978 95.471 311.321 93.1718C309.379 91.4875 308.312 89.0182 307.305 86.6307C306.453 84.6127 305.594 82.5784 305.107 80.4395C304.727 78.7682 304.574 77.0381 304.052 75.4061C303.529 73.7741 302.551 72.1879 301.021 71.4585C300.476 71.2002 299.871 71.053 299.374 70.7096C298.721 70.255 298.329 69.5158 297.857 68.8683C295.459 65.5977 287.43 67.5241 283.629 68.8519C282.596 69.1863 281.639 69.7337 280.817 70.461L280.851 70.4022C280.88 70.3531 280.915 70.304 280.946 70.255C280.53 70.6023 280.171 71.0164 279.882 71.4814C279.328 72.3874 279.097 73.4438 278.634 74.4249C278.077 75.586 274.976 78.8271 276.309 80.1321C276.403 80.2197 276.51 80.2905 276.626 80.3414C277.127 80.5565 277.678 80.6134 278.21 80.5049L278.153 80.6455C277.697 81.7969 277.464 83.0289 277.466 84.2726C277.466 89.6461 281.757 94.0025 287.056 94.0025C288.052 94.0035 289.043 93.8458 289.992 93.5348C290.014 93.6591 290.033 93.7834 290.056 93.9077C290.056 93.9567 290.071 94.0058 290.078 94.0549L289.91 94.2969C289.901 94.282 289.892 94.2677 289.881 94.2544L284.909 101.43C284.149 101.983 279.771 105.253 279.524 107.706C279.265 110.391 279.005 113.534 279.005 113.534L278.97 114.208C278.753 114.396 278.499 114.532 278.225 114.608C277.952 114.685 277.666 114.699 277.386 114.65C275.834 114.388 275.834 120.537 275.834 120.537C275.834 120.537 274.802 121.518 274.092 120.667C273.383 119.817 271.508 122.698 271.508 122.698L259.757 123.222L259.488 123.238L258.854 121.214C258.786 121 258.639 120.823 258.445 120.721C258.251 120.618 258.026 120.599 257.819 120.667C257.77 120.684 257.722 120.705 257.676 120.73L257.632 120.756L257.55 120.815L257.508 120.854C257.486 120.875 257.464 120.898 257.445 120.923L257.407 120.968L257.388 120.988C257.315 121.092 257.266 121.213 257.247 121.34C257.227 121.467 257.236 121.598 257.274 121.721L257.819 123.457C255.551 123.928 253.232 125.256 255.123 128.913L245.539 127.084L248.64 129.773L264.647 133.184C264.435 133.576 264.575 134.145 265.237 134.947C268.087 138.404 273.281 139.342 275.372 139.584C275.924 140.86 276.614 142.066 277.428 143.182L277.247 146.626C277.247 146.626 271.954 172.875 270.985 174.207C271.474 173.634 271.922 173.025 272.325 172.385C270.789 177.778 268.641 185.16 268.078 186.265C267.172 188.031 266.332 195.177 267.365 195.635C267.682 195.776 268.588 195.707 269.88 195.606V196.198L269.823 218.631C269.823 218.631 270.083 232.39 269.37 233.701C268.657 235.013 268.467 237.763 268.467 237.763C268.467 237.763 265.617 243.189 263.358 245.371C263.343 245.388 263.326 245.403 263.308 245.416L263.238 244.906C263.238 244.906 260.524 248.445 254.518 248.245C254.518 248.245 250.904 250.672 256.264 250.803C261.623 250.934 268.467 250.607 268.467 250.607C268.467 250.607 273.247 243.085 277.25 244.066V249.766H278.476V243.974C279.044 243.588 279.531 243.086 279.906 242.5C280.281 241.913 280.537 241.254 280.658 240.563C280.763 239.85 280.686 239.121 280.435 238.449C280.184 237.776 279.768 237.182 279.227 236.727C278.983 236.5 278.789 236.223 278.654 235.915C278.519 235.606 278.448 235.273 278.444 234.934L278.4 234.974C278.4 234.859 278.371 234.741 278.359 234.62C278.007 231.677 277.567 225.603 279.122 221.11C281.254 214.948 281.9 206.366 280.348 201.257C279.847 199.624 279.436 197.964 279.116 196.283C279.078 196.07 279.043 195.867 279.011 195.678C280.072 195.826 281.123 196.044 282.156 196.332C285.751 197.356 293.616 197.545 300.33 197.49C300.346 197.679 300.365 197.879 300.387 198.078C300.507 199.465 300.757 200.837 301.135 202.173C301.977 204.79 302.364 216.325 302.364 216.325C302.364 216.325 303.45 225.809 302.858 229.669C302.541 231.814 302.224 233.97 302.044 236.135V236.177C302.044 236.177 300.264 241.41 298.962 244.252C298.93 244.324 298.896 244.396 298.864 244.465C298.517 244.497 298.175 244.575 297.847 244.697C297.847 244.697 296.102 248.295 294.363 248.89C292.624 249.485 293.201 251.444 297.138 250.725C301.075 250.005 307.02 249.416 307.02 249.416L307.276 245.747L308.486 244.183L308.169 247.843L309.458 247.582L309.287 243.13L311.267 240.573C311.267 240.573 313.658 238.375 310.105 234.051V234.146C310.067 234.084 310.032 234.019 309.991 233.956V233.937C309.401 232.995 308.933 231.239 309.791 228.122C311.343 222.49 312.246 217.378 312.246 217.378C312.246 217.378 315.711 203.684 311.546 197.205H311.729C311.303 196.293 311.001 195.325 310.833 194.327C310.812 194.209 310.793 194.088 310.776 193.964C313.858 193.781 316.883 193.205 319.35 191.962C319.34 191.949 317.855 159.453 316.626 154.279ZM277.5 131.614V131.679L276.867 131.712L277.5 131.614ZM275.328 131.925C275.223 131.949 275.126 131.997 275.043 132.065C274.77 132.463 274.599 132.925 274.545 133.41L273.557 133.181C273.557 133.181 272.863 133.027 271.866 132.854L271.394 132.363C272.692 132.252 274.042 132.088 275.328 131.925Z" fill="url(#paint1_linear_600_7)"/>
<path d="M308.024 243.176L307.647 247.81L308.91 247.549L308.72 242.522L308.024 243.176Z" fill="#1D2366"/>
<path d="M279.192 221.172C277.668 225.652 278.099 231.7 278.441 234.637C278.568 235.723 278.685 236.383 278.685 236.383C278.685 236.383 276.408 241.74 276.218 241.943C276.028 242.146 269.516 246.25 269.516 246.25L264.964 248.994C264.964 248.994 260.346 246.905 262.56 246.185C263.013 245.998 263.42 245.711 263.754 245.345C265.971 243.17 268.755 237.763 268.755 237.763C268.755 237.763 268.946 235.019 269.642 233.714C270.339 232.409 270.086 218.696 270.086 218.696L270.14 196.342V193.428L278.802 193.493C278.857 194.482 278.982 195.466 279.176 196.437C279.487 198.112 279.89 199.767 280.383 201.395C281.909 206.494 281.276 215.033 279.192 221.172Z" fill="#FFB0B1"/>
<path opacity="0.1" d="M278.685 236.383C278.685 236.383 276.408 241.74 276.218 241.943C276.028 242.146 269.516 246.25 269.516 246.25L264.964 248.994C264.964 248.994 260.346 246.905 262.56 246.185C263.013 245.998 263.42 245.711 263.754 245.344L263.951 246.774L265.468 246.708L278.454 234.643C278.568 235.722 278.685 236.383 278.685 236.383Z" fill="black"/>
<path d="M278.527 234.947L265.468 247.094L263.951 247.16L263.634 244.87C263.634 244.87 260.98 248.396 255.082 248.2C255.082 248.2 251.541 250.617 256.789 250.747C262.038 250.878 268.74 250.551 268.74 250.551C268.74 250.551 273.421 243.029 277.339 244.01V249.691H278.542V243.958C279.102 243.569 279.58 243.067 279.946 242.482C280.313 241.898 280.562 241.243 280.677 240.556C280.781 239.849 280.708 239.127 280.463 238.458C280.218 237.789 279.811 237.196 279.28 236.736C279.043 236.507 278.854 236.23 278.725 235.922C278.595 235.615 278.528 235.283 278.527 234.947Z" fill="#1D2366"/>
<path d="M309.227 228.158C308.385 231.265 308.844 233.014 309.421 233.953V233.973C310.16 235.132 310.674 236.428 310.934 237.789L310.985 238.084L305.043 247.029L301.819 248.337C301.819 248.337 296.634 246.509 297.581 245.985C297.819 245.858 298.189 245.178 298.614 244.239C299.881 241.41 301.629 236.19 301.629 236.19V236.148C301.813 233.992 302.104 231.844 302.427 229.705C303.007 225.855 301.943 216.407 301.943 216.407C301.943 216.407 301.562 204.917 300.739 202.304C300.367 200.975 300.12 199.613 300.001 198.235C299.83 196.6 299.792 195.253 299.792 195.253C299.792 195.253 303.206 190.347 309.465 195.645C309.965 196.068 310.406 196.561 310.773 197.11C315.096 203.462 311.615 217.453 311.615 217.453C311.615 217.453 310.744 222.542 309.227 228.158Z" fill="#FFB0B1"/>
<path opacity="0.1" d="M310.995 238.084L305.053 247.029L301.828 248.337C301.828 248.337 296.644 246.509 297.591 245.986C297.828 245.858 298.199 245.178 298.623 244.239C300.818 244.219 301.955 246.378 301.955 246.378L304.736 245.92C304.736 245.92 308.404 238.476 309.227 238.022C310.051 237.567 309.354 234.624 309.354 234.624V233.875C309.376 233.901 309.395 233.93 309.42 233.956V233.976C310.16 235.135 310.674 236.431 310.934 237.793L310.995 238.084Z" fill="black"/>
<path d="M302.145 246.571C302.145 246.571 300.562 243.569 297.527 244.677C297.527 244.677 295.82 248.275 294.113 248.857C292.406 249.439 292.976 251.402 296.834 250.685C300.691 249.969 306.507 249.377 306.507 249.377L306.76 245.717L310.681 240.56C310.681 240.56 313.019 238.372 309.541 234.064V234.813C309.541 234.813 310.238 237.757 309.414 238.211C308.591 238.666 304.936 246.113 304.936 246.113L302.145 246.571Z" fill="#1D2366"/>
<path opacity="0.1" d="M278.812 193.486C278.866 194.476 278.991 195.46 279.185 196.43C275.619 195.89 272.309 196.158 270.14 196.335V193.421L278.812 193.486Z" fill="black"/>
<path opacity="0.1" d="M311.124 197.925C311.124 197.925 306.057 198.18 300.013 198.232C299.842 196.597 299.804 195.249 299.804 195.249C299.804 195.249 303.219 190.343 309.477 195.642C309.978 196.064 310.418 196.558 310.785 197.107C310.884 197.386 310.997 197.659 311.124 197.925Z" fill="black"/>
<path d="M311.124 197.336C311.124 197.336 288.928 198.445 282.163 196.486C275.397 194.526 268.692 196.224 267.682 195.769C266.671 195.315 267.492 188.195 268.378 186.432C269.265 184.669 274.13 166.841 274.13 166.841L278.812 141.638L283.743 140.235L284.091 140.134L292.684 137.687L298.981 135.892C298.981 135.892 311.501 186.366 310.428 190.088C310.038 191.514 309.975 193.013 310.244 194.468C310.408 195.461 310.704 196.426 311.124 197.336Z" fill="#1D2366"/>
<path d="M262.494 124.402C262.494 124.402 258.059 129.308 261.417 132.042C264.774 134.777 266.982 132.304 266.982 132.304L262.494 124.402Z" fill="#C7DAF5"/>
<path opacity="0.1" d="M262.494 124.402C262.494 124.402 258.059 129.308 261.417 132.042C264.774 134.777 266.982 132.304 266.982 132.304L262.494 124.402Z" fill="black"/>
<path d="M298.319 92.1481C298.319 92.1481 297.8 92.6583 297.017 93.4106C295.902 94.4866 294.252 96.0597 292.789 97.3778C290.762 99.1995 289.09 100.537 289.688 99.3957C290.287 98.2543 290.173 96.2658 289.875 94.4048C289.853 94.2805 289.834 94.1563 289.812 94.0352C289.565 92.6685 289.238 91.3186 288.833 89.9928C288.833 89.9928 292.108 85.6234 293.92 83.8998C294.594 83.2457 295.066 82.9775 295.095 83.4321C295.126 84.0437 295.57 85.3944 296.121 86.8269C296.137 86.8727 296.153 86.9152 296.172 86.961C296.539 87.9422 296.954 88.9495 297.318 89.8195C297.876 91.1539 298.319 92.1481 298.319 92.1481Z" fill="#FFB0B1"/>
<path opacity="0.1" d="M296.172 86.961C295.864 88.6703 295.117 90.2629 294.01 91.5723C292.902 92.8818 291.474 93.86 289.875 94.4048C289.623 92.9118 289.275 91.4378 288.833 89.9928C288.833 89.9928 295 81.7673 295.095 83.432C295.117 84.0633 295.598 85.463 296.172 86.961Z" fill="black"/>
<path opacity="0.1" d="M289.26 96.6026L290.059 95.4415C290.059 95.4415 290.588 98.771 292.532 97.3025C294.477 95.834 294.572 108.354 294.572 108.354L292.485 140.579L277.402 139.646L277.83 124.075L279.537 116.226L283.759 104.815L286.271 101.044L289.26 96.6026Z" fill="black"/>
<path d="M294.572 108.553L292.672 137.691L292.472 140.778L284.063 140.258L283.746 140.239L277.412 139.846L277.839 124.272L279.546 116.422L283.768 105.011L286.28 101.24L289.27 96.7825L290.068 95.6248C290.068 95.6248 290.597 98.9542 292.542 97.4857L292.583 97.4563C294.483 96.2134 294.572 108.553 294.572 108.553Z" fill="#1D2366"/>
<path d="M279.759 113.695C279.759 113.695 279.002 115.33 277.481 115.065C275.961 114.8 275.964 120.952 275.964 120.952C275.964 120.952 274.954 121.933 274.257 121.083C273.56 120.232 271.723 123.107 271.723 123.107L260.213 123.631C260.213 123.631 265.335 126.047 264.331 133.36C264.331 133.36 281.719 132.248 282.289 130.551C282.859 128.854 279.759 113.695 279.759 113.695Z" fill="white"/>
<path opacity="0.03" d="M279.759 113.695C279.759 113.695 279.002 115.33 277.481 115.065C275.961 114.8 275.964 120.952 275.964 120.952C275.964 120.952 274.954 121.933 274.257 121.083C273.56 120.232 271.723 123.107 271.723 123.107L260.213 123.631C260.213 123.631 265.335 126.047 264.331 133.36C264.331 133.36 281.719 132.248 282.289 130.551C282.859 128.854 279.759 113.695 279.759 113.695Z" fill="black"/>
<path d="M246.309 127.473L249.343 130.149L274.32 135.568L271.223 132.304L246.309 127.473Z" fill="white"/>
<path d="M289.308 97.6328C288.893 98.2869 287.705 101.636 286.714 104.56C285.887 106.996 285.197 109.139 285.197 109.139C285.197 109.139 283.585 119.977 282.761 121.936C281.938 123.895 282.384 131.535 282.384 131.535L279.315 150.403C279.315 150.403 277.925 160.133 275.777 165.945C273.658 171.665 271.299 174.347 271.226 174.432C272.176 173.104 277.355 146.959 277.355 146.959L279.065 113.986C279.065 113.986 279.315 110.852 279.569 108.174C279.822 105.495 284.953 101.839 284.953 101.839L289.9 94.5748C290.398 95.2616 290.065 96.4587 289.308 97.6328Z" fill="white"/>
<path d="M276.408 140.01C276.408 140.01 269.123 139.683 265.594 135.306C262.066 130.93 273.75 133.56 273.75 133.56L276.788 134.28L276.408 140.01Z" fill="#FFB0B1"/>
<path opacity="0.1" d="M310.428 190.092C310.038 191.517 309.975 193.016 310.244 194.471C302.297 195.053 293.796 192.836 293.796 192.836C292.213 194.34 288.041 196.557 288.041 196.557L285.767 167.449C284.313 163.525 283.743 142.963 283.743 142.963C283.743 142.963 283.873 141.887 284.06 140.274C284.06 140.235 284.06 140.193 284.076 140.153C284.643 135.65 285.767 127.195 286.318 126.054C287.078 124.484 283.981 120.308 283.981 120.308L285.39 107.896L285.561 106.398C288.532 105.028 290.809 100.652 290.809 100.652L292.558 97.4889C294.458 96.2297 294.556 108.57 294.556 108.57L292.656 137.707L298.953 135.911C298.953 135.911 311.501 186.37 310.428 190.092Z" fill="black"/>
<path d="M318.583 192.103C309.921 196.544 294.176 192.43 294.176 192.43C292.593 193.935 288.421 196.152 288.421 196.152L286.144 167.044C284.693 163.119 284.123 142.557 284.123 142.557C284.123 142.557 285.954 127.215 286.714 125.649C286.936 125.191 286.828 124.51 286.565 123.778C285.273 120.291 284.797 116.538 285.178 112.825L285.786 107.49L285.954 105.996C288.928 104.622 291.205 100.246 291.205 100.246L292.789 97.381L295.703 92.1023L297.084 89.6036L297.318 89.8228L299.108 91.4973C299.108 91.4973 299.868 92.1514 301.008 93.1326C303.488 95.2911 307.773 99.0915 309.984 101.417C311.929 103.464 312.543 111.428 312.721 117.423C312.838 121.371 312.768 124.465 312.768 124.465C310.808 127.797 315.936 154.554 315.936 154.554C317.13 159.724 318.583 192.103 318.583 192.103Z" fill="white"/>
<path opacity="0.03" d="M301.955 100.181C301.955 100.181 296.01 111.866 296.701 116.308C297.391 120.749 299.355 125.776 298.408 126.95C298.082 127.395 297.662 127.756 297.179 128.005C296.696 128.254 296.164 128.384 295.624 128.386C294.673 128.451 292.14 130.28 292.14 130.476C292.14 130.672 289.799 130.672 287.705 131.588C285.612 132.504 282.521 133.024 282.521 133.024C282.521 133.024 276.503 132.827 275.942 133.416C275.381 134.005 274.805 137.527 276.005 140.337C277.206 143.146 278.539 145.242 279.546 145.625C280.554 146.008 286.945 143.797 292.13 143.273C297.315 142.75 302.943 138.508 302.943 138.508C302.943 138.508 309.142 136.219 310.228 132.369C311.314 128.52 308.901 107.363 308.901 107.363C308.901 107.363 307.077 97.502 301.955 100.181Z" fill="black"/>
<path opacity="0.03" d="M301.195 99.1994C301.195 99.1994 295.25 110.888 295.947 115.327C296.644 119.765 298.601 124.795 297.651 125.972C297.327 126.418 296.907 126.779 296.424 127.028C295.941 127.277 295.409 127.407 294.87 127.408C293.92 127.473 291.386 129.302 291.386 129.498C291.386 129.694 289.045 129.694 286.952 130.607C284.858 131.519 281.767 132.042 281.767 132.042C281.767 132.042 275.749 131.846 275.191 132.435C274.634 133.024 274.051 136.549 275.255 139.355C276.458 142.162 277.789 144.261 278.796 144.644C279.803 145.027 286.195 142.816 291.379 142.296C296.564 141.776 302.193 137.527 302.193 137.527C302.193 137.527 308.388 135.238 309.462 131.392C310.535 127.545 308.135 106.382 308.135 106.382C308.135 106.382 306.316 96.5241 301.195 99.1994Z" fill="black"/>
<path d="M301.768 99.5919C301.768 99.5919 295.823 111.281 296.52 115.719C297.217 120.157 299.174 125.187 298.227 126.361C297.903 126.808 297.483 127.17 296.999 127.42C296.516 127.67 295.983 127.8 295.443 127.8C294.493 127.866 291.959 129.694 291.959 129.887C291.959 130.08 289.622 130.083 287.525 130.999C285.428 131.915 282.34 132.435 282.34 132.435C282.34 132.435 276.322 132.239 275.761 132.827C275.201 133.416 274.624 136.942 275.825 139.748C277.025 142.554 278.359 144.654 279.366 145.036C280.373 145.419 286.765 143.208 291.95 142.685C297.134 142.162 302.763 137.92 302.763 137.92C302.763 137.92 308.961 135.63 310.048 131.781C311.134 127.931 308.736 106.774 308.736 106.774C308.736 106.774 306.887 96.9297 301.768 99.5919Z" fill="white"/>
<path opacity="0.1" d="M301.638 130.944C301.638 130.944 296.887 129.962 298.541 131.598C300.194 133.233 300.185 134.665 302.209 134.6C304.232 134.535 301.638 130.944 301.638 130.944Z" fill="black"/>
<path opacity="0.1" d="M309.667 166.128C309.667 166.128 307.52 167.629 311.628 171.09C315.736 174.55 309.667 166.128 309.667 166.128Z" fill="black"/>
<path opacity="0.1" d="M305.569 178.468C305.569 178.664 304.809 185.663 307.653 187.413C310.497 189.163 305.569 178.468 305.569 178.468Z" fill="black"/>
<path d="M260.41 123.614C258.116 123.696 253.163 124.419 255.731 129.367C258.002 133.746 261.819 130.819 263.966 128.598C263.443 126.528 262.17 124.744 260.41 123.614Z" fill="#FFB0B1"/>
<path opacity="0.1" d="M301.008 93.332C298.576 95.049 296.536 96.4979 296.137 96.7988C295.047 97.6328 292.969 102.529 291.63 105.028C290.562 107.039 287.094 107.556 285.786 107.683L285.954 106.189C288.928 104.815 291.205 100.439 291.205 100.439L297.084 89.7965L299.108 91.6967C299.108 91.6967 299.868 92.3508 301.008 93.332Z" fill="black"/>
<path d="M301.008 93.1358C298.576 94.8529 296.536 96.3017 296.137 96.6059C295.047 97.4366 292.969 102.333 291.63 104.831C290.562 106.843 287.094 107.359 285.786 107.487L285.954 105.992C288.928 104.619 291.205 100.243 291.205 100.243L297.084 89.6003L299.108 91.494C299.108 91.494 299.868 92.1416 301.008 93.1358Z" fill="#DCE7FF"/>
<path d="M296.327 84.8025C296.328 86.7658 295.752 88.6831 294.673 90.3003C293.4 92.2124 291.505 93.5898 289.333 94.1827C287.16 94.7756 284.854 94.5446 282.832 93.5317C280.81 92.5187 279.207 90.791 278.313 88.6619C277.419 86.5328 277.295 84.1435 277.961 81.9274C278.627 79.7113 280.041 77.8153 281.945 76.5834C283.85 75.3516 286.119 74.8654 288.341 75.2132C290.562 75.5611 292.59 76.7198 294.055 78.4792C295.52 80.2385 296.326 82.482 296.327 84.8025Z" fill="#FFB0B1"/>
<path opacity="0.1" d="M312.721 117.426C311.435 116.609 310.387 115.447 309.69 114.064C309.161 112.985 308.809 111.739 307.907 110.973C307.093 110.287 306.006 110.12 304.993 109.812C301.661 108.795 298.867 105.655 298.763 102.071C298.712 100.383 299.222 98.699 298.991 97.0277C298.859 96.0819 298.495 95.1866 297.933 94.4276C297.654 94.0646 297.347 93.7246 297.017 93.4105C296.574 92.9788 296.108 92.5601 295.703 92.1023C295.447 91.8188 295.224 91.506 295.038 91.1702C294.887 90.8953 294.765 90.6048 294.674 90.3035C294.04 88.3019 294.616 85.9274 293.92 83.903L293.882 83.7918C293.619 83.0722 293.084 82.3527 292.339 82.2971C291.595 82.2415 290.958 82.8793 290.249 83.1638C288.763 83.7591 287.161 82.7452 285.922 81.7117C284.684 80.6782 283.287 79.4975 281.713 79.7265C280.671 79.8802 279.847 80.6128 278.888 80.9922C278.671 81.0788 278.447 81.1455 278.219 81.1917C279.032 79.1002 280.524 77.366 282.44 76.2872C284.355 75.2083 286.575 74.8521 288.718 75.2797C290.86 75.7074 292.792 76.8921 294.181 78.6305C295.569 80.3688 296.328 82.5523 296.327 84.8056C296.328 85.4861 296.259 86.1647 296.121 86.8301C296.137 86.8759 296.153 86.9184 296.172 86.9642C296.539 87.9454 296.954 88.9527 297.318 89.8227L299.108 91.4972C299.108 91.4972 299.868 92.1513 301.008 93.1325C303.488 95.2911 307.773 99.0915 309.984 101.417C311.929 103.471 312.537 111.431 312.721 117.426Z" fill="black"/>
<path d="M278.777 75.0169C279.23 74.0651 279.455 72.9989 279.996 72.0963C280.791 70.788 282.178 69.9508 283.604 69.4438C287.325 68.1193 295.19 66.1962 297.54 69.4438C298.002 70.0979 298.386 70.824 299.025 71.2754C299.513 71.6188 300.102 71.7659 300.638 72.0243C302.136 72.7504 303.092 74.3333 303.602 75.949C304.112 77.5646 304.264 79.298 304.638 80.9628C305.116 83.0984 305.955 85.1229 306.792 87.1343C307.777 89.5087 308.822 91.9715 310.722 93.6493C313.316 95.9387 313.89 99.1798 316.297 101.692C319.147 104.674 319.055 109.597 317.586 113.505C317.393 114.018 317.174 114.555 317.25 115.101C317.326 115.647 317.719 116.144 318.089 116.579L319.648 118.394C315.961 119.313 311.79 117.325 310.073 113.835C309.544 112.756 309.192 111.513 308.287 110.744C307.476 110.058 306.386 109.894 305.376 109.587C302.044 108.566 299.25 105.423 299.146 101.839C299.095 100.154 299.605 98.4701 299.374 96.8021C299.245 95.8499 298.88 94.9484 298.313 94.1856C297.442 93.0115 296.127 92.2233 295.418 90.9151C294.217 88.7271 295.13 85.885 294.265 83.5367C293.999 82.8172 293.467 82.0976 292.722 82.042C291.978 81.9864 291.341 82.6242 290.629 82.9087C289.147 83.504 287.544 82.4934 286.305 81.4566C285.067 80.4198 283.67 79.2424 282.093 79.4747C281.051 79.6251 280.231 80.3577 279.271 80.7404C278.561 81.0216 277.123 81.2735 276.503 80.6553C275.191 79.4092 278.229 76.1812 278.777 75.0169Z" fill="#591D4B"/>
<path opacity="0.1" d="M310.953 112.756C310.421 111.677 310.073 110.434 309.167 109.668C308.356 108.982 307.267 108.815 306.253 108.507C302.924 107.49 300.131 104.347 300.023 100.763C299.972 99.0784 300.482 97.3908 300.254 95.7228C300.122 94.7767 299.756 93.8815 299.193 93.1227C298.319 91.9485 297.005 91.1603 296.298 89.8521C295.098 87.6674 296.01 84.8252 295.142 82.4737C294.879 81.7575 294.344 81.0379 293.603 80.9791C292.862 80.9202 292.219 81.5645 291.509 81.849C290.027 82.4443 288.421 81.4304 287.186 80.3969C285.951 79.3634 284.548 78.1827 282.974 78.4117C281.931 78.5654 281.108 79.298 280.151 79.6774C279.442 79.9587 278.001 80.2138 277.38 79.5956C276.075 78.2874 279.113 75.0659 279.657 73.9081C280.11 72.9531 280.335 71.8902 280.88 70.9875C280.908 70.9384 280.94 70.8894 280.972 70.8403C280.564 71.1889 280.213 71.6017 279.93 72.0635C279.388 72.9662 279.163 74.0259 278.71 74.9841C278.162 76.1419 275.125 79.3732 276.433 80.6716C277.066 81.293 278.492 81.0379 279.201 80.7567C280.151 80.374 280.981 79.6414 282.023 79.491C283.607 79.2588 285.001 80.4394 286.236 81.4729C287.471 82.5064 289.086 83.5203 290.562 82.9251C291.272 82.6405 291.893 81.9995 292.653 82.0584C293.413 82.1172 293.92 82.8335 294.195 83.553C295.06 85.9013 294.148 88.7434 295.348 90.9314C296.058 92.2167 297.372 93.0213 298.243 94.202C298.81 94.9647 299.175 95.8662 299.304 96.8184C299.535 98.4864 299.025 100.171 299.076 101.855C299.181 105.453 301.974 108.583 305.306 109.603C306.31 109.91 307.406 110.074 308.217 110.761C309.126 111.529 309.484 112.772 310.003 113.851C311.72 117.341 315.891 119.33 319.578 118.411L318.843 117.554C315.647 117.603 312.414 115.726 310.953 112.756Z" fill="black"/>
<path opacity="0.1" d="M289.118 97.8291C288.703 98.4832 287.515 101.832 286.524 104.756C285.596 104.383 284.753 102.006 284.753 102.006L289.701 94.7384C290.208 95.4579 289.875 96.6517 289.118 97.8291Z" fill="black"/>
<path d="M289.308 97.6328C288.893 98.2869 287.705 101.636 286.714 104.56C285.786 104.19 284.943 101.809 284.943 101.809L289.891 94.5454C290.398 95.2617 290.065 96.4587 289.308 97.6328Z" fill="#DCE7FF"/>
<path d="M260.543 131.045L257.8 122.113C257.767 122.008 257.755 121.898 257.764 121.789C257.773 121.679 257.803 121.573 257.851 121.475C257.9 121.378 257.967 121.291 258.049 121.22C258.13 121.15 258.224 121.096 258.325 121.063C258.53 120.997 258.751 121.018 258.94 121.119C259.13 121.221 259.274 121.396 259.339 121.606L262.082 130.528L261.809 132.396L260.543 131.045Z" fill="#BE8B87"/>
<path opacity="0.1" d="M258.059 121.328C258.264 121.261 258.486 121.281 258.676 121.383C258.867 121.484 259.011 121.66 259.076 121.871L261.819 130.793L261.613 132.193L261.813 132.409L262.085 130.541L259.326 121.619C259.261 121.409 259.118 121.234 258.928 121.132C258.738 121.031 258.517 121.01 258.313 121.076C258.141 121.134 257.993 121.249 257.892 121.403C257.945 121.373 258.002 121.348 258.059 121.328Z" fill="white"/>
<path d="M260.543 131.045L262.082 130.541L261.857 132.072L261.81 132.409L261.36 131.925L260.543 131.045Z" fill="#EFC8C4"/>
<path d="M261.36 131.925C261.387 131.89 261.42 131.861 261.458 131.84C261.48 131.825 261.506 131.817 261.532 131.817C261.559 131.817 261.585 131.825 261.607 131.84C261.628 131.867 261.646 131.896 261.661 131.928C261.682 131.964 261.71 131.995 261.744 132.018C261.778 132.041 261.817 132.056 261.857 132.062L261.81 132.389L261.36 131.925Z" fill="#727A9C"/>
<path d="M257.784 125.285C257.784 125.285 263.286 125.253 261.99 127.67C260.695 130.087 258.671 130.378 258.671 130.378L257.784 125.285Z" fill="#FFB0B1"/>
<path d="M223.567 16.8173H223.33C213.879 16.8173 205.52 21.9815 200.712 29.6019C195.904 21.9815 187.546 16.8173 178.095 16.8173H177.857C170.764 16.8871 163.984 19.8445 158.991 25.0469C153.998 30.2493 151.195 37.2762 151.191 44.6007C151.191 53.6961 155.049 66.6018 162.572 77.2213C176.904 97.4562 200.712 115.16 200.712 115.16C200.712 115.16 224.521 97.4595 238.85 77.2213C246.375 66.6018 250.23 53.6961 250.23 44.6007C250.226 37.2768 247.423 30.2503 242.431 25.048C237.439 19.8457 230.66 16.8879 223.567 16.8173ZM220.169 78.7781C219.093 78.7738 218.043 78.4336 217.157 77.8021C216.271 77.1705 215.591 76.2772 215.206 75.2393H209.555C209.183 75.2369 208.821 75.1146 208.52 74.8895C208.218 74.6643 207.992 74.3476 207.874 73.9834L206.138 68.5837L200.646 88.4001C200.539 88.7815 200.315 89.1169 200.008 89.3557C199.7 89.5946 199.326 89.724 198.942 89.7246H198.831C198.43 89.7046 198.047 89.543 197.747 89.2668C197.448 88.9906 197.249 88.6165 197.184 88.2071L191.524 53.0551L187.387 73.8559C187.293 74.251 187.072 74.602 186.762 74.8527C186.451 75.1035 186.068 75.2396 185.674 75.2393H177.714C177.476 75.2497 177.238 75.2102 177.014 75.1231C176.791 75.036 176.587 74.9032 176.414 74.7325C176.242 74.5619 176.105 74.357 176.011 74.1302C175.917 73.9034 175.869 73.6593 175.869 73.4127C175.869 73.1661 175.917 72.9221 176.011 72.6952C176.105 72.4684 176.242 72.2635 176.414 72.0929C176.587 71.9223 176.791 71.7894 177.014 71.7023C177.238 71.6152 177.476 71.5757 177.714 71.5861H184.28L190.14 43.6195C190.236 43.206 190.468 42.8399 190.797 42.5837C191.126 42.3275 191.53 42.1971 191.942 42.2149C192.353 42.2327 192.746 42.3975 193.053 42.6811C193.359 42.9648 193.561 43.3496 193.624 43.77L199.404 79.6284L204.326 61.8987C204.429 61.5253 204.645 61.1961 204.944 60.9603C205.242 60.7246 205.607 60.5948 205.983 60.5905H206.017C206.39 60.5906 206.752 60.7121 207.054 60.9376C207.355 61.1631 207.58 61.4812 207.696 61.8464L210.835 71.5959H215.136C215.442 70.6365 215.999 69.7831 216.744 69.1297C217.49 68.4763 218.397 68.0484 219.363 67.8933C220.33 67.7381 221.319 67.8618 222.222 68.2505C223.124 68.6392 223.906 69.278 224.479 70.0962C225.052 70.9145 225.396 71.8804 225.471 72.8874C225.546 73.8944 225.351 74.9034 224.906 75.8028C224.461 76.7023 223.784 77.4574 222.95 77.9847C222.116 78.5121 221.157 78.7911 220.178 78.7912L220.169 78.7781Z" fill="#3795BD"/>
</g>
<defs>
<linearGradient id="paint0_linear_600_7" x1="112.861" y1="253.426" x2="112.861" y2="52.1753" gradientUnits="userSpaceOnUse">
<stop stop-color="#808080" stop-opacity="0.25"/>
<stop offset="0.54" stop-color="#808080" stop-opacity="0.12"/>
<stop offset="1" stop-color="#808080" stop-opacity="0.1"/>
</linearGradient>
<linearGradient id="paint1_linear_600_7" x1="282.977" y1="250.882" x2="282.977" y2="67.076" gradientUnits="userSpaceOnUse">
<stop stop-color="#808080" stop-opacity="0.25"/>
<stop offset="0.54" stop-color="#808080" stop-opacity="0.12"/>
<stop offset="1" stop-color="#808080" stop-opacity="0.1"/>
</linearGradient>
<clipPath id="clip0_600_7">
<rect width="350" height="256" fill="white"/>
</clipPath>
</defs>
</svg>
