<svg width="395" height="347" viewBox="0 0 395 347" fill="none" xmlns="http://www.w3.org/2000/svg">
<path d="M283.527 309H73.1948C71.7106 308.999 70.2876 308.504 69.2381 307.624C68.1886 306.745 67.5983 305.552 67.5966 304.308L58 4.70997C57.9986 4.09265 58.1422 3.48113 58.4228 2.91033C58.7033 2.33953 59.1152 1.82063 59.635 1.38326C60.1549 0.9459 60.7724 0.598635 61.4523 0.361293C62.1323 0.123952 62.8613 0.00118275 63.5979 0H273.93C275.414 0.00139444 276.837 0.496174 277.887 1.37579C278.936 2.2554 279.527 3.44801 279.528 4.69197L281.267 58.9668L279.668 59.0028L277.929 4.70997C277.931 4.26862 277.828 3.83135 277.628 3.42312C277.428 3.01489 277.134 2.64371 276.763 2.3308C276.391 2.01789 275.95 1.76938 275.464 1.59947C274.978 1.42956 274.457 1.34158 273.93 1.34056H63.5979C62.5378 1.34159 61.5214 1.69502 60.7717 2.32331C60.0221 2.9516 59.6004 3.80344 59.5992 4.69197L69.1958 304.29C69.1943 304.731 69.2965 305.169 69.4966 305.577C69.6968 305.985 69.991 306.356 70.3623 306.669C70.7337 306.982 71.175 307.231 71.661 307.401C72.147 307.57 72.6682 307.658 73.1948 307.659H283.527C284.587 307.658 285.604 307.305 286.353 306.677C287.103 306.048 287.524 305.197 287.526 304.308L285.658 246.011L287.257 245.975L289.125 304.29C289.126 304.907 288.983 305.519 288.702 306.09C288.422 306.66 288.01 307.179 287.49 307.617C286.97 308.054 286.353 308.401 285.673 308.639C284.993 308.876 284.264 308.999 283.527 309Z" fill="#CCCCCC"/>
<path d="M283.843 139.401L282.244 139.437L283.068 165.166L284.667 165.13L283.843 139.401Z" fill="#CCCCCC"/>
<path d="M264.653 282.597H90.4218C89.1559 282.596 87.9423 282.174 87.0472 281.424C86.1521 280.674 85.6486 279.656 85.6472 278.595L77.6978 30.4226C77.6962 29.8959 77.8185 29.3741 78.0576 28.887C78.2967 28.3999 78.6479 27.957 79.0913 27.5837C79.5346 27.2105 80.0614 26.914 80.6415 26.7114C81.2215 26.5088 81.8436 26.4039 82.472 26.4028H256.703C257.969 26.404 259.183 26.826 260.078 27.5762C260.973 28.3265 261.476 29.3436 261.478 30.4046L262.918 58.9567L261.32 59.013L259.879 30.4327C259.882 30.0812 259.802 29.7327 259.644 29.4071C259.486 29.0816 259.252 28.7854 258.957 28.5356C258.662 28.2857 258.311 28.0871 257.925 27.9512C257.538 27.8153 257.123 27.7447 256.703 27.7434H82.472C81.6302 27.7443 80.8232 28.0249 80.228 28.5238C79.6328 29.0227 79.2979 29.6991 79.297 30.4046L87.2464 278.577C87.2447 278.928 87.3255 279.276 87.4842 279.6C87.643 279.925 87.8765 280.22 88.1714 280.469C88.4663 280.718 88.8169 280.915 89.203 281.05C89.5892 281.186 90.0033 281.256 90.4218 281.257H264.653C265.495 281.256 266.302 280.975 266.897 280.476C267.492 279.977 267.827 279.301 267.828 278.595L266.799 246.011L268.398 245.976L269.427 278.578C269.429 279.104 269.307 279.626 269.068 280.113C268.828 280.6 268.477 281.043 268.034 281.416C267.59 281.79 267.064 282.086 266.484 282.289C265.904 282.491 265.282 282.596 264.653 282.597Z" fill="#CCCCCC"/>
<path d="M265.052 140.071L263.453 140.107L264.258 165.577L265.857 165.542L265.052 140.071Z" fill="#CCCCCC"/>
<path d="M311.014 140.089H107.08C105.604 140.088 104.188 139.598 103.139 138.727C102.091 137.856 101.496 136.673 101.482 135.436L98.2827 63.0065C98.2844 61.7626 98.8747 60.57 99.9242 59.6904C100.974 58.8107 102.397 58.316 103.881 58.3146H307.815C309.291 58.3159 310.707 58.8054 311.756 59.6767C312.804 60.548 313.399 61.7307 313.413 62.9679L316.612 135.397C316.611 136.641 316.02 137.834 314.971 138.713C313.921 139.593 312.498 140.088 311.014 140.089ZM99.8824 62.9712L103.081 135.397C103.082 136.286 103.504 137.137 104.254 137.766C105.003 138.394 106.02 138.747 107.08 138.748H311.014C312.067 138.747 313.077 138.399 313.825 137.778C314.574 137.157 315 136.315 315.013 135.432L311.814 63.0065C311.813 62.118 311.391 61.2662 310.641 60.6379C309.892 60.0096 308.875 59.6562 307.815 59.6551H103.881C102.828 59.6562 101.818 60.0048 101.07 60.6254C100.321 61.2461 99.8947 62.0888 99.8824 62.9712Z" fill="#3F3D56"/>
<path d="M349.402 246.664H145.468C143.991 246.662 142.575 246.173 141.527 245.302C140.479 244.43 139.883 243.248 139.87 242.01L136.67 169.581C136.672 168.337 137.262 167.145 138.312 166.265C139.361 165.385 140.784 164.891 142.269 164.889H346.203C347.679 164.891 349.095 165.38 350.143 166.251C351.191 167.123 351.787 168.305 351.801 169.543L355 241.972C354.998 243.216 354.408 244.408 353.358 245.288C352.309 246.168 350.886 246.662 349.402 246.664ZM138.27 169.546L141.469 241.972C141.47 242.86 141.892 243.712 142.641 244.34C143.391 244.969 144.407 245.322 145.468 245.323H349.402C350.455 245.322 351.465 244.973 352.213 244.353C352.961 243.732 353.388 242.889 353.4 242.007L350.202 169.581C350.2 168.693 349.779 167.841 349.029 167.213C348.279 166.584 347.263 166.231 346.203 166.23H142.269C141.216 166.231 140.206 166.579 139.457 167.2C138.709 167.821 138.282 168.664 138.27 169.546Z" fill="#3F3D56"/>
<path d="M193.852 180.641C192.473 180.641 191.151 181.1 190.176 181.917C189.201 182.734 188.654 183.842 188.654 184.998C188.654 186.153 189.201 187.262 190.176 188.079C191.151 188.896 192.473 189.355 193.852 189.355H297.819C299.197 189.355 300.519 188.896 301.494 188.079C302.469 187.262 303.017 186.153 303.017 184.998C303.017 183.842 302.469 182.734 301.494 181.917C300.519 181.1 299.197 180.641 297.819 180.641H193.852Z" fill="#3795BD"/>
<path d="M193.852 201.42C192.473 201.42 191.151 201.879 190.176 202.696C189.201 203.513 188.654 204.621 188.654 205.777C188.654 206.932 189.201 208.04 190.176 208.857C191.151 209.674 192.473 210.133 193.852 210.133H297.819C299.197 210.133 300.519 209.674 301.494 208.857C302.469 208.04 303.017 206.932 303.017 205.777C303.017 204.621 302.469 203.513 301.494 202.696C300.519 201.879 299.197 201.42 297.819 201.42H193.852Z" fill="#3795BD"/>
<path d="M193.852 222.198C192.473 222.198 191.151 222.658 190.176 223.475C189.201 224.292 188.654 225.4 188.654 226.555C188.654 227.711 189.201 228.819 190.176 229.636C191.151 230.453 192.473 230.912 193.852 230.912H297.819C299.197 230.912 300.519 230.453 301.494 229.636C302.469 228.819 303.017 227.711 303.017 226.555C303.017 225.4 302.469 224.292 301.494 223.475C300.519 222.658 299.197 222.198 297.819 222.198H193.852Z" fill="#3795BD"/>
<path d="M155.464 74.0662C154.086 74.0662 152.764 74.5252 151.789 75.3423C150.814 76.1593 150.266 77.2675 150.266 78.423C150.266 79.5785 150.814 80.6867 151.789 81.5037C152.764 82.3208 154.086 82.7798 155.464 82.7798H259.431C260.81 82.7798 262.132 82.3208 263.107 81.5037C264.082 80.6867 264.629 79.5785 264.629 78.423C264.629 77.2675 264.082 76.1593 263.107 75.3423C262.132 74.5252 260.81 74.0662 259.431 74.0662H155.464Z" fill="#3795BD"/>
<path d="M155.464 94.8448C154.086 94.8448 152.764 95.3039 151.789 96.1209C150.814 96.938 150.266 98.0462 150.266 99.2017C150.266 100.357 150.814 101.465 151.789 102.282C152.764 103.099 154.086 103.559 155.464 103.559H259.431C260.81 103.559 262.132 103.099 263.107 102.282C264.082 101.465 264.629 100.357 264.629 99.2017C264.629 98.0462 264.082 96.938 263.107 96.1209C262.132 95.3039 260.81 94.8448 259.431 94.8448H155.464Z" fill="#3795BD"/>
<path d="M155.464 115.624C154.086 115.624 152.764 116.083 151.789 116.9C150.814 117.717 150.266 118.825 150.266 119.98C150.266 121.136 150.814 122.244 151.789 123.061C152.764 123.878 154.086 124.337 155.464 124.337H259.431C260.81 124.337 262.132 123.878 263.107 123.061C264.082 122.244 264.629 121.136 264.629 119.98C264.629 118.825 264.082 117.717 263.107 116.9C262.132 116.083 260.81 115.624 259.431 115.624H155.464Z" fill="#3795BD"/>
<path d="M170.26 20.1085C174.676 20.1085 178.257 17.1076 178.257 13.4057C178.257 9.70384 174.676 6.70288 170.26 6.70288C165.843 6.70288 162.262 9.70384 162.262 13.4057C162.262 17.1076 165.843 20.1085 170.26 20.1085Z" fill="#E6E6E6"/>
<path d="M71.5737 101.482L76.1597 116.843L66.4053 138.225L50.6899 115.252L52.8705 101.924L71.5737 101.482Z" fill="#FDB4B4"/>
<path d="M77.0118 116.048H49.8772V140.115H77.0118V116.048Z" fill="#3795BD"/>
<path d="M65.8535 109.22C76.0879 109.22 84.3845 103.129 84.3845 95.6163C84.3845 88.1035 76.0879 82.0131 65.8535 82.0131C55.6191 82.0131 47.3225 88.1035 47.3225 95.6163C47.3225 103.129 55.6191 109.22 65.8535 109.22Z" fill="#FDB4B4"/>
<path d="M49.7231 105.732C49.7231 105.732 35.9101 87.005 48.3642 77.9932C60.8183 68.9815 70.8158 74.9197 70.8158 74.9197L76.5248 74.7503C76.5248 74.7503 77.7155 78.0484 79.6354 76.263C81.5553 74.4776 85.0247 80.9798 85.0247 80.9798C91.464 89.4928 69.1414 91.3999 69.1414 91.3999C69.1414 91.3999 70.7534 95.1692 69.115 95.9586C67.4766 96.748 63.0991 99.7174 63.0991 99.7174L59.1809 101.89L56.8524 99.2855C56.8524 99.2855 54.4203 97.8761 53.1915 98.4681C51.9627 99.0601 53.6529 106.85 53.6529 106.85L49.7231 105.732Z" fill="#2E2E41"/>
<path d="M27.4926 243.501L20.4077 321.081L37.8247 321.515L60.8506 244.151L27.4926 243.501Z" fill="#2E2E41"/>
<path d="M69.7067 243.068L62.6218 320.648L80.0388 321.081L103.065 243.718L69.7067 243.068Z" fill="#2E2E41"/>
<path d="M23.2262 261.226L32.4981 176.73L18.2792 132.732C17.0533 126.191 22.6671 120.003 31.3314 118.315L45.2448 115.606L51.4029 111.085L65.4101 133.792L74.1582 111.102L80.9808 114.744L101.216 121.298L101.207 121.451L97.9608 174.601L105.206 260.474L104.885 260.477L23.2262 261.226Z" fill="#E8E9EA"/>
<path d="M78.9203 320.2L83.9634 331.251C83.9634 331.251 103.693 333.221 104 337.704C104.307 342.188 77.1863 339.593 61.3054 340.179C45.4244 340.765 58.6441 328.14 58.6441 328.14L60.3364 320.885L78.9203 320.2Z" fill="#2E2E41"/>
<path d="M37.7353 319.404L42.7784 330.456C42.7784 330.456 62.5084 332.425 62.8154 336.909C63.1224 341.393 36.0013 338.797 20.1203 339.383C4.23934 339.969 17.459 327.344 17.459 327.344L19.1513 320.09L37.7353 319.404Z" fill="#2E2E41"/>
<path d="M13.1305 216.351C12.9166 214.172 13.417 211.987 14.5896 209.979L10.8257 187.314L25.5698 186.315L27.7999 209.414C29.2816 211.308 30.1239 213.434 30.2564 215.616C30.6901 221.074 27.2077 225.66 22.478 225.863C17.7482 226.066 13.563 221.807 13.1305 216.351Z" fill="#FDB4B4"/>
<path d="M106.516 219.678C106.334 217.498 106.867 215.317 108.069 213.318L104.642 190.624L119.4 189.743L121.287 212.858C122.741 214.764 123.552 216.898 123.652 219.08C124.004 224.541 120.454 229.099 115.721 229.264C110.989 229.429 106.867 225.137 106.516 219.678Z" fill="#FDB4B4"/>
<path d="M10.765 207.262L10.7151 207.066L3.03101 176.8L12.1106 127.516C12.9208 123.116 18.273 119.946 24.3084 120.301C27.4604 120.486 30.2883 121.583 32.2721 123.391C34.2555 125.199 35.1137 127.461 34.6885 129.761L27.8548 166.724L32.1574 206.259L10.765 207.262Z" fill="#E8E9EA"/>
<path d="M101.962 206.551L86.5128 130.849C85.7098 128.63 86.1798 126.307 87.8432 124.333C89.5065 122.358 92.1278 121.013 95.2245 120.542C101.149 119.643 106.999 122.301 108.545 126.593L123.387 205.601L101.962 206.551Z" fill="#E8E9EA"/>
<path d="M65.8635 140.712C66.911 140.712 67.7602 140.088 67.7602 139.319C67.7602 138.55 66.911 137.927 65.8635 137.927C64.816 137.927 63.9668 138.55 63.9668 139.319C63.9668 140.088 64.816 140.712 65.8635 140.712Z" fill="#D6D7D8"/>
<path d="M65.8635 151.254C66.911 151.254 67.7602 150.63 67.7602 149.861C67.7602 149.092 66.911 148.469 65.8635 148.469C64.816 148.469 63.9668 149.092 63.9668 149.861C63.9668 150.63 64.816 151.254 65.8635 151.254Z" fill="#D6D7D8"/>
<path d="M65.8635 161.796C66.911 161.796 67.7602 161.172 67.7602 160.403C67.7602 159.634 66.911 159.011 65.8635 159.011C64.816 159.011 63.9668 159.634 63.9668 160.403C63.9668 161.172 64.816 161.796 65.8635 161.796Z" fill="#D6D7D8"/>
<path d="M65.8635 172.337C66.911 172.337 67.7602 171.714 67.7602 170.945C67.7602 170.176 66.911 169.553 65.8635 169.553C64.816 169.553 63.9668 170.176 63.9668 170.945C63.9668 171.714 64.816 172.337 65.8635 172.337Z" fill="#D6D7D8"/>
<path d="M65.8635 182.879C66.911 182.879 67.7602 182.256 67.7602 181.487C67.7602 180.718 66.911 180.094 65.8635 180.094C64.816 180.094 63.9668 180.718 63.9668 181.487C63.9668 182.256 64.816 182.879 65.8635 182.879Z" fill="#D6D7D8"/>
<path d="M65.8635 193.421C66.911 193.421 67.7602 192.798 67.7602 192.029C67.7602 191.26 66.911 190.636 65.8635 190.636C64.816 190.636 63.9668 191.26 63.9668 192.029C63.9668 192.798 64.816 193.421 65.8635 193.421Z" fill="#D6D7D8"/>
<path d="M65.8635 203.963C66.911 203.963 67.7602 203.339 67.7602 202.571C67.7602 201.802 66.911 201.178 65.8635 201.178C64.816 201.178 63.9668 201.802 63.9668 202.571C63.9668 203.339 64.816 203.963 65.8635 203.963Z" fill="#D6D7D8"/>
<path d="M65.8635 214.505C66.911 214.505 67.7602 213.881 67.7602 213.112C67.7602 212.343 66.911 211.72 65.8635 211.72C64.816 211.72 63.9668 212.343 63.9668 213.112C63.9668 213.881 64.816 214.505 65.8635 214.505Z" fill="#D6D7D8"/>
<path d="M65.8657 222.659L29.9783 219.149L29.2872 219.081L10.946 188.037L0.0231934 169.553H28.4738L65.8657 222.659Z" fill="#3795BD"/>
<path d="M83.2519 132.251L82.0778 132C84.5241 125.842 79.3085 114.174 79.2554 114.058L80.723 114.871C80.947 115.353 85.8058 125.824 83.2519 132.251Z" fill="#3F3C57"/>
<path d="M41.9767 133.345L43.1508 133.094C40.7045 126.936 45.9794 115.446 46.0325 115.33L44.7765 115.948C44.5525 116.43 39.4228 126.918 41.9767 133.345Z" fill="#3F3C57"/>
<path d="M82.6651 139.324C85.4868 139.324 87.7742 137.645 87.7742 135.573C87.7742 133.502 85.4868 131.823 82.6651 131.823C79.8434 131.823 77.5559 133.502 77.5559 135.573C77.5559 137.645 79.8434 139.324 82.6651 139.324Z" fill="#3F3C57"/>
<path d="M47.4236 156.41H44.3251C43.9871 156.41 43.7135 156.209 43.7135 155.961C43.7135 155.713 43.9871 155.512 44.3251 155.512H47.4236C48.2777 155.512 49.0798 155.267 49.683 154.824C50.2856 154.38 50.6171 153.791 50.6153 153.164L50.5776 139.154C50.5776 136.111 47.2056 133.635 43.0607 133.635C38.9159 133.635 35.5432 136.111 35.5432 139.153L35.5809 152.267C35.5844 153.546 37.0053 154.595 38.748 154.605L40.8748 154.617C41.2123 154.619 41.484 154.821 41.4816 155.069C41.4792 155.316 41.2057 155.515 40.87 155.515H40.8653L38.7385 155.503C36.328 155.489 34.3625 154.038 34.3577 152.269L34.3201 139.154C34.3201 135.616 38.241 132.737 43.0607 132.737C47.8799 132.737 51.8008 135.616 51.8008 139.153L51.8384 153.163C51.8408 154.029 51.3827 154.845 50.5484 155.458C49.7146 156.072 48.6044 156.41 47.4236 156.41Z" fill="#3F3C57"/>
<path d="M40.8703 156.657C42.0674 156.657 43.0379 155.944 43.0379 155.066C43.0379 154.187 42.0674 153.474 40.8703 153.474C39.6731 153.474 38.7026 154.187 38.7026 155.066C38.7026 155.944 39.6731 156.657 40.8703 156.657Z" fill="#3F3C57"/>
<path d="M44.3249 157.552C45.522 157.552 46.4925 156.84 46.4925 155.961C46.4925 155.082 45.522 154.37 44.3249 154.37C43.1277 154.37 42.1572 155.082 42.1572 155.961C42.1572 156.84 43.1277 157.552 44.3249 157.552Z" fill="#3F3C57"/>
<path d="M5 346.286C5 346.677 5.39399 346.991 5.8846 346.991H394.115C394.606 346.991 395 346.677 395 346.286C395 345.894 394.606 345.58 394.115 345.58H5.8846C5.39398 345.58 5 345.894 5 346.286Z" fill="#3F3C57"/>
<path d="M320.63 104.088L340.451 94.9121V121.128H317.528L320.63 104.088Z" fill="#2E2E41"/>
<path d="M344.7 109.932L346.529 122.803L333.346 144.988L325.163 124.339L329.01 109.505L344.7 109.932Z" fill="#FDB4B4"/>
<path d="M347.211 123.571H324.448V146.813H347.211V123.571Z" fill="#3795BD"/>
<path d="M365.989 246.651L371.933 321.569L357.322 321.988L338.006 247.279L365.989 246.651Z" fill="#2E2E41"/>
<path d="M330.577 246.233L336.52 321.151L321.909 321.569L302.594 246.861L330.577 246.233Z" fill="#2E2E41"/>
<path d="M381.426 262.541L381.077 262.54L288 262.283L288.084 262.005L312.013 181.885L306.019 141.451C304.883 133.789 309.737 126.548 318.097 123.431L321.115 122.306L326.848 118.783L334.183 140.684L345.928 118.766L351.102 123.137L362.771 125.754C370.044 127.384 374.756 133.364 373.732 139.663L373.719 139.707L355.899 182.676L381.426 262.541Z" fill="#E8E9EA"/>
<path d="M322.848 320.718L338.437 321.38L339.857 328.386C339.857 328.386 350.947 340.577 337.624 340.011C324.302 339.445 301.551 341.952 301.808 337.622C302.066 333.292 318.617 331.39 318.617 331.39L322.848 320.718Z" fill="#2E2E41"/>
<path d="M357.397 319.949L372.986 320.612L374.406 327.617C374.406 327.617 385.496 339.809 372.174 339.243C358.851 338.677 336.1 341.184 336.358 336.854C336.615 332.524 353.166 330.622 353.166 330.622L357.397 319.949Z" fill="#2E2E41"/>
<path d="M371.673 219.665C371.31 224.933 367.799 229.046 363.831 228.85C359.864 228.654 356.942 224.225 357.306 218.955C357.417 216.848 358.124 214.794 359.367 212.965L361.238 190.659L373.606 191.624L370.449 213.511C371.433 215.451 371.852 217.561 371.673 219.665Z" fill="#FDB4B4"/>
<path d="M308.113 217.661C307.617 222.922 304.003 226.971 300.042 226.704C296.08 226.437 293.271 221.956 293.767 216.693C293.931 214.589 294.689 212.548 295.978 210.742L298.41 188.474L310.752 189.661L307.044 211.487C307.978 213.444 308.345 215.561 308.113 217.661Z" fill="#FDB4B4"/>
<path d="M373.665 210.895L355.702 209.926L355.724 209.699L359.312 171.741L353.58 136.047C353.222 133.824 353.943 131.637 355.608 129.89C357.274 128.142 359.648 127.081 362.295 126.902C367.363 126.565 371.857 129.624 372.537 133.877L380.154 181.471L380.146 181.507L373.665 210.895Z" fill="#E8E9EA"/>
<path d="M311.103 209.441L293.111 208.522L293.151 208.282L305.557 132.243C306.862 128.067 311.776 125.498 316.749 126.367C319.349 126.822 321.55 128.123 322.946 130.031C324.343 131.939 324.738 134.184 324.058 136.353L311.103 209.441Z" fill="#E8E9EA"/>
<path d="M333.801 147.389C334.679 147.389 335.392 146.787 335.392 146.044C335.392 145.302 334.679 144.7 333.801 144.7C332.922 144.7 332.209 145.302 332.209 146.044C332.209 146.787 332.922 147.389 333.801 147.389Z" fill="#D6D7D8"/>
<path d="M333.801 157.569C334.679 157.569 335.392 156.967 335.392 156.224C335.392 155.482 334.679 154.88 333.801 154.88C332.922 154.88 332.209 155.482 332.209 156.224C332.209 156.967 332.922 157.569 333.801 157.569Z" fill="#D6D7D8"/>
<path d="M333.801 167.749C334.679 167.749 335.392 167.147 335.392 166.405C335.392 165.662 334.679 165.06 333.801 165.06C332.922 165.06 332.209 165.662 332.209 166.405C332.209 167.147 332.922 167.749 333.801 167.749Z" fill="#D6D7D8"/>
<path d="M333.801 177.929C334.679 177.929 335.392 177.327 335.392 176.585C335.392 175.842 334.679 175.24 333.801 175.24C332.922 175.24 332.209 175.842 332.209 176.585C332.209 177.327 332.922 177.929 333.801 177.929Z" fill="#D6D7D8"/>
<path d="M333.801 188.109C334.679 188.109 335.392 187.507 335.392 186.765C335.392 186.022 334.679 185.42 333.801 185.42C332.922 185.42 332.209 186.022 332.209 186.765C332.209 187.507 332.922 188.109 333.801 188.109Z" fill="#D6D7D8"/>
<path d="M333.801 198.29C334.679 198.29 335.392 197.688 335.392 196.945C335.392 196.202 334.679 195.6 333.801 195.6C332.922 195.6 332.209 196.202 332.209 196.945C332.209 197.688 332.922 198.29 333.801 198.29Z" fill="#D6D7D8"/>
<path d="M333.801 208.47C334.679 208.47 335.392 207.868 335.392 207.125C335.392 206.383 334.679 205.781 333.801 205.781C332.922 205.781 332.209 206.383 332.209 207.125C332.209 207.868 332.922 208.47 333.801 208.47Z" fill="#D6D7D8"/>
<path d="M333.801 218.65C334.679 218.65 335.392 218.048 335.392 217.305C335.392 216.563 334.679 215.961 333.801 215.961C332.922 215.961 332.209 216.563 332.209 217.305C332.209 218.048 332.922 218.65 333.801 218.65Z" fill="#D6D7D8"/>
<path d="M336.216 116.501C344.435 116.501 351.098 110.87 351.098 103.925C351.098 96.9792 344.435 91.3486 336.216 91.3486C327.997 91.3486 321.334 96.9792 321.334 103.925C321.334 110.87 327.997 116.501 336.216 116.501Z" fill="#FDB4B4"/>
<path d="M344.015 89.2437C344.728 90.4693 343.597 92.0003 342.101 92.5156C340.604 93.0309 338.913 92.8221 337.317 92.6076C335.721 92.3931 334.027 92.1897 332.535 92.7141C330.604 93.3927 329.516 95.0948 328.578 96.6743C326.827 99.623 325.076 102.572 323.325 105.52C322.469 106.961 321.595 108.466 321.578 110.078C321.548 113.037 324.325 115.401 325.82 118.077C327.639 121.335 327.489 125.327 325.429 128.481C323.368 131.635 319.45 133.869 315.218 134.304C314.105 134.418 312.927 134.406 311.925 133.978C310.924 133.551 310.16 132.617 310.346 131.682C310.708 129.854 314.014 129.427 314.621 127.645C314.938 126.716 314.377 125.722 313.62 124.996C312.864 124.27 311.907 123.703 311.185 122.952C309.52 121.219 309.41 118.545 310.926 116.719C311.818 115.645 313.197 114.848 313.773 113.63C314.264 112.592 314.085 111.425 313.899 110.318C313.66 108.896 313.421 107.474 313.182 106.052C312.904 104.393 312.629 102.674 313.18 101.065C314.443 97.3756 319.372 95.643 322.263 92.6798C323.606 91.3029 324.51 89.6468 325.888 88.2946C328.2 86.0255 331.841 84.7737 335.372 85.0339C338.902 85.2941 342.232 87.0597 344.044 89.6329" fill="#2E2E41"/>
<path d="M341.666 89.4763C340.939 89.696 340.669 90.4963 340.878 91.1244C341.087 91.7525 341.635 92.2516 342.137 92.7477C347.81 98.3584 349.129 106.845 345.362 113.504C344.36 115.275 343.025 116.941 342.485 118.851C342.092 120.24 342.113 121.763 341.201 122.966C340.272 124.19 338.433 125.011 338.251 126.457C338.134 127.385 338.803 128.286 339.7 128.83C340.598 129.374 341.694 129.623 342.772 129.826C345.573 130.354 348.438 130.642 351.308 130.684C352.243 130.698 353.209 130.681 354.067 130.366C354.925 130.051 355.658 129.368 355.668 128.577C355.675 127.956 355.251 127.382 355.197 126.763C355.035 124.905 357.992 123.917 358.569 122.12C358.947 120.938 358.201 119.722 357.406 118.699C356.611 117.675 355.704 116.6 355.723 115.376C355.742 114.204 356.612 113.172 356.951 112.035C357.418 110.463 356.844 108.818 356.274 107.27C355.789 105.954 355.304 104.638 354.819 103.322C354.304 101.923 353.789 100.524 353.274 99.125C352.374 96.6826 351.43 94.1694 349.483 92.2104C347.537 90.2515 344.311 88.9675 341.436 89.7673" fill="#2E2E41"/>
<path d="M351.807 138.209L350.787 137.958C352.912 131.801 348.33 120.31 348.283 120.195L349.289 119.905C349.483 120.387 354.025 131.782 351.807 138.209Z" fill="#3F3C57"/>
<path d="M351.297 145.282C353.748 145.282 355.735 143.603 355.735 141.531C355.735 139.46 353.748 137.781 351.297 137.781C348.846 137.781 346.859 139.46 346.859 141.531C346.859 143.603 348.846 145.282 351.297 145.282Z" fill="#3F3C57"/>
<path d="M322.135 154.809H319.443C319.149 154.809 318.912 154.608 318.912 154.36C318.912 154.112 319.149 153.911 319.443 153.911H322.135C322.876 153.911 323.573 153.667 324.097 153.224C324.621 152.78 324.909 152.191 324.907 151.564L324.874 137.554C324.874 134.51 321.945 132.035 318.345 132.035C314.744 132.035 311.814 134.51 311.814 137.553L311.847 150.667C311.85 151.946 313.084 152.995 314.598 153.005L316.446 153.016C316.739 153.018 316.975 153.221 316.973 153.469C316.971 153.715 316.733 153.914 316.442 153.914H316.437L314.59 153.902C312.496 153.889 310.789 152.438 310.784 150.668L310.752 137.554C310.752 134.015 314.158 131.137 318.345 131.137C322.531 131.137 325.937 134.015 325.937 137.553L325.97 151.562C325.972 152.429 325.574 153.244 324.849 153.858C324.125 154.471 323.16 154.809 322.135 154.809Z" fill="#3F3C57"/>
<path d="M316.442 155.057C317.482 155.057 318.325 154.344 318.325 153.465C318.325 152.587 317.482 151.874 316.442 151.874C315.402 151.874 314.559 152.587 314.559 153.465C314.559 154.344 315.402 155.057 316.442 155.057Z" fill="#3F3C57"/>
<path d="M319.443 155.952C320.483 155.952 321.326 155.239 321.326 154.361C321.326 153.482 320.483 152.769 319.443 152.769C318.403 152.769 317.56 153.482 317.56 154.361C317.56 155.239 318.403 155.952 319.443 155.952Z" fill="#3F3C57"/>
</svg>
