<svg width="256" height="256" viewBox="0 0 256 256" fill="none" xmlns="http://www.w3.org/2000/svg">
<g clip-path="url(#clip0_605_789)">
<path d="M219.046 136.66H199.248C201.266 142.185 202.368 148.148 202.368 154.362V229.187C202.368 231.778 201.917 234.265 201.097 236.578H233.827C246.054 236.578 256 226.631 256 214.405V173.615C256.001 153.238 239.423 136.66 219.046 136.66Z" fill="#3795BD"/>
<path d="M53.6326 154.363C53.6326 148.148 54.7351 142.186 56.7531 136.661H36.9551C16.578 136.661 0 153.239 0 173.616V214.406C0 226.632 9.94652 236.579 22.173 236.579H54.9041C54.0836 234.265 53.6326 231.779 53.6326 229.188V154.363Z" fill="#3795BD"/>
<path d="M150.631 117.408H105.37C84.9926 117.408 68.4146 133.986 68.4146 154.363V229.188C68.4146 233.269 71.7236 236.579 75.8056 236.579H180.195C184.277 236.579 187.586 233.27 187.586 229.188V154.363C187.586 133.986 171.008 117.408 150.631 117.408Z" fill="#3795BD"/>
<path d="M128 19.42C103.494 19.42 83.5571 39.3571 83.5571 63.8636C83.5571 80.4862 92.7317 95.0037 106.281 102.626C112.707 106.241 120.116 108.307 128 108.307C135.884 108.307 143.293 106.241 149.72 102.626C163.269 95.0037 172.443 80.4857 172.443 63.8636C172.443 39.3576 152.506 19.42 128 19.42Z" fill="#3795BD"/>
<path d="M49.9592 60.8446C31.6317 60.8446 16.7217 75.7546 16.7217 94.0822C16.7217 112.41 31.6317 127.32 49.9592 127.32C54.6083 127.32 59.0353 126.357 63.0568 124.626C70.0098 121.632 75.7428 116.333 79.2903 109.696C81.7803 105.037 83.1968 99.7227 83.1968 94.0822C83.1968 75.7551 68.2868 60.8446 49.9592 60.8446Z" fill="#3795BD"/>
<path d="M206.041 60.8446C187.714 60.8446 172.804 75.7546 172.804 94.0822C172.804 99.7232 174.22 105.038 176.71 109.696C180.258 116.334 185.991 121.633 192.944 124.626C196.965 126.357 201.392 127.32 206.041 127.32C224.369 127.32 239.279 112.41 239.279 94.0822C239.279 75.7546 224.369 60.8446 206.041 60.8446Z" fill="#3795BD"/>
</g>
<defs>
<clipPath id="clip0_605_789">
<rect width="256" height="256" fill="white"/>
</clipPath>
</defs>
</svg>
